SplineFontDB: 3.2
FontName: Paribartan1
FullName: Paribartan 1
FamilyName: Paribartan
Weight: Regular
Copyright: Copyright 2024 The Paribartan Project Authors (github.com/mitradranirban/paribartan)
Version: 0.001
ItalicAngle: 0
UnderlinePosition: 0
UnderlineWidth: 0
Ascent: 800
Descent: 200
InvalidEm: 1
UFOAscent: 800
UFODescent: -250
LayerCount: 2
Layer: 0 0 "Back" 1
Layer: 1 0 "Fore" 0
StyleMap: 0x0000
FSType: 0
OS2Version: 0
OS2_WeightWidthSlopeOnly: 0
OS2_UseTypoMetrics: 0
CreationTime: 1733728903
ModificationTime: 1734362629
PfmFamily: 17
TTFWeight: 400
TTFWidth: 5
LineGap: 0
VLineGap: 0
OS2TypoAscent: 1200
OS2TypoAOffset: 0
OS2TypoDescent: -400
OS2TypoDOffset: 0
OS2TypoLinegap: 0
OS2WinAscent: 1160
OS2WinAOffset: 0
OS2WinDescent: 348
OS2WinDOffset: 0
HheadAscent: 1200
HheadAOffset: 0
HheadDescent: -400
HheadDOffset: 0
OS2CapHeight: 750
OS2XHeight: 500
OS2Vendor: 'anir'
MarkAttachClasses: 1
DEI: 91125
LangName: 1033 "" "" "" "" "" "" "" "" "Dr Anirban Mitra" "Dr Anirban Mitra" "Variable Color Bengali Font" "https://fonts.atipra.in" "https://github.com/mitradranirban" "This Font Software is licensed under the SIL Open Font License, Version 1.1. This license is available with a FAQ at: https://openfontlicense.org+ACIA" " https://openfontlicense.org"
PickledDataWithLists: "(dp0
Vxyz.fontra.lineMetricsHorizontalLayout.zones
p1
(dp2
Vascender
p3
I16
sVbaseline
p4
I-16
sVcapHeight
p5
I16
sVdescender
p6
I-16
sVxHeight
p7
I16
ss."
Encoding: UnicodeBmp
Compacted: 1
UnicodeInterp: none
NameList: AGL For New Fonts
DisplaySize: -128
AntiAlias: 1
FitToEm: 1
WidthSeparation: 150
WinInfo: 330 10 4
BeginPrivate: 0
EndPrivate
Grid
-1000 -402 m 0
 2000 -402 l 1024
-1000 510.5 m 0
 2000 510.5 l 1024
  Named: "XHGHT"
-982 752 m 0
 2018 752 l 1024
  Named: "CAPS"
-1000 1202 m 0
 2000 1202 l 1024
EndSplineSet
BeginChars: 65537 396

StartChar: exclam
Encoding: 33 33 0
Width: 252
VWidth: 0
Flags: HW
HStem: 8 142<50 202>
VStem: 50 152<8 150 268 782>
LayerCount: 2
Fore
SplineSet
50 268 m 257
 50 782 l 257
 202 782 l 257
 202 268 l 257
 50 268 l 257
50 8 m 257
 50 150 l 257
 202 150 l 257
 202 8 l 257
 50 8 l 257
EndSplineSet
EndChar

StartChar: quotedbl
Encoding: 34 34 1
Width: 452
VWidth: 0
Flags: HW
HStem: 542 257<50 202 250 402>
VStem: 50 152<542 799> 250 152<542 799>
LayerCount: 2
Fore
SplineSet
250 542 m 261
 250 799 l 261
 402 799 l 261
 402 542 l 261
 250 542 l 261
50 542 m 257
 50 799 l 257
 202 799 l 257
 202 542 l 257
 50 542 l 257
EndSplineSet
EndChar

StartChar: numbersign
Encoding: 35 35 2
Width: 644
VWidth: 0
Flags: HW
HStem: 226 152<55 64.8453 243.718 364.845 543.718 599> 476 152<55 109.044 287.917 409.044 587.917 599>
LayerCount: 2
Fore
SplineSet
149 702 m 1
 301 702 l 1
 287.916992188 628 l 1
 435.916992188 628 l 1
 449 702 l 1
 601 702 l 1
 587.916992188 628 l 1
 599 628 l 1
 599 476 l 1
 561.043945312 476 l 1
 543.717773438 378 l 1
 599 378 l 1
 599 226 l 1
 516.845703125 226 l 1
 505 159 l 1
 353 159 l 1
 364.845703125 226 l 1
 216.845703125 226 l 1
 205 159 l 1
 53 159 l 1
 64.845703125 226 l 1
 55 226 l 1
 55 378 l 1
 91.7177734375 378 l 1
 109.043945312 476 l 1
 55 476 l 1
 55 628 l 1
 135.916992188 628 l 1
 149 702 l 1
409.043945312 476 m 1
 261.043945312 476 l 1
 243.717773438 378 l 1
 391.717773438 378 l 1
 409.043945312 476 l 1
EndSplineSet
EndChar

StartChar: dollar
Encoding: 36 36 3
Width: 512
VWidth: 0
Flags: HW
VStem: 253 210.5<165.062 311.804> 253 79<-172 9.65447 452.672 595.787 784.489 1040>
LayerCount: 2
Fore
SplineSet
60 67 m 1x40
 135 192 l 1
 140.333007812 188 147.666992188 183 157 177 c 0
 182.333007812 162.333007812 209.333007812 158.333007812 238 165 c 0
 243.245117188 166.219726562 248.245117188 167.741210938 253 169.563476562 c 1x80
 253 319.608398438 l 1
 246.412109375 321.99609375 239.412109375 323.79296875 232 325 c 0
 199.333007812 343 171 363 147 385 c 0
 123 407 104 431.666992188 90 459 c 0
 76 486.333007812 70 516.333007812 72 549 c 0
 74 581.666992188 85.3330078125 615 106 649 c 0
 140.186523438 705.163085938 189.186523438 744.8359375 253 768.017578125 c 1
 253 1040 l 1
 332 1040 l 1
 332 784.489257812 l 1
 379.180664062 785.873046875 421.180664062 770.04296875 458 737 c 0
 460 735 463.5 732.5 468.5 729.5 c 0
 473.5 726.5 477 724 479 722 c 1
 404 597 l 1
 396 603.666992188 388.666992188 608.666992188 382 612 c 0
 365.936523438 620.876953125 349.26953125 625.533203125 332 625.966796875 c 1
 332 410.544921875 l 1x40
 351.361328125 398.936523438 368.361328125 387.254882812 383 375.5 c 0
 405 357.833007812 424.166992188 337.333007812 440.5 314 c 0
 456.833007812 290.666992188 464.5 264.333007812 463.5 235 c 0x80
 462.5 205.666992188 452 174 432 140 c 0
 408.666992188 100.666992188 375.5 68.1669921875 332.5 42.5 c 0
 332.333007812 42.400390625 332.166992188 42.30078125 332 42.2021484375 c 2
 332 -172 l 1
 253 -172 l 1
 253 9.654296875 l 1
 235.934570312 5.681640625 218.767578125 3.6298828125 201.5 3.5 c 0
 157.166992188 3.1669921875 117 19.3330078125 81 52 c 0
 79 54 75.5 56.5 70.5 59.5 c 0
 65.5 62.5 62 65 60 67 c 1x40
253 595.787109375 m 1x40
 246.98046875 589.745117188 241.647460938 582.815429688 237 575 c 0
 220.333007812 547.666992188 218.833007812 517.666992188 232.5 485 c 0
 237.901367188 472.088867188 244.734375 461.313476562 253 452.671875 c 1
 253 595.787109375 l 1x40
EndSplineSet
EndChar

StartChar: percent
Encoding: 37 37 4
Width: 691
VWidth: 0
Flags: HW
HStem: 92 75<498.188 521.812> 274 75<498.188 521.812> 493 75<193.188 216.812> 675 75<193.188 216.812>
VStem: 75 76<578.334 664.111> 259 76<578.933 663.698> 380 76<177.334 263.111> 564 76<177.933 262.698>
LayerCount: 2
Fore
SplineSet
204 493 m 260
 203 493 203 493 202 493 c 260
 200 493 197 493 195 493 c 260
 128 498 75 553 75 621 c 260
 75 689 128 745 195 750 c 260
 197 750 200 750 202 750 c 260
 203 750 203 750 204 750 c 260
 205 750 205 750 206 750 c 260
 278 750 335 693 335 621 c 260
 335 550 278 493 206 493 c 260
 205 493 205 493 204 493 c 260
205 675 m 260
 201 675 197 674 193 673 c 261
 193 674 l 261
 168 669 151 647 151 621 c 260
 151 595 168 574 193 569 c 261
 193 570 l 261
 197 569 201 568 205 568 c 261
 209 568 213 569 217 570 c 261
 217 569 l 261
 242 574 259 595 259 621 c 260
 259 647 242 669 217 674 c 261
 217 673 l 261
 213 674 209 675 205 675 c 260
509 92 m 256
 508 92 508 92 507 92 c 256
 505 92 502 92 500 92 c 256
 433 97 380 152 380 220 c 256
 380 288 433 344 500 349 c 256
 502 349 505 349 507 349 c 256
 508 349 508 349 509 349 c 256
 510 349 510 349 511 349 c 256
 583 349 640 292 640 220 c 256
 640 149 583 92 511 92 c 256
 510 92 510 92 509 92 c 256
510 274 m 256
 506 274 502 273 498 272 c 257
 498 273 l 257
 473 268 456 246 456 220 c 256
 456 194 473 173 498 168 c 257
 498 169 l 257
 502 168 506 167 510 167 c 257
 514 167 518 168 522 169 c 257
 522 168 l 257
 547 173 564 194 564 220 c 256
 564 246 547 268 522 273 c 257
 522 272 l 257
 518 273 514 274 510 274 c 256
535 828 m 257
 641 767 l 257
 156 -73 l 257
 50 -12 l 257
 535 828 l 257
EndSplineSet
EndChar

StartChar: ampersand
Encoding: 38 38 5
Width: 649
VWidth: 0
Flags: HW
HStem: 13 151<250.364 321.357> 508 20G<297.268 319.279>
VStem: 56.8926 151<206.066 281.468>
LayerCount: 2
Fore
SplineSet
388.892578125 820 m 1
 385.892578125 701 l 1
 360.892578125 699 242.892578125 634 223.892578125 615 c 0
 200.892578125 592 190.892578125 561 192.892578125 531 c 1
 215.551757812 508.340820312 l 1
 246.095703125 521.012695312 279.643554688 528 314.892578125 528 c 0
 323.666015625 528 332.338867188 527.560546875 340.892578125 526.704101562 c 1
 340.892578125 383 l 1
 452.024414062 271.868164062 l 1
 509.897460938 319.09375 564.953125 364.163085938 568.892578125 365.131835938 c 1
 568.892578125 212.295898438 l 2
 567.041015625 212.110351562 554.50390625 202.668945312 535.904296875 187.98828125 c 1
 599.892578125 124 l 1
 481.892578125 6 l 1
 405.688476562 82.955078125 l 1
 358.41015625 44.77734375 318.403320312 13 314.892578125 13 c 0
 171.892578125 13 56.892578125 128 56.892578125 270 c 0
 56.892578125 317.479492188 69.5703125 361.873046875 91.7412109375 399.995117188 c 1
 75.892578125 416 l 1
 20.81640625 515.021484375 62.6962890625 618.463867188 116.892578125 722 c 0
 143.875 773.546875 356.1484375 839.728515625 388.892578125 820 c 1
321.578125 167.893554688 m 1
 208.534179688 282.051757812 l 1
 208.110351562 278.1015625 207.892578125 274.081054688 207.892578125 270 c 0
 207.892578125 211 254.892578125 164 314.892578125 164 c 0
 315.63671875 164 317.953125 165.373046875 321.578125 167.893554688 c 1
EndSplineSet
EndChar

StartChar: quotesingle
Encoding: 39 39 6
Width: 252
VWidth: 0
Flags: HW
HStem: 542 257<50 202>
VStem: 50 152<542 799>
LayerCount: 2
Fore
SplineSet
50 542 m 261
 50 799 l 261
 202 799 l 261
 202 542 l 261
 50 542 l 261
EndSplineSet
EndChar

StartChar: parenleft
Encoding: 40 40 7
Width: 555
VWidth: 0
Flags: HW
HStem: -4 25<373.819 460.389> 754 29<364.924 455.227>
VStem: 50 104<262.783 514.708>
LayerCount: 2
Fore
SplineSet
432 754 m 256
 304 754 154 589 154 388 c 260
 154 186 304 21 432 21 c 256
 505 3 l 257
 481 -2 457 -4 432 -4 c 256
 221 -4 50 172 50 390 c 256
 50 607 221 783 432 783 c 256
 457 783 481 781 505 776 c 257
 432 754 l 256
EndSplineSet
EndChar

StartChar: parenright
Encoding: 41 41 8
Width: 555
VWidth: 0
Flags: HW
HStem: -4 25<94.6111 181.181> 754 29<99.7727 190.076>
VStem: 401 104<262.783 514.708>
LayerCount: 2
Fore
SplineSet
123 754 m 260
 50 776 l 261
 74 781 98 783 123 783 c 260
 334 783 505 607 505 390 c 260
 505 172 334 -4 123 -4 c 260
 98 -4 74 -2 50 3 c 261
 123 21 l 260
 251 21 401 186 401 388 c 260
 401 589 251 754 123 754 c 260
EndSplineSet
EndChar

StartChar: asterisk
Encoding: 42 42 9
Width: 644
VWidth: 0
Flags: HW
HStem: 354 152<50 139 505 594>
VStem: 246 152<159 247 613 702>
LayerCount: 2
Fore
SplineSet
594 506 m 1
 594 354 l 1
 505 354 l 1
 568 291 l 1
 461 184 l 1
 398 247 l 1
 398 159 l 1
 246 159 l 1
 246 247 l 1
 183 184 l 1
 76 291 l 1
 139 354 l 1
 50 354 l 1
 50 506 l 1
 139 506 l 1
 76 569 l 1
 183 676 l 1
 246 613 l 1
 246 702 l 1
 398 702 l 1
 398 613 l 1
 461 676 l 1
 568 569 l 1
 505 506 l 1
 594 506 l 1
EndSplineSet
EndChar

StartChar: plus
Encoding: 43 43 10
Width: 644
VWidth: 0
Flags: HW
HStem: 354 152<50 594>
VStem: 246 152<159 702>
LayerCount: 2
Fore
SplineSet
594 506 m 261
 594 354 l 261
 50 354 l 261
 50 506 l 261
 594 506 l 261
246 702 m 261
 398 702 l 261
 398 159 l 261
 246 159 l 261
 246 702 l 261
EndSplineSet
EndChar

StartChar: comma
Encoding: 44 44 11
Width: 252
VWidth: 0
Flags: HW
HStem: -124 274<92.7671 145.182>
VStem: 50 152<8 150>
LayerCount: 2
Fore
SplineSet
50 8 m 5
 50 150 l 5
 202 150 l 5
 202 8 l 5
 142 -124 l 5
 84 -120 l 5
 92.767578125 8 l 5
 50 8 l 5
EndSplineSet
EndChar

StartChar: hyphen
Encoding: 45 45 12
Width: 644
VWidth: 0
Flags: HW
HStem: 354 152<50 594>
LayerCount: 2
Fore
SplineSet
594 506 m 261
 594 354 l 261
 50 354 l 261
 50 506 l 261
 594 506 l 261
EndSplineSet
EndChar

StartChar: period
Encoding: 46 46 13
Width: 252
VWidth: 0
Flags: HW
HStem: 8 142<50 202>
VStem: 50 152<8 150>
LayerCount: 2
Fore
SplineSet
50 8 m 257
 50 150 l 257
 202 150 l 257
 202 8 l 257
 50 8 l 257
EndSplineSet
EndChar

StartChar: slash
Encoding: 47 47 14
Width: 691
VWidth: 0
Flags: HW
LayerCount: 2
Fore
SplineSet
535 828 m 257
 641 767 l 257
 156 -73 l 257
 50 -12 l 257
 535 828 l 257
EndSplineSet
EndChar

StartChar: zero
Encoding: 48 48 15
Width: 864
VWidth: 0
Flags: HW
HStem: -4 157<356.32 508.56> 622 161<356.32 508.56>
VStem: 126.5 122<281.459 495.999> 615.5 122<278.943 498.503>
LayerCount: 2
Fore
SplineSet
737.5 390 m 256
 737.5 172 601.5 -4 432.5 -4 c 256
 263.5 -4 126.5 172 126.5 390 c 256
 126.5 607 263.5 783 432.5 783 c 256
 601.5 783 737.5 607 737.5 390 c 256
615.5 388 m 256
 615.5 517 534.5 622 432.5 622 c 256
 330.5 622 248.5 517 248.5 388 c 256
 248.5 258 330.5 153 432.5 153 c 256
 534.5 153 615.5 258 615.5 388 c 256
EndSplineSet
EndChar

StartChar: one
Encoding: 49 49 16
Width: 436
VWidth: 0
Flags: HW
HStem: 8 21G<234 386> 764 20G<234 386>
VStem: 234 152<8 784>
LayerCount: 2
Fore
SplineSet
158 497 m 261
 50 604 l 261
 232 786 l 261
 340 679 l 261
 158 497 l 261
234 784 m 257
 386 784 l 257
 386 8 l 257
 234 8 l 257
 234 784 l 257
EndSplineSet
EndChar

StartChar: two
Encoding: 50 50 17
Width: 555
VWidth: 0
Flags: HW
HStem: 10 226<58.0748 244.22> 596 128.801<58.0915 234.536>
VStem: 359 153<334.465 487.36>
LayerCount: 2
Fore
SplineSet
130 596 m 4
 257 596 359 512 359 408.80078125 c 4
 359 304.80078125 257 236 130 236 c 4
 104.4453125 236 79.9033203125 239.401367188 57 245.682617188 c 5
 54 10 l 5
 557 14.80078125 l 5
 557 136.400390625 l 5
 281.891601562 133.775390625 l 5
 417.301757812 177.858398438 512 280.616210938 512 410.400390625 c 4
 512 584 341 724.80078125 130 724.80078125 c 4
 105.034179688 724.80078125 80.62890625 722.829101562 57 719.06640625 c 5
 57 586.325195312 l 5
 79.9033203125 592.599609375 104.4453125 596 130 596 c 4
EndSplineSet
EndChar

StartChar: three
Encoding: 51 51 18
Width: 435
VWidth: 0
Flags: HW
HStem: 3.87988 122.31<50 177.642> 298.149 122.641<101.207 198.605> 592.75 122.311<56 180.704>
VStem: 234 151<169.615 264.202 454.41 549.831>
LayerCount: 2
Fore
SplineSet
50 4.9296875 m 5
 50 128.7265625 l 5
 58.326171875 127.068359375 67.0361328125 126.189453125 76 126.189453125 c 4
 164.59765625 126.189453125 234 164.260742188 234 212.049804688 c 0
 234 257.192382812 193.44921875 293.25 139.595703125 298.15234375 c 0
 135.422851562 297.991210938 131.223632812 297.91015625 127 297.91015625 c 0
 122.829101562 297.91015625 118.681640625 297.990234375 114.55859375 298.149414062 c 0
 109.943359375 297.72265625 105.41796875 297.061523438 101 296.1796875 c 1
 101 298.959960938 l 1
 101 419.979492188 l 1
 101 422.756835938 l 1
 105.41796875 421.876953125 109.943359375 421.216796875 114.557617188 420.790039062 c 0
 118.681640625 420.94921875 122.829101562 421.030273438 127 421.030273438 c 0
 131.224609375 421.030273438 135.423828125 420.948242188 139.59765625 420.787109375 c 0
 193.450195312 425.686523438 234 461.690429688 234 506.080078125 c 0
 234 554.6796875 167.233398438 592.75 82 592.75 c 0
 73.0361328125 592.75 64.326171875 591.87109375 56 590.209960938 c 1
 56 714.009765625 l 1
 64.5537109375 714.704101562 73.2265625 715.060546875 82 715.060546875 c 0
 249.94140625 715.060546875 385 621.91015625 385 506.080078125 c 0
 385 448.852539062 356.532226562 397.0390625 310.310546875 359.418945312 c 1
 356.532226562 321.696289062 385 269.680664062 385 212.049804688 c 0
 385 97.0302734375 247.267578125 3.8798828125 76 3.8798828125 c 4
 67.2265625 3.8798828125 58.5537109375 4.2353515625 50 4.9296875 c 5
EndSplineSet
EndChar

StartChar: four
Encoding: 52 52 19
Width: 752
VWidth: 0
Flags: HW
HStem: 201.015 150<287.765 385.765> 764 20G<368.718 522.766>
VStem: 385.765 137.001<351.015 531.015> 393.764 129.002<10 202.015>
LayerCount: 2
Fore
SplineSet
393.763671875 10 m 257xd0
 393.763671875 202.014648438 l 257
 392.764648438 201.014648438 l 257
 57.7646484375 201.014648438 l 257
 379.764648438 784 l 257
 522.765625 784 l 257
 522.765625 10 l 257
 393.763671875 10 l 257xd0
385.764648438 351.014648438 m 257xe0
 385.764648438 531.014648438 l 257
 287.764648438 354.014648438 l 261
 385.764648438 351.014648438 l 257xe0
EndSplineSet
EndChar

StartChar: five
Encoding: 53 53 20
Width: 384
VWidth: 0
Flags: HW
HStem: 13 151<50 140.529> 632 152<202 367>
VStem: 50 152<481.593 632> 183 151<206.066 335.061>
LayerCount: 2
Fore
SplineSet
50 14 m 1xe0
 50 167 l 1xe0
 58 165 67 164 76 164 c 0
 136 164 183 211 183 270 c 0xd0
 183 330 136 377 76 377 c 0
 67 377 58 376 50 374 c 1
 50 407 l 1
 50 527 l 1
 50 783 l 1
 51 783 l 1
 51 784 l 1
 368 784 l 5
 367 632 l 5
 202 632 l 1
 202 495 l 1xe0
 281 451 334 367 334 270 c 0xd0
 334 128 219 13 76 13 c 0
 67 13 59 13 50 14 c 1xe0
EndSplineSet
EndChar

StartChar: six
Encoding: 54 54 21
Width: 729
VWidth: 0
Flags: HW
HStem: 622 161<337.002 549.858>
VStem: 50 224<261.187 334.857> 492 167<205.982 333.016>
LayerCount: 2
Fore
SplineSet
432 622 m 0
 317.669921875 622 223.6015625 536.90625 205.969726562 425.8125 c 1
 249.354492188 473.500976562 310.4609375 504.749023438 379.12890625 509.397460938 c 0
 384.006835938 509.727539062 388.66015625 509.930664062 393.451171875 509.9765625 c 0
 394.631835938 509.98828125 395.815429688 510 397 510 c 0
 397.301757812 510 397.603515625 509.999023438 397.905273438 509.998046875 c 0
 398.92578125 510 399.956054688 510 401 510 c 0
 524.041992188 510 626.35546875 424.859375 652.516601562 310 c 0
 656.759765625 291.370117188 659 271.958007812 659 252 c 0
 659 224.854492188 654.797851562 198.6953125 647 174.138671875 c 0
 627.598632812 113.034179688 585.939453125 61.8447265625 531.387695312 30.041015625 c 0
 499.198242188 7.6923828125 465.973632812 -4 432 -4 c 0
 429.5859375 -4 427.176757812 -3.9765625 424.772460938 -3.9306640625 c 0
 416.946289062 -4.638671875 409.017578125 -5 401 -5 c 0
 399.956054688 -5 398.92578125 -4.998046875 397.90625 -4.998046875 c 0
 397.604492188 -4.998046875 397.301757812 -5 397 -5 c 0
 395.815429688 -5 394.631835938 -4.9921875 393.451171875 -4.9765625 c 0
 388.662109375 -4.9130859375 384.004882812 -4.794921875 379.133789062 -4.3974609375 c 0
 325.603515625 -0.0244140625 276.633789062 19.9453125 237.079101562 50.984375 c 1
 125.05859375 119.575195312 50 245.5703125 50 390 c 0
 50 607 221 783 432 783 c 0
 456.965820312 783 527.37109375 780.536132812 551 775.83203125 c 1
 551 609.90625 l 1
 528.096679688 617.749023438 457.5546875 622 432 622 c 0
382.955078125 376.982421875 m 0
 374.642578125 377.12890625 366.393554688 375.848632812 359 374 c 1
 359 374.828125 l 1
 309.8984375 364.9453125 274 322.4375 274 270 c 0
 274 234.543945312 290.973632812 203.420898438 317.541992188 184.228515625 c 0
 327.942382812 178.08203125 338.862304688 172.750976562 350.22265625 168.317382812 c 0
 353.096679688 167.485351562 356.024414062 166.767578125 359 166.169921875 c 1
 359 167 l 1
 366.393554688 165.151367188 374.642578125 164.157226562 382.955078125 164.017578125 c 0
 391.23046875 164.163085938 399.280273438 165.234375 407 167.131835938 c 1
 407 166.169921875 l 1
 456.1015625 176.0390625 492 218.436523438 492 270 c 0
 492 322.4375 456.1015625 364.9453125 407 374.828125 c 1
 407 373.864257812 l 1
 399.280273438 375.765625 391.23046875 376.836914062 382.955078125 376.982421875 c 0
EndSplineSet
EndChar

StartChar: seven
Encoding: 55 55 22
Width: 610
VWidth: 0
Flags: HW
HStem: 620 152<50 389>
LayerCount: 2
Fore
SplineSet
213 10 m 257
 51 10 l 257
 389 620 l 257
 50 620 l 261
 50 772 l 261
 560 772 l 257
 560 620 l 257
 213 10 l 257
EndSplineSet
EndChar

StartChar: eight
Encoding: 56 56 23
Width: 616
VWidth: 0
Flags: HW
HStem: 376.983 92.0348<286.347 333.638>
VStem: 50 151<207.14 334.826 510.772 638.449> 419 151<205.844 334.826 510.772 639.753>
LayerCount: 2
Fore
SplineSet
309.959960938 333.504882812 m 256
 302.64453125 333.381835938 295.38671875 332.505859375 288.879882812 330.879882812 c 257
 288.879882812 331.609375 l 257
 245.669921875 322.912109375 214.080078125 285.504882812 214.080078125 239.359375 c 256
 214.080078125 193.984375 245.669921875 156.673828125 288.879882812 147.990234375 c 257
 288.879882812 148.720703125 l 257
 295.38671875 147.09375 302.64453125 146.21875 309.959960938 146.094726562 c 257
 317.243164062 146.223632812 324.327148438 147.166015625 331.120117188 148.8359375 c 257
 331.120117188 147.990234375 l 257
 374.330078125 156.673828125 405.919921875 193.984375 405.919921875 239.359375 c 256
 405.919921875 285.504882812 374.330078125 322.912109375 331.120117188 331.609375 c 257
 331.120117188 330.760742188 l 257
 324.327148438 332.434570312 317.243164062 333.375976562 309.959960938 333.504882812 c 256
309.959960938 601.904296875 m 256
 302.64453125 601.78125 295.38671875 600.907226562 288.879882812 599.279296875 c 257
 288.879882812 600.008789062 l 257
 245.669921875 591.3125 214.080078125 553.904296875 214.080078125 507.759765625 c 256
 214.080078125 462.384765625 245.669921875 425.075195312 288.879882812 416.389648438 c 257
 288.879882812 417.120117188 l 257
 295.38671875 415.493164062 302.64453125 414.618164062 309.959960938 414.49609375 c 257
 317.2421875 414.624023438 324.327148438 415.565429688 331.120117188 417.236328125 c 257
 331.120117188 416.389648438 l 257
 374.330078125 425.075195312 405.919921875 462.384765625 405.919921875 507.759765625 c 256
 405.919921875 553.904296875 374.330078125 591.3125 331.120117188 600.008789062 c 257
 331.120117188 599.16015625 l 257
 324.327148438 600.833984375 317.2421875 601.776367188 309.959960938 601.904296875 c 256
309.037109375 13.201171875 m 0
 308.771484375 13.201171875 308.505859375 13.2001953125 308.240234375 13.2001953125 c 0
 307.197265625 13.2001953125 306.15625 13.2060546875 305.116210938 13.220703125 c 0
 300.90234375 13.2607421875 296.8046875 13.380859375 292.518554688 13.7294921875 c 0
 174.077148438 21.744140625 81.2001953125 119.6484375 81.2001953125 239.359375 c 0
 81.2001953125 289.814453125 97.4677734375 336.307617188 125.0703125 373.905273438 c 1
 97.4677734375 411.375976562 81.2001953125 457.659179688 81.2001953125 507.759765625 c 0
 81.2001953125 628.3125 174.075195312 726.250976562 292.513671875 734.26953125 c 0
 296.801757812 734.619140625 300.901367188 734.73828125 305.116210938 734.779296875 c 0
 306.15625 734.793945312 307.197265625 734.799804688 308.240234375 734.799804688 c 0
 308.505859375 734.799804688 308.771484375 734.798828125 309.036132812 734.797851562 c 0
 309.934570312 734.799804688 310.840820312 734.799804688 311.759765625 734.799804688 c 0
 437.599609375 734.799804688 538.799804688 633.599609375 538.799804688 507.759765625 c 0
 538.799804688 457.659179688 522.532226562 411.375976562 494.9296875 373.905273438 c 1
 522.532226562 336.307617188 538.799804688 289.814453125 538.799804688 239.359375 c 0
 538.799804688 114.400390625 437.599609375 13.2001953125 311.759765625 13.2001953125 c 0
 310.840820312 13.2001953125 309.934570312 13.201171875 309.037109375 13.201171875 c 0
EndSplineSet
EndChar

StartChar: nine
Encoding: 57 57 24
Width: 729
VWidth: 0
Flags: HW
HStem: -5 161<159.125 372.237> 763 20G<303.991 308.522 311.849 312.592>
VStem: 50 167<444.984 572.018> 435 224<279.5 518.141>
LayerCount: 2
Fore
SplineSet
277 156 m 0
 391.330078125 156 485.3984375 241.09375 503.030273438 352.1875 c 1
 459.645507812 304.499023438 398.5390625 273.250976562 329.87109375 268.602539062 c 0
 324.993164062 268.272460938 320.33984375 268.069335938 315.548828125 268.0234375 c 0
 314.368164062 268.01171875 313.184570312 268 312 268 c 0
 311.698242188 268 311.396484375 268.000976562 311.094726562 268.001953125 c 0
 310.07421875 268 309.043945312 268 308 268 c 0
 184.958007812 268 82.64453125 353.140625 56.4833984375 468 c 0
 52.240234375 486.629882812 50 506.041992188 50 526 c 0
 50 553.145507812 54.2021484375 579.3046875 62 603.861328125 c 0
 81.4013671875 664.965820312 123.060546875 716.155273438 177.612304688 747.958984375 c 0
 209.801757812 770.307617188 243.026367188 782 277 782 c 0
 279.4140625 782 281.823242188 781.9765625 284.227539062 781.930664062 c 0
 292.053710938 782.638671875 299.982421875 783 308 783 c 0
 309.043945312 783 310.07421875 782.998046875 311.09375 782.998046875 c 0
 311.395507812 782.998046875 311.698242188 783 312 783 c 0
 313.184570312 783 314.368164062 782.9921875 315.548828125 782.9765625 c 0
 320.337890625 782.913085938 324.995117188 782.794921875 329.866210938 782.397460938 c 0
 383.396484375 778.024414062 432.366210938 758.0546875 471.920898438 727.015625 c 1
 583.94140625 658.424804688 659 532.4296875 659 388 c 0
 659 171 488 -5 277 -5 c 0
 252.034179688 -5 181.62890625 -2.5361328125 158 2.16796875 c 1
 158 168.09375 l 1
 180.903320312 160.250976562 251.4453125 156 277 156 c 0
326.044921875 401.017578125 m 0
 334.357421875 400.87109375 342.606445312 402.151367188 350 404 c 1
 350 403.171875 l 1
 399.1015625 413.0546875 435 455.5625 435 508 c 0
 435 543.456054688 418.026367188 574.579101562 391.458007812 593.771484375 c 0
 381.057617188 599.91796875 370.137695312 605.249023438 358.77734375 609.682617188 c 0
 355.903320312 610.514648438 352.975585938 611.232421875 350 611.830078125 c 1
 350 611 l 1
 342.606445312 612.848632812 334.357421875 613.842773438 326.044921875 613.982421875 c 0
 317.76953125 613.836914062 309.719726562 612.765625 302 610.868164062 c 1
 302 611.830078125 l 1
 252.8984375 601.9609375 217 559.563476562 217 508 c 0
 217 455.5625 252.8984375 413.0546875 302 403.171875 c 1
 302 404.135742188 l 1
 309.719726562 402.234375 317.76953125 401.163085938 326.044921875 401.017578125 c 0
EndSplineSet
EndChar

StartChar: colon
Encoding: 58 58 25
Width: 252
VWidth: 0
Flags: HW
HStem: 8 142<50 202> 408 142<50 202>
VStem: 50 152<8 150 408 550>
LayerCount: 2
Fore
SplineSet
50 408 m 261
 50 550 l 261
 202 550 l 261
 202 408 l 261
 50 408 l 261
50 8 m 257
 50 150 l 257
 202 150 l 257
 202 8 l 257
 50 8 l 257
EndSplineSet
EndChar

StartChar: semicolon
Encoding: 59 59 26
Width: 252
VWidth: 0
Flags: HW
HStem: 408 142<50 202>
VStem: 50 152<8 150 408 550>
LayerCount: 2
Fore
SplineSet
50 8 m 5
 50 150 l 5
 202 150 l 5
 202 8 l 5
 142 -124 l 5
 84 -120 l 5
 92.767578125 8 l 5
 50 8 l 5
50 408 m 257
 50 550 l 257
 202 550 l 257
 202 408 l 257
 50 408 l 257
EndSplineSet
EndChar

StartChar: less
Encoding: 60 60 27
Width: 644
VWidth: 0
Flags: HW
LayerCount: 2
Fore
SplineSet
594 556 m 5
 594 404 l 5
 379.895507812 347.71875 l 5
 594 306 l 5
 594 154 l 5
 50 260 l 5
 50 261 l 5
 50 412 l 5
 50 413 l 5
 594 556 l 5
EndSplineSet
EndChar

StartChar: equal
Encoding: 61 61 28
Width: 644
VWidth: 0
Flags: HW
HStem: 154 152<50 594> 404 152<50 594>
LayerCount: 2
Fore
SplineSet
594 306 m 261
 594 154 l 261
 50 154 l 261
 50 306 l 261
 594 306 l 261
594 556 m 257
 594 404 l 257
 50 404 l 257
 50 556 l 257
 594 556 l 257
EndSplineSet
EndChar

StartChar: greater
Encoding: 62 62 29
Width: 644
VWidth: 0
Flags: HW
LayerCount: 2
Fore
SplineSet
50 556 m 5
 594 413 l 5
 594 412 l 5
 594 261 l 5
 594 260 l 5
 50 154 l 5
 50 306 l 5
 264 348 l 5
 50 404 l 5
 50 556 l 5
EndSplineSet
EndChar

StartChar: question
Encoding: 63 63 30
Width: 384
VWidth: 0
Flags: HW
HStem: 8 142<50 202> 240 238<50 144.438> 688 151<50 140.529>
VStem: 50 152<8 150 240 369.991> 183 151<518.983 645.934>
LayerCount: 2
Fore
SplineSet
50 8 m 257xf0
 50 150 l 257
 202 150 l 257
 202 8 l 257
 50 8 l 257xf0
50 838 m 1
 59 839 67 839 76 839 c 0
 219 839 334 724 334 582 c 0xe8
 334 484.831054688 280.901367188 400.58984375 202 356.573242188 c 1
 202 240 l 1
 50 240 l 1
 50 325 l 1
 50 450 l 1
 50 478 l 1xf0
 58 476 67 475 76 475 c 0
 136 475 183 522 183 582 c 0xe8
 183 641 136 688 76 688 c 0
 67 688 58 687 50 685 c 1
 50 838 l 1
EndSplineSet
EndChar

StartChar: at
Encoding: 64 64 31
Width: 864
VWidth: 0
Flags: HW
HStem: 249 75<431.227 473> 431 71<431.227 485>
VStem: 343 76<335.505 419.715> 485 83.0107<325.318 431> 485 76<328.62 431>
LayerCount: 2
Fore
SplineSet
524 176 m 1025xe0
485 430 m 257xf0
 481 431 477 431 473 431 c 256
 443 431 419 408 419 378 c 256
 419 348 443 324 473 324 c 256
 477 324 481 325 485 326 c 257
 485 430 l 257xf0
561 246 m 1025xe8
487 238 m 1
 473 249 l 1
 401 249 343 306 343 378 c 0
 343 449 401 502 473 502 c 0
 477 502 481 502 485 502 c 2
 561 502 l 1xe8
 568.010742188 328.353515625 l 1xf0
 572.831054688 297.021484375 653.69921875 229.975585938 662 336 c 2
 661.986328125 337.467773438 657.7578125 350.56640625 658 352 c 0
 670 423 649 497 595 551 c 0
 505 641 359 638 268 547 c 0
 176 455 174 309 264 219 c 0
 334 149 438 135 524 176 c 0
 548 187 637 64 637 64 c 1
 485 -36 283 -22 153 108 c 0
 4 257 7 503 161 657 c 0
 314 810 560 814 709 665 c 0
 823 551 850 372 787 230 c 1
 679.654296875 167.57421875 584.088867188 209.5390625 487 238 c 1
EndSplineSet
EndChar

StartChar: A
Encoding: 65 65 32
Width: 752
VWidth: 0
Flags: HW
HStem: 237 140<297.449 406.827>
LayerCount: 2
Fore
SplineSet
550 10 m 257
 461 238.13671875 l 257
 461 237 l 257
 261.038085938 237 l 257
 202 10 l 257
 50 10 l 257
 266 779 l 261
 418 779 l 261
 702 10 l 257
 550 10 l 257
406.827148438 377 m 257
 357.200195312 545.223632812 l 261
 297.448242188 377 l 257
 406.827148438 377 l 257
EndSplineSet
EndChar

StartChar: B
Encoding: 66 66 33
Width: 512
VWidth: 0
Flags: HW
HStem: 14 129<202.375 290.409> 356 105<202.375 290.409> 674 116<202.375 290.409>
VStem: 50 152<143.026 355.974 461.026 673.974 789.664 790> 333 151<186.465 313.767 502.806 620.788>
LayerCount: 2
Fore
SplineSet
202 790 m 257
 202 789.6640625 l 257
 207.96484375 790 213.740234375 790 220 790 c 256
 363 790 478 675 478 532 c 256
 478 481.500976562 420 439 395 406 c 257
 424 371 484 324.768554688 484 270 c 256
 484 128 369 13 226 13 c 256
 218 13 210 13 202 14 c 257
 50 14 l 257
 50 790 l 257
 202 790 l 257
202 146 m 257
 210 144 218 143 226 143 c 256
 286 143 333 190 333 249 c 256
 333 309 286 356 226 356 c 256
 218 356 210 355 202 353 c 257
 202 146 l 257
202 464 m 257
 210 462 218 461 226 461 c 256
 286 461 333 508 333 567 c 256
 333 627 286 674 226 674 c 256
 218 674 210 673 202 671 c 257
 202 464 l 257
EndSplineSet
EndChar

StartChar: C
Encoding: 67 67 34
Width: 555
VWidth: 0
Flags: HW
HStem: -4 157<337.027 503.909> 622 161<337.027 503.909>
VStem: 50 153<291.299 486.2>
LayerCount: 2
Fore
SplineSet
432 622 m 260
 305 622 203 517 203 388 c 260
 203 258 305 153 432 153 c 260
 457.5546875 153 482.096679688 157.250976562 505 165.102539062 c 261
 505 3.169921875 l 261
 481.37109375 -1.5361328125 456.965820312 -4 432 -4 c 260
 221 -4 50 172 50 390 c 260
 50 607 221 783 432 783 c 260
 456.965820312 783 481.37109375 780.536132812 505 775.83203125 c 261
 505 609.90625 l 261
 482.096679688 617.749023438 457.5546875 622 432 622 c 260
EndSplineSet
EndChar

StartChar: D
Encoding: 68 68 35
Width: 630
VWidth: 0
Flags: HW
HStem: -3.9789 157.014<202 287.489> 621.965 161.035<202 293.477>
VStem: 50 152<-4 -3.9789 153.035 621.965> 427 153<292.064 485.736>
LayerCount: 2
Fore
SplineSet
50 778 m 257
 99.62109375 770.911132812 148.3828125 783 198 783 c 256
 409 783 580 607 580 390 c 256
 580 173.37890625 411.157226562 -1.771484375 202 -3.978515625 c 257
 202 -4 l 257
 50 -4 l 257
 50 778 l 257
202 153.03515625 m 257
 327.134765625 155.211914062 427 259.368164062 427 388 c 256
 427 515.642578125 327.134765625 619.788085938 202 621.96484375 c 257
 202 153.03515625 l 257
EndSplineSet
EndChar

StartChar: E
Encoding: 69 69 36
Width: 668
VWidth: 0
Flags: HW
HStem: 7 152<202 617> 343 152<202 509> 636 152<202 617>
VStem: 50 568<7 159 636 788> 50 152<159 343 495 636>
LayerCount: 2
Fore
SplineSet
509 495 m 257xe8
 510 343 l 257
 202 343 l 257
 202 159 l 257xe8
 617 159 l 257
 618 7 l 257
 51 7 l 257
 50.9931640625 8 l 257
 50 8 l 257
 50 784 l 257
 50.0263671875 784 l 257
 50 788 l 257
 617 788 l 257
 618 636 l 257xf0
 202 636 l 257
 202 495 l 257
 509 495 l 257xe8
EndSplineSet
EndChar

StartChar: F
Encoding: 70 70 37
Width: 668
VWidth: 0
Flags: HW
HStem: 8 21G<50 202> 343 152<202 509> 636 152<202 617>
VStem: 50 152<8 343 495 636>
LayerCount: 2
Fore
SplineSet
509 495 m 257
 510 343 l 257
 202 343 l 257
 202 8 l 257
 50 8 l 257
 50 784 l 257
 50.0263671875 784 l 257
 50 788 l 257
 617 788 l 257
 618 636 l 257
 202 636 l 257
 202 495 l 257
 509 495 l 257
EndSplineSet
EndChar

StartChar: G
Encoding: 71 71 38
Width: 651
VWidth: 0
Flags: HW
HStem: -4 157<337.532 449> 622 161<337.027 503.909>
VStem: 50 153<291.299 486.2> 449 152<-4 -3.6178 153 323>
LayerCount: 2
Fore
SplineSet
432 622 m 256
 305 622 203 517 203 388 c 256
 203 258 305 153 432 153 c 256
 437.719726562 153 443.388671875 153.212890625 449 153.631835938 c 257
 449 323 l 257
 601 323 l 257
 601 -4 l 257
 449 -4 l 257
 449 -3.6181640625 l 257
 443.364257812 -3.8720703125 437.696289062 -4 432 -4 c 256
 221 -4 50 172 50 390 c 256
 50 607 221 783 432 783 c 256
 456.965820312 783 481.37109375 780.536132812 505 775.83203125 c 257
 505 609.90625 l 257
 482.096679688 617.749023438 457.5546875 622 432 622 c 256
EndSplineSet
EndChar

StartChar: H
Encoding: 72 72 39
Width: 652
VWidth: 0
Flags: HW
HStem: 8 21G<50 202 450 602> 343 152<202 450> 764 20G<50 202 450 602>
VStem: 50 152<8 343 495 784> 450 152<8 343 495 784>
LayerCount: 2
Fore
SplineSet
450 784 m 257
 602 784 l 257
 602 8 l 257
 450 8 l 257
 450 343 l 257
 202 343 l 257
 202 8 l 257
 50 8 l 257
 50 784 l 257
 202 784 l 257
 202 495 l 257
 450 495 l 257
 450 784 l 257
EndSplineSet
EndChar

StartChar: I
Encoding: 73 73 40
Width: 252
VWidth: 0
Flags: HW
HStem: 8 21G<50 202> 764 20G<50 202>
VStem: 50 152<8 784>
LayerCount: 2
Fore
SplineSet
50 784 m 257
 202 784 l 257
 202 8 l 257
 50 8 l 257
 50 784 l 257
EndSplineSet
EndChar

StartChar: J
Encoding: 74 74 41
Width: 419
VWidth: 0
Flags: HW
HStem: 7 151<55.4451 185.159> 751 20G<202 369>
VStem: 202 164<178.881 771>
LayerCount: 2
Fore
SplineSet
50 16 m 257
 50 184 l 257
 69 168 94 158 121 158 c 256
 154 158 182 172 202 195 c 257
 202 771 l 257
 369 771 l 257
 366 194 l 257
 335 85 239 7 121 7 c 256
 96 7 73 10 50 16 c 257
EndSplineSet
EndChar

StartChar: K
Encoding: 75 75 42
Width: 703
VWidth: 0
Flags: HW
HStem: 8 20G<50 202 511 686.026> 764 20G<50 202>
VStem: 50 152<8 228.505 442.895 784>
LayerCount: 2
Fore
SplineSet
50 784 m 257
 202 784 l 257
 202 442.89453125 l 257
 447 780 l 257
 633 778 l 257
 372 397 l 257
 703 7 l 257
 511 8 l 257
 259.208007812 311.887695312 l 257
 202 228.504882812 l 257
 202 8 l 257
 50 8 l 257
 50 784 l 257
EndSplineSet
EndChar

StartChar: L
Encoding: 76 76 43
Width: 718
VWidth: 0
Flags: HW
HStem: 7 152<202 667> 764 20G<50 202>
VStem: 50 152<159 784>
LayerCount: 2
Fore
SplineSet
50 784 m 261
 202 784 l 261
 202 159 l 261
 667 159 l 261
 668 7 l 261
 51 7 l 261
 50.9931640625 8 l 261
 50 8 l 261
 50 784 l 261
EndSplineSet
EndChar

StartChar: M
Encoding: 77 77 44
Width: 1052
VWidth: 0
Flags: HW
HStem: 8 21G<50 202 850 1002>
VStem: 50 152<8 486.16> 850 152<8 486.16>
LayerCount: 2
Fore
SplineSet
50 778 m 257
 202 778 l 257
 526 155.919921875 l 257
 850 778 l 257
 1002 778 l 257
 1002 8 l 257
 850 8 l 257
 850 486.16015625 l 257
 602 10 l 257
 450 10 l 257
 202 486.16015625 l 257
 202 8 l 257
 50 8 l 257
 50 778 l 257
EndSplineSet
EndChar

StartChar: N
Encoding: 78 78 45
Width: 852
VWidth: 0
Flags: HW
HStem: 8 21G<50 202 632.937 802> 764 20G<50 219.116 650 802>
VStem: 50 152<8 533.101> 650 152<260.522 784>
LayerCount: 2
Fore
SplineSet
50 784 m 257
 202 784 l 257
 650 260.521484375 l 257
 650 784 l 257
 802 784 l 257
 802 8 l 257
 650 8 l 257
 202 533.1015625 l 257
 202 8 l 257
 50 8 l 257
 50 784 l 257
EndSplineSet
EndChar

StartChar: O
Encoding: 79 79 46
Width: 864
VWidth: 0
Flags: HW
HStem: -4 157<337.027 526.973> 622 161<337.027 526.973>
VStem: 50 153<288.712 488.774> 661 153<288.712 488.774>
LayerCount: 2
Fore
SplineSet
814 390 m 260
 814 172 643 -4 432 -4 c 260
 221 -4 50 172 50 390 c 260
 50 607 221 783 432 783 c 260
 643 783 814 607 814 390 c 260
661 388 m 260
 661 517 559 622 432 622 c 260
 305 622 203 517 203 388 c 260
 203 258 305 153 432 153 c 260
 559 153 661 258 661 388 c 260
EndSplineSet
EndChar

StartChar: P
Encoding: 80 80 47
Width: 534
VWidth: 0
Flags: HW
HStem: 275 151<202 290.529> 639 150<202.375 290.409>
VStem: 50 152<13 276 426.026 638.974> 333 151<468.471 596.934>
LayerCount: 2
Fore
SplineSet
202 13 m 257
 50 13 l 257
 50 789 l 257
 202 789 l 257
 210 790 218 790 226 790 c 256
 369 790 484 675 484 533 c 256
 484 390 369 275 226 275 c 256
 218 275 210 275 202 276 c 257
 202 13 l 257
202 636 m 257
 202 429 l 257
 210 427 218 426 226 426 c 256
 286 426 333 473 333 533 c 256
 333 592 286 639 226 639 c 256
 218 639 210 638 202 636 c 257
EndSplineSet
EndChar

StartChar: Q
Encoding: 81 81 48
Width: 864
VWidth: 0
Flags: HW
HStem: -4 157<337.027 513.045> 622 161<337.027 526.973>
VStem: 50 153<291.299 486.2> 661 153<290.102 486.2>
LayerCount: 2
Fore
SplineSet
661 388 m 256
 661 517 559 622 432 622 c 256
 305 622 203 517 203 388 c 256
 203 258 305 153 432 153 c 256
 559 153 661 258 661 388 c 256
814 390 m 256
 814 272.352539062 764.198242188 166.9375 685.18359375 94.81640625 c 257
 822 -42 l 257
 684 -181 l 257
 500.666015625 2.333984375 l 257
 478.390625 -1.8271484375 455.442382812 -4 432 -4 c 256
 221 -4 50 172 50 390 c 256
 50 607 221 783 432 783 c 256
 643 783 814 607 814 390 c 256
EndSplineSet
EndChar

StartChar: R
Encoding: 82 82 49
Width: 512
VWidth: 0
Flags: HW
HStem: 7 21G<359.703 512> 639 150<202.375 290.409>
VStem: 50 152<13 276 426.026 638.974> 333 151<470.25 596.934>
LayerCount: 2
Fore
SplineSet
202 636 m 257
 202 429 l 257
 210 427 218 426 226 426 c 256
 286 426 333 473 333 533 c 256
 333 592 286 639 226 639 c 256
 218 639 210 638 202 636 c 257
202 13 m 257
 50 13 l 257
 50 789 l 257
 202 789 l 257
 210 790 218 790 226 790 c 256
 369 790 484 675 484 533 c 256
 484 420.658203125 413.024414062 325.596679688 313.254882812 290 c 257
 512 7 l 257
 372 7 l 257
 206.913085938 275.502929688 l 257
 205.275390625 275.6328125 203.637695312 275.794921875 202 276 c 257
 202 13 l 257
EndSplineSet
EndChar

StartChar: S
Encoding: 83 83 50
Width: 512
VWidth: 0
Flags: HW
LayerCount: 2
Fore
SplineSet
55 67 m 257
 130 192 l 257
 136 187 142 182 152 177 c 256
 203 147 267 164 297 212 c 256
 329 268 279 316 227 325 c 257
 101 393 17 508 101 649 c 256
 171 765 328 804 453 737 c 256
 459 731 467 728 474 722 c 257
 399 597 l 257
 393 602 387 607 377 612 c 256
 326 640 262 624 232 575 c 256
 199 520 232 439 296 428 c 257
 413 365 512 280 427 140 c 256
 358 23 201 -16 76 52 c 256
 70 58 62 61 55 67 c 257
EndSplineSet
EndChar

StartChar: T
Encoding: 84 84 51
Width: 676
VWidth: 0
Flags: HW
HStem: 8 21G<265 417> 624 152<53 265 417 629>
VStem: 265 152<8 624>
LayerCount: 2
Fore
SplineSet
53 624 m 1
 53 776 l 5
 629 776 l 5
 629 624 l 1
 417 624 l 1
 417 8 l 1
 265 8 l 1
 265 624 l 1
 53 624 l 1
EndSplineSet
EndChar

StartChar: U
Encoding: 85 85 52
Width: 669
VWidth: 0
Flags: HW
HStem: 751 20G<50 217 452 619>
VStem: 53 164<182.77 771> 452 164<182.95 771>
LayerCount: 2
Fore
SplineSet
616 194 m 257
 547.931640625 -45.4130859375 122.236328125 -49.4453125 53 194 c 257
 50 771 l 257
 217 771 l 257
 217 195 l 257
 255.237304688 151.02734375 414.430664062 149.916992188 452 195 c 257
 452 771 l 257
 619 771 l 257
 616 194 l 257
EndSplineSet
EndChar

StartChar: V
Encoding: 86 86 53
Width: 652
VWidth: 0
Flags: HW
LayerCount: 2
Fore
SplineSet
50 779 m 257
 202 779 l 257
 326 302.219726562 l 257
 450 779 l 257
 602 779 l 257
 402 10 l 257
 250 10 l 257
 50 779 l 257
EndSplineSet
EndChar

StartChar: W
Encoding: 87 87 54
Width: 1000
VWidth: 0
Flags: HW
LayerCount: 2
Fore
SplineSet
50 779 m 1
 202 779 l 1
 326 302.219726562 l 1
 450 779 l 1
 451 779 l 1
 602 779 l 1
 603 779 l 1
 727 302 l 1
 851 779 l 1
 1003 779 l 1
 803 10 l 1
 651 10 l 1
 526.5 488.702148438 l 1
 402 10 l 1
 250 10 l 1
 50 779 l 1
EndSplineSet
EndChar

StartChar: X
Encoding: 88 88 55
Width: 724
VWidth: 0
Flags: HW
HStem: 9 20G<62.6104 229 487.368 674>
LayerCount: 2
Fore
SplineSet
50 780 m 257
 236 778 l 257
 365.55078125 550.842773438 l 257
 498 779 l 257
 673 778 l 257
 452.728515625 397.982421875 l 257
 674 10 l 257
 499 8 l 257
 362.609375 242.506835938 l 257
 229 12 l 257
 51 9 l 257
 274.5 394 l 257
 50 780 l 257
EndSplineSet
EndChar

StartChar: Y
Encoding: 89 89 56
Width: 512
VWidth: 0
Flags: HW
VStem: 193 152<11 460>
LayerCount: 2
Fore
SplineSet
193 461 m 257
 193.365234375 461 l 257
 -6 775 l 257
 146 775 l 257
 270 604 l 257
 394 775 l 257
 546 775 l 257
 346 460 l 257
 345 460 l 257
 345 11 l 257
 193 11 l 257
 193 461 l 257
EndSplineSet
EndChar

StartChar: Z
Encoding: 90 90 57
Width: 783
VWidth: 0
Flags: HW
HStem: 20 152<301 733> 620 152<50 480>
LayerCount: 2
Fore
SplineSet
50 20 m 257
 50 172 l 257
 480 620 l 261
 50 620 l 257
 50 772 l 257
 733 772 l 261
 733 620 l 261
 301 172 l 257
 733 172 l 261
 733 20 l 261
 50 20 l 257
EndSplineSet
EndChar

StartChar: bracketleft
Encoding: 91 91 58
Width: 362
VWidth: 0
Flags: HW
HStem: -70 85<144 311> 699 85<144 311>
VStem: 50 262<-70 15 699 784> 50 94<15 699>
LayerCount: 2
Fore
SplineSet
51 -70 m 6xe0
 50 -70 l 5
 50 -69 l 5
 50 783 l 1
 50 784 l 1
 51 784 l 2
 312 784 l 1xe0
 311 699 l 1
 144 699 l 1
 144 15 l 5xd0
 311 15 l 5
 312 -70 l 5
 51 -70 l 6xe0
EndSplineSet
EndChar

StartChar: backslash
Encoding: 92 92 59
Width: 691
VWidth: 0
Flags: HW
LayerCount: 2
Fore
SplineSet
156 828 m 257
 641 -12 l 257
 535 -73 l 257
 50 767 l 257
 156 828 l 257
EndSplineSet
EndChar

StartChar: bracketright
Encoding: 93 93 60
Width: 362
VWidth: 0
Flags: HW
HStem: -71 85<51 218> 699 85<51 218>
VStem: 50 262<-71 14 699 784> 218 94<14 699>
LayerCount: 2
Fore
SplineSet
311 -71 m 2xe0
 50 -71 l 1xe0
 51 14 l 1
 218 14 l 1
 218 699 l 1xd0
 51 699 l 1
 50 784 l 1
 311 784 l 2
 312 784 l 1
 312 783 l 1
 312 -70 l 1
 312 -71 l 1
 311 -71 l 2xe0
EndSplineSet
EndChar

StartChar: asciicircum
Encoding: 94 94 61
Width: 644
VWidth: 0
Flags: HW
LayerCount: 2
Fore
SplineSet
121 293 m 1
 264 627 l 1
 265 627 l 1
 416 627 l 1
 417 627 l 1
 523 293 l 1
 371 293 l 1
 329 507 l 1
 273 293 l 1
 121 293 l 1
EndSplineSet
EndChar

StartChar: underscore
Encoding: 95 95 62
Width: 544
VWidth: 0
Flags: HW
HStem: 54 152<0 544>
LayerCount: 2
Fore
SplineSet
544 206 m 261
 544 54 l 261
 0 54 l 261
 0 206 l 261
 544 206 l 261
EndSplineSet
EndChar

StartChar: grave
Encoding: 96 96 63
Width: 252
VWidth: 0
Flags: HW
HStem: 526 289
VStem: -19 290
LayerCount: 2
Fore
SplineSet
163 526 m 261
 -19 708 l 261
 89 815 l 261
 271 633 l 261
 163 526 l 261
EndSplineSet
EndChar

StartChar: a
Encoding: 97 97 64
Width: 512
VWidth: 0
Flags: HW
HStem: 18 151<243.471 332> 382 143<243.351 331.625>
VStem: 50 151<211.471 339.671> 332 152<11 19 169.012 381.988>
LayerCount: 2
Fore
SplineSet
332 11 m 257
 332 19 l 257
 324 18 316 18 308 18 c 256
 165 18 50 133 50 276 c 256
 50 418 165 525 308 525 c 256
 316 525 324 525 332 524 c 257
 484 524 l 257
 484 11 l 257
 332 11 l 257
332 379 m 257
 324 381 316 382 308 382 c 256
 248 382 201 335 201 276 c 256
 201 216 248 169 308 169 c 256
 316 169 324 170 332 172 c 257
 332 379 l 257
EndSplineSet
EndChar

StartChar: b
Encoding: 98 98 65
Width: 512
VWidth: 0
Flags: HW
HStem: 14 150<202.375 290.649> 377 151<202 290.529>
VStem: 50 152<164.012 376.988 527 790> 333 151<206.066 334.529>
LayerCount: 2
Fore
SplineSet
202 790 m 257
 202 527 l 257
 210 528 218 528 226 528 c 256
 369 528 484 413 484 270 c 256
 484 128 369 13 226 13 c 256
 218 13 210 13 202 14 c 257
 50 14 l 257
 50 790 l 257
 202 790 l 257
202 167 m 257
 210 165 218 164 226 164 c 256
 286 164 333 211 333 270 c 256
 333 330 286 377 226 377 c 256
 218 377 210 376 202 374 c 257
 202 167 l 257
EndSplineSet
EndChar

StartChar: c
Encoding: 99 99 66
Width: 384
VWidth: 0
Flags: HW
HStem: 13 151<243.471 334> 377 151<243.471 334>
VStem: 50 151<206.066 334.529>
LayerCount: 2
Fore
SplineSet
334 14.2958984375 m 261
 325.446289062 13.4384765625 316.7734375 13 308 13 c 260
 165 13 50 128 50 270 c 260
 50 413 165 528 308 528 c 260
 316.7734375 528 325.446289062 527.560546875 334 526.704101562 c 261
 334 373.864257812 l 261
 325.673828125 375.915039062 316.963867188 377 308 377 c 260
 248 377 201 330 201 270 c 260
 201 211 248 164 308 164 c 260
 316.963867188 164 325.673828125 165.084960938 334 167.131835938 c 261
 334 14.2958984375 l 261
EndSplineSet
EndChar

StartChar: d
Encoding: 100 100 67
Width: 512
VWidth: 0
Flags: HW
HStem: 13 151<242.454 332> 377 151<243.471 332>
VStem: 50 151<206.066 334.529> 332 152<14 14.1035 164.011 376.989 526.896 790>
LayerCount: 2
Fore
SplineSet
332 790 m 257
 484 790 l 257
 484 14 l 257
 332 14 l 257
 332 14.103515625 l 257
 324.095703125 13.373046875 316.08984375 13 308 13 c 256
 165 13 50 128 50 270 c 256
 50 413 165 528 308 528 c 256
 316.08984375 528 324.095703125 527.626953125 332 526.896484375 c 257
 332 790 l 257
332 166.66015625 m 257
 332 374.336914062 l 257
 324.282226562 376.081054688 316.249023438 377 308 377 c 256
 248 377 201 330 201 270 c 256
 201 211 248 164 308 164 c 256
 316.249023438 164 324.282226562 164.918945312 332 166.66015625 c 257
EndSplineSet
EndChar

StartChar: e
Encoding: 101 101 68
Width: 617
VWidth: 0
Flags: HW
HStem: 13 151<243.073 556.239> 215.32 128.941<230.301 387.264> 377 151<242.682 372.767>
VStem: 50 517<218.188 340.811>
LayerCount: 2
Fore
SplineSet
566 270 m 256
 566 251.328125 567 233 567 218 c 257
 215.985351562 215.3203125 l 257
 234.489257812 184.45703125 268.416015625 164 308 164 c 256
 322.516601562 164 544 167 557 172 c 257
 557 16 l 257
 544 14 321.946289062 13 308 13 c 256
 165 13 50 128 50 270 c 256
 50 413 165 528 308 528 c 256
 450 528 566 413 566 270 c 256
210.680664062 306.67578125 m 261
 406.883789062 304.1015625 l 261
 382.395507812 330.966796875 347.046875 385.099609375 307.8046875 385.099609375 c 260
 269.188476562 385.099609375 234.879882812 332.025390625 210.680664062 306.67578125 c 261
EndSplineSet
EndChar

StartChar: f
Encoding: 102 102 69
Width: 512
VWidth: 0
Flags: HW
HStem: 7 21G<145 312> 369 152<50 146.882 312 409> 620 151<328.841 458.555>
VStem: 145 167<7 369 521 599.119>
LayerCount: 2
Fore
SplineSet
464 762 m 1
 464 594 l 1
 445 610 420 620 393 620 c 0
 360 620 332 606 312 583 c 1
 312 521 l 1
 409 521 l 1
 409 369 l 1
 312 369 l 1
 312 7 l 1
 145 7 l 1
 146.881835938 369 l 1
 50 369 l 1
 50 521 l 1
 147.672851562 521 l 1
 148 584 l 1
 179 693 275 771 393 771 c 0
 418 771 441 768 464 762 c 1
EndSplineSet
EndChar

StartChar: g
Encoding: 103 103 70
Width: 620
VWidth: 0
Flags: HW
HStem: -195 151<129.297 399.488> 508 20G<307.408 308.151 311.478 383.333>
VStem: 50 151<207.15 333.449> 419 151<-23.1189 35.9655 205.937 334.857>
LayerCount: 2
Fore
SplineSet
309.955078125 376.982421875 m 256
 301.641601562 376.842773438 293.393554688 375.848632812 286 374 c 257
 286 374.828125 l 257
 236.8984375 364.9453125 201 322.4375 201 270 c 256
 201 218.436523438 236.8984375 176.0390625 286 166.169921875 c 257
 286 167 l 257
 293.393554688 165.151367188 301.641601562 164.157226562 309.955078125 164.017578125 c 257
 318.23046875 164.163085938 326.280273438 165.234375 334 167.131835938 c 257
 334 166.169921875 l 257
 383.1015625 176.0390625 419 218.436523438 419 270 c 256
 419 322.4375 383.1015625 364.9453125 334 374.828125 c 257
 334 373.864257812 l 257
 326.280273438 375.765625 318.23046875 376.836914062 309.955078125 376.982421875 c 256
308.90625 13.001953125 m 256
 308.603515625 13.0009765625 308.301757812 13 308 13 c 256
 306.815429688 13 305.631835938 13.0078125 304.451171875 13.0234375 c 256
 303.723632812 13.0302734375 302.28515625 13.03515625 300.349609375 13.041015625 c 256
 289.5390625 13.0732421875 263.241210938 13.1513671875 259 14 c 257
 125 23 50 133.96484375 50 270 c 256
 50 406.991210938 155.5390625 518.286132812 290.12890625 527.397460938 c 256
 295.001953125 527.794921875 299.66015625 527.930664062 304.451171875 527.9765625 c 256
 305.631835938 527.9921875 306.815429688 528 308 528 c 256
 308.301757812 528 308.603515625 527.999023438 308.905273438 527.998046875 c 257
 309.92578125 528 310.956054688 528 312 528 c 256
 454.666015625 528 569.463867188 413.536132812 569.998046875 271 c 257
 570 271 l 257
 569.999023438 270.868164062 l 258
 570 270.579101562 570 270.290039062 570 270 c 256
 570 267.823242188 569.97265625 265.65234375 569.918945312 263.48828125 c 258
 567 -8 l 257
 536 -117 443 -195 325 -195 c 256
 300 -195 143 -192 120 -186 c 257
 120 -18 l 257
 139 -34 298 -44 325 -44 c 256
 358 -44 399 -30 419 -7 c 257
 419 35.9658203125 l 257
 386.44140625 21.21484375 350.220703125 13 312 13 c 256
 310.956054688 13 309.92578125 13 308.90625 13.001953125 c 256
EndSplineSet
EndChar

StartChar: h
Encoding: 104 104 71
Width: 597
VWidth: 0
Flags: HW
HStem: 383 151<233.435 363.159>
VStem: 50 169<16 365.866 522 778> 380 167<16 362.119>
LayerCount: 2
Fore
SplineSet
50 778 m 257
 219 778 l 257
 219 522 l 257
 245 530 271 534 299 534 c 256
 417 534 513 456 544 347 c 257
 547 16 l 257
 380 16 l 257
 380 346 l 257
 360 369 332 383 299 383 c 256
 267 383 239 370 219 348 c 257
 219 16 l 257
 50 16 l 257
 50 778 l 257
EndSplineSet
EndChar

StartChar: i
Encoding: 105 105 72
Width: 252
VWidth: 0
Flags: HW
HStem: 8 21G<50 202> 502 20G<50 202> 640 142<50 202>
VStem: 50 152<8 522 640 782>
LayerCount: 2
Fore
SplineSet
50 522 m 257
 202 522 l 257
 202 8 l 257
 50 8 l 257
 50 522 l 257
50 782 m 257
 202 782 l 257
 202 640 l 257
 50 640 l 257
 50 782 l 257
EndSplineSet
EndChar

StartChar: j
Encoding: 106 106 73
Width: 419
VWidth: 0
Flags: HW
HStem: -194 151<55.4451 185.159> 507 20G<202 369> 640 142<214 366>
VStem: 202 164<-22.1189 527> 214 152<640 782>
LayerCount: 2
Fore
SplineSet
50 -185 m 257xf0
 50 -17 l 257
 69 -33 94 -43 121 -43 c 256
 154 -43 182 -29 202 -6 c 257
 202 527 l 257
 369 527 l 257
 366 -7 l 257
 335 -116 239 -194 121 -194 c 256
 96 -194 73 -191 50 -185 c 257xf0
214 782 m 257xe8
 366 782 l 257
 366 640 l 257
 214 640 l 257
 214 782 l 257xe8
EndSplineSet
EndChar

StartChar: k
Encoding: 107 107 74
Width: 753
VWidth: 0
Flags: HW
HStem: 8 20G<61 202 463 630.185> 764 20G<61 202>
VStem: 61 141<8 164 327 784>
LayerCount: 2
Fore
SplineSet
61 762 m 257
 202 762 l 257
 202 327 l 257
 447 524 l 261
 640 522 l 261
 379 294 l 257
 649 7 l 257
 463 8 l 257
 259 236 l 257
 202 164 l 257
 202 8 l 257
 61 8 l 257
 61 762 l 257
EndSplineSet
EndChar

StartChar: l
Encoding: 108 108 75
Width: 419
VWidth: 0
Flags: HW
HStem: 7 151<233.008 363.885> 751 20G<50 217>
VStem: 53 164<176.215 771>
LayerCount: 2
Fore
SplineSet
369 16 m 257
 346.333007812 10 322.666992188 7 298 7 c 0
 240 7 188.666992188 24.3330078125 144 59 c 0
 99.3330078125 93.6669921875 69 138.666992188 53 194 c 257
 50 771 l 257
 217 771 l 257
 217 195 l 1
 238.333007812 170.333007812 265.333007812 158 298 158 c 0
 324.666992188 158 348.333007812 166.666992188 369 184 c 257
 369 16 l 257
EndSplineSet
EndChar

StartChar: m
Encoding: 109 109 76
Width: 924
VWidth: 0
Flags: HW
HStem: 383 151<232.824 364.747 559.824 690.715>
VStem: 50 169<16 366.608 522 532> 380 166<16 365.109> 707 167<16 362.119>
LayerCount: 2
Fore
SplineSet
50 532 m 1
 219 532 l 1
 219 522 l 1
 245 530 271 534 299 534 c 0
 360.004882812 534 415.129882812 513.15234375 458.432617188 477.951171875 c 1
 546 522 l 1
 572 530 598 534 626 534 c 0
 744 534 840 456 871 347 c 1
 874 16 l 1
 707 16 l 1
 707 346 l 1
 687 369 659 383 626 383 c 0
 594 383 566 370 546 348 c 1
 546 126.333007812 l 1
 547 16 l 1
 546 16 l 1
 380 16 l 1
 377 16 l 1
 380 333.25 l 1
 380 346 l 1
 360 369 332 383 299 383 c 0
 267 383 239 370 219 348 c 1
 219 16 l 1
 50 16 l 1
 50 532 l 1
EndSplineSet
EndChar

StartChar: n
Encoding: 110 110 77
Width: 597
VWidth: 0
Flags: HW
HStem: 383 151<232.824 363.715>
VStem: 50 169<16 366.608 522 532> 380 167<16 362.119>
LayerCount: 2
Fore
SplineSet
50 532 m 257
 219 532 l 257
 219 522 l 257
 245 530 271 534 299 534 c 256
 417 534 513 456 544 347 c 257
 547 16 l 257
 380 16 l 257
 380 346 l 257
 360 369 332 383 299 383 c 256
 267 383 239 370 219 348 c 257
 219 16 l 257
 50 16 l 257
 50 532 l 257
EndSplineSet
EndChar

StartChar: o
Encoding: 111 111 78
Width: 616
VWidth: 0
Flags: HW
HStem: 13 21G<307.408 308.151 311.478 383.5> 508 20G<307.408 308.151 311.478 383.5>
VStem: 50 151<207.14 333.449> 419 151<205.844 334.753>
LayerCount: 2
Fore
SplineSet
308.90625 13.001953125 m 256
 308.603515625 13.0009765625 308.301757812 13 308 13 c 256
 306.815429688 13 305.631835938 13.0078125 304.451171875 13.0234375 c 256
 299.662109375 13.0693359375 295.004882812 13.205078125 290.133789062 13.6025390625 c 256
 155.541992188 22.708984375 50 133.96484375 50 270 c 256
 50 406.991210938 155.5390625 518.286132812 290.12890625 527.397460938 c 256
 295.001953125 527.794921875 299.66015625 527.930664062 304.451171875 527.9765625 c 256
 305.631835938 527.9921875 306.815429688 528 308 528 c 256
 308.301757812 528 308.603515625 527.999023438 308.905273438 527.998046875 c 257
 309.92578125 528 310.956054688 528 312 528 c 256
 455 528 570 413 570 270 c 256
 570 128 455 13 312 13 c 256
 310.956054688 13 309.92578125 13 308.90625 13.001953125 c 256
309.955078125 376.982421875 m 260
 301.641601562 376.842773438 293.393554688 375.848632812 286 374 c 261
 286 374.828125 l 261
 236.8984375 364.9453125 201 322.4375 201 270 c 260
 201 218.436523438 236.8984375 176.0390625 286 166.169921875 c 261
 286 167 l 261
 293.393554688 165.151367188 301.641601562 164.157226562 309.955078125 164.017578125 c 261
 318.23046875 164.163085938 326.280273438 165.234375 334 167.131835938 c 261
 334 166.169921875 l 261
 383.1015625 176.0390625 419 218.436523438 419 270 c 260
 419 322.4375 383.1015625 364.9453125 334 374.828125 c 261
 334 373.864257812 l 261
 326.280273438 375.765625 318.23046875 376.836914062 309.955078125 376.982421875 c 260
EndSplineSet
EndChar

StartChar: p
Encoding: 112 112 79
Width: 512
VWidth: 0
Flags: HW
HStem: -192 21G<50 202> 5 151<202 290.529> 369 150<202.375 290.409>
VStem: 50 152<-192 6 156.026 368.974> 333 151<198.471 326.934>
LayerCount: 2
Fore
SplineSet
202 -192 m 257
 50 -192 l 257
 50 519 l 257
 202 519 l 257
 210 520 218 520 226 520 c 256
 369 520 484 405 484 263 c 256
 484 120 369 5 226 5 c 256
 218 5 210 5 202 6 c 257
 202 -192 l 257
202 366 m 257
 202 159 l 257
 210 157 218 156 226 156 c 256
 286 156 333 203 333 263 c 256
 333 322 286 369 226 369 c 256
 218 369 210 368 202 366 c 257
EndSplineSet
EndChar

StartChar: q
Encoding: 113 113 80
Width: 512
VWidth: 0
Flags: HW
HStem: -192 21G<332 484> 5 151<243.471 332> 369 151<243.591 331.625>
VStem: 50 151<198.471 326.934> 332 152<-192 6 156.026 368.974>
LayerCount: 2
Fore
SplineSet
332 -192 m 257
 332 6 l 257
 324 5 316 5 308 5 c 256
 165 5 50 120 50 263 c 256
 50 405 165 520 308 520 c 256
 316 520 324 520 332 519 c 257
 484 519 l 257
 484 -192 l 257
 332 -192 l 257
332 366 m 257
 324 368 316 369 308 369 c 256
 248 369 201 322 201 263 c 256
 201 203 248 156 308 156 c 256
 316 156 324 157 332 159 c 257
 332 366 l 257
EndSplineSet
EndChar

StartChar: r
Encoding: 114 114 81
Width: 587
VWidth: 0
Flags: HW
HStem: 383 151<232.824 364.013>
VStem: 50 169<16 366.608 522 532>
LayerCount: 2
Fore
SplineSet
50 532 m 257
 219 532 l 257
 219 522 l 257
 245 530 271 534 299 534 c 256
 409.2734375 534 500 453 537 355 c 257
 372 355 l 257
 372 354.31640625 l 257
 352.80859375 372.330078125 327.809570312 383 299 383 c 256
 267 383 239 370 219 348 c 257
 219 16 l 257
 50 16 l 257
 50 532 l 257
EndSplineSet
EndChar

StartChar: s
Encoding: 115 115 82
Width: 508
VWidth: 0
Flags: HW
LayerCount: 2
Fore
SplineSet
68.615234375 57 m 257
 135.615234375 169 l 257
 141.615234375 163 148.615234375 160 157.615234375 157 c 256
 210.615234375 133 254.615234375 141 280.615234375 172 c 256
 309.615234375 206 258.615234375 212 204.615234375 221 c 257
 76.615234375 272 5.615234375 355 80.615234375 444 c 256
 143.615234375 520 296.615234375 537 423.615234375 483 c 256
 430.615234375 480 438.615234375 478 445.615234375 472 c 257
 378.615234375 342 l 257
 372.615234375 346 365.615234375 351 356.615234375 354 c 256
 303.615234375 376 281.615234375 369 255.615234375 338 c 256
 225.615234375 303 222.615234375 296 286.615234375 285 c 257
 405.615234375 235 508.615234375 174 432.615234375 85 c 256
 370.615234375 9 217.615234375 -11 90.615234375 44 c 256
 83.615234375 46 76.615234375 51 68.615234375 57 c 257
EndSplineSet
EndChar

StartChar: t
Encoding: 116 116 83
Width: 514
VWidth: 0
Flags: HW
HStem: 7 151<328.285 459.024> 374 152<50 146.274 312 409> 751 20G<145 312>
VStem: 146.274 165.726<178.881 374 526 771>
LayerCount: 2
Fore
SplineSet
464 16 m 257
 441 10 418 7 393 7 c 256
 275 7 179 85 148 194 c 257
 147.064453125 374 l 257
 50 374 l 257
 50 526 l 257
 146.2734375 526 l 257
 145 771 l 257
 312 771 l 257
 312 526 l 257
 409 526 l 257
 409 374 l 257
 312 374 l 257
 312 195 l 257
 332 172 360 158 393 158 c 256
 420 158 445 168 464 184 c 257
 464 16 l 257
EndSplineSet
EndChar

StartChar: u
Encoding: 117 117 84
Width: 598
VWidth: 0
Flags: HW
HStem: 16 151<234.841 364.565> 514 20G<51 218 379 548>
VStem: 54 164<187.881 534> 379 169<18 28 184.134 534>
LayerCount: 2
Fore
SplineSet
548 12 m 261
 379 12 l 261
 379 22 l 261
 353 14 327 10 299 10 c 260
 181 10 85 88 54 197 c 261
 51 528 l 261
 218 528 l 261
 218 198 l 261
 238 175 266 161 299 161 c 260
 331 161 359 174 379 196 c 261
 379 528 l 261
 548 528 l 261
 548 12 l 261
EndSplineSet
EndChar

StartChar: v
Encoding: 118 118 85
Width: 652
VWidth: 0
Flags: HW
HStem: 501 20G<50 208.757 443.243 602>
LayerCount: 2
Fore
SplineSet
50 521 m 257
 202 521 l 257
 326 154 l 257
 450 521 l 257
 602 521 l 257
 402 10 l 257
 250 10 l 257
 50 521 l 257
EndSplineSet
EndChar

StartChar: w
Encoding: 119 119 86
Width: 1044
VWidth: 0
Flags: HW
HStem: 501 20G<50 204.757 439.243 604.54 835.243 994>
LayerCount: 2
Fore
SplineSet
446 521 m 257
 598 521 l 257
 718 154 l 257
 842 521 l 257
 994 521 l 257
 794 10 l 257
 646 10 l 257
 522 326.8203125 l 257
 398 10 l 257
 250 10 l 257
 50 521 l 257
 198 521 l 257
 322 154 l 257
 446 521 l 257
EndSplineSet
EndChar

StartChar: x
Encoding: 120 120 87
Width: 724
VWidth: 0
Flags: HW
HStem: 9 20G<68.4269 229 481.563 674> 503 20G<67.4369 236 480.573 673>
LayerCount: 2
Fore
SplineSet
50 523 m 257
 236 521 l 257
 365.491210938 369.926757812 l 257
 498 522 l 257
 673 521 l 257
 452.584960938 268.317382812 l 257
 674 10 l 257
 499 8 l 257
 362.291015625 164.8046875 l 257
 229 12 l 257
 51 9 l 257
 274.5 265.5 l 257
 50 523 l 257
EndSplineSet
EndChar

StartChar: y
Encoding: 121 121 88
Width: 652
VWidth: 0
Flags: HW
HStem: 501 20G<50 227.757 450 627.185>
LayerCount: 2
Fore
SplineSet
50 521 m 257
 221 521 l 257
 345 154 l 257
 450 521 l 257
 635 524 l 257
 356 -190 l 257
 208 -194 l 257
 277.328125 10 l 257
 277 10 l 257
 50 521 l 257
EndSplineSet
EndChar

StartChar: z
Encoding: 122 122 89
Width: 512
VWidth: 0
Flags: HW
HStem: 20 152<301 503> 376 152<50 293>
LayerCount: 2
Fore
SplineSet
50 20 m 257
 50 172 l 257
 293 376 l 257
 50 376 l 257
 50 528 l 257
 503 528 l 257
 503 376 l 257
 301 172 l 257
 503 172 l 257
 503 20 l 257
 50 20 l 257
EndSplineSet
EndChar

StartChar: braceleft
Encoding: 123 123 90
Width: 419
VWidth: 0
Flags: HW
HStem: -82 121<378.218 450.506> 694 121<378.745 450.506>
VStem: 289 84<44.1962 238 495 684.933>
LayerCount: 2
Fore
SplineSet
451 -75 m 1
 440 -80 427 -82 414 -82 c 0
 354 -82 305 -19 289 68 c 1
 288 238 l 1
 179 368 l 1
 288 495 l 1
 289 665 l 1
 305 752 354 815 414 815 c 0
 427 815 440 813 451 808 c 1
 451 673 l 1
 441 686 428 694 414 694 c 0
 397 694 383 682 373 664 c 1
 374 480 l 1
 292 379 l 5
 373 238 l 1
 373 68 l 1
 383 50 397 39 414 39 c 0
 428 39 441 47 451 60 c 1
 451 -75 l 1
EndSplineSet
EndChar

StartChar: bar
Encoding: 124 124 91
Width: 252
VWidth: 0
Flags: HW
VStem: 65 122<-89 881>
LayerCount: 2
Fore
SplineSet
65 881 m 257
 187 881 l 257
 187 -89 l 257
 65 -89 l 257
 65 881 l 257
EndSplineSet
EndChar

StartChar: braceright
Encoding: 125 125 92
Width: 419
VWidth: 0
Flags: HW
HStem: -82 121<179.494 251.782> 694 121<179.494 251.255>
VStem: 257 84<44.1962 238 495 684.933>
LayerCount: 2
Fore
SplineSet
179 -75 m 1
 179 60 l 1
 189 47 202 39 216 39 c 0
 233 39 247 50 257 68 c 1
 257 238 l 1
 338 379 l 5
 256 480 l 1
 257 664 l 1
 247 682 233 694 216 694 c 0
 202 694 189 686 179 673 c 1
 179 808 l 1
 190 813 203 815 216 815 c 0
 276 815 325 752 341 665 c 1
 342 495 l 1
 451 368 l 1
 342 238 l 1
 341 68 l 1
 325 -19 276 -82 216 -82 c 0
 203 -82 190 -80 179 -75 c 1
EndSplineSet
EndChar

StartChar: asciitilde
Encoding: 126 126 93
Width: 644
VWidth: 0
Flags: HW
HStem: 354 152.581<255.052 477.98> 410 152<101.251 233.491>
LayerCount: 2
Fore
SplineSet
549 587 m 257x80
 549 435 l 257
 548.596679688 433.500976562 492.831054688 354 421 354 c 11
 373 354 369 354 321 354 c 27x80
 257 354 232 410 168 410 c 27x40
 117 410 50 354 50 354 c 257x80
 50 506 l 257
 50 506 114 562 164 562 c 27x40
 230 562 258 507 324 507 c 27
 368 507 369 507 413 506.581054688 c 24
 482 507 549 587 549 587 c 257x80
EndSplineSet
EndChar

StartChar: .notdef
Encoding: 0 0 94
Width: 1000
Flags: HW
HStem: 10 66<293 685> 215.75 71<421 497> 331.75 117.5<421 477.005> 555.75 75.5<421 476.239> 742 62<293 685>
VStem: 243 50<76 742> 421 76<215.75 286.75 331.75 404.448> 487.5 75.5<459.629 544.632> 685 48<76 742>
LayerCount: 2
Fore
SplineSet
421 215.75 m 257xfe80
 421 286.75 l 257
 497 286.75 l 257
 497 215.75 l 257
 421 215.75 l 257xfe80
421 630.75 m 1
 425.5 631.25 429.5 631.25 434 631.25 c 0
 505.5 631.25 563 573.75 563 502.75 c 0xfd80
 563 454.165039062 536.450195312 412.044921875 497 390.037109375 c 1
 497 331.75 l 1
 421 331.75 l 1
 421 374.25 l 1
 421 436.75 l 1
 421 450.75 l 1xfe80
 425 449.75 429.5 449.25 434 449.25 c 0
 464 449.25 487.5 472.75 487.5 502.75 c 0xfd80
 487.5 532.25 464 555.75 434 555.75 c 0
 429.5 555.75 425 555.25 421 554.25 c 1
 421 630.75 l 1
308 742 m 2
 300 742 293 735 293 727 c 2
 293 91 l 2
 293 83 300 76 308 76 c 2
 670 76 l 2
 678 76 685 83 685 91 c 2
 685 727 l 2
 685 735 678 742 670 742 c 2
 308 742 l 2
258 804 m 2
 718 804 l 2
 726 804 733 797 733 789 c 2
 733 25 l 2
 733 17 726 10 718 10 c 2
 258 10 l 2
 250 10 243 17 243 25 c 2
 243 789 l 2
 243 797 250 804 258 804 c 2
EndSplineSet
EndChar

StartChar: u09a4
Encoding: 2468 2468 95
Width: 726
VWidth: 75
Flags: HW
HStem: 14.7002 133.6<305.264 468.805> 523.479 120.821<395.987 467.023> 681 132<0 726>
VStem: 92.4004 111.399<250.829 338.876> 570.2 133.399<250.829 424.049>
LayerCount: 2
Fore
SplineSet
726 813 m 257
 726 681 l 257
 0 681 l 257
 0 813 l 257
 726 813 l 257
389.780273438 523.478515625 m 5
 389.400390625 521.099609375 395.987304688 644.29296875 395.987304688 644.29296875 c 5
 396.657226562 644.297851562 397.328125 644.299804688 398 644.299804688 c 260
 566.799804688 644.299804688 703.599609375 503.5 703.599609375 329.900390625 c 260
 703.599609375 155.5 566.799804688 14.7001953125 398 14.7001953125 c 260
 229.200195312 14.7001953125 92.400390625 155.5 92.400390625 329.900390625 c 260
 92.400390625 330.77734375 203.86328125 340.658203125 203.870117188 341.533203125 c 5
 203.823242188 339.794921875 203.799804688 338.049804688 203.799804688 336.299804688 c 260
 203.799804688 232.299804688 285.400390625 148.299804688 387 148.299804688 c 260
 488.599609375 148.299804688 570.200195312 232.299804688 570.200195312 336.299804688 c 260
 570.200195312 438.556640625 490.084960938 521.962890625 389.780273438 523.478515625 c 5
EndSplineSet
EndChar

StartChar: uni09AC
Encoding: 2476 2476 96
Width: 723
VWidth: 0
Flags: HW
HStem: 681 132<0 524 670 723> 681 106<524 670>
VStem: 524 146<11 83.5 235.5 483.5 635.5 787> 524 57.5<83.5 235.5 483.5 483.5>
LayerCount: 2
Fore
SplineSet
581.5 635.5 m 257x10
 581.5 483.5 l 257
 214.5 359.5 l 257
 523.5 164.5 l 257
 523.5 12.5 l 257
 70.5 283.5 l 257
 70.5 435.5 l 257
 581.5 635.5 l 257x10
723 813 m 257x80
 723 681 l 257
 0 681 l 257
 0 813 l 257
 723 813 l 257x80
524 787 m 257x60
 670 787 l 257
 670 11 l 257
 524 11 l 257
 524 787 l 257x60
EndSplineSet
EndChar

StartChar: exclamdown
Encoding: 161 161 99
Width: 252
VWidth: 0
Flags: HW
HStem: 8 21G<50 202> 502 20G<50 202> 640 142<50 202>
VStem: 50 152<8 522 640 782>
LayerCount: 2
Fore
SplineSet
202 522 m 257
 202 8 l 257
 50 8 l 257
 50 522 l 257
 202 522 l 257
202 782 m 257
 202 640 l 257
 50 640 l 257
 50 782 l 257
 202 782 l 257
EndSplineSet
EndChar

StartChar: sterling
Encoding: 163 163 103
Width: 772
VWidth: 0
Flags: HW
HStem: 7 169.5<2.5 597.285> 369 152<50 146.882 312 409> 620 151<328.841 458.555>
VStem: 145 167<7 369 521 599.119> 615.5 151<192.508 322.889>
LayerCount: 2
Fore
SplineSet
757.5 328.5 m 257
 763.5 305.833007812 766.5 282.166992188 766.5 257.5 c 0
 766.5 199.5 749.166992188 148.166992188 714.5 103.5 c 0
 679.833007812 58.8330078125 634.833007812 28.5 579.5 12.5 c 257
 2.5 9.5 l 257
 2.5 176.5 l 257
 578.5 176.5 l 1
 603.166992188 197.833007812 615.5 224.833007812 615.5 257.5 c 0
 615.5 284.166992188 606.833007812 307.833007812 589.5 328.5 c 257
 757.5 328.5 l 257
464 762 m 1
 464 594 l 1
 445 610 420 620 393 620 c 0
 360 620 332 606 312 583 c 1
 312 521 l 1
 409 521 l 1
 409 369 l 1
 312 369 l 1
 312 7 l 1
 145 7 l 1
 146.881835938 369 l 1
 50 369 l 1
 50 521 l 1
 147.672851562 521 l 1
 148 584 l 1
 179 693 275 771 393 771 c 0
 418 771 441 768 464 762 c 1
EndSplineSet
EndChar

StartChar: uni098F
Encoding: 2447 2447 104
Width: 697
VWidth: 0
Flags: HW
HStem: 620 151<310.445 440.159>
VStem: 2.5 151<192.508 322.889>
LayerCount: 2
Fore
SplineSet
305 762 m 1
 328 768 351 771 376 771 c 0
 494 771 590 693 621 584 c 1
 624 7 l 1
 457 7 l 1
 457 583 l 1
 437 606 409 620 376 620 c 0
 349 620 324 610 305 594 c 1
 305 762 l 1
11.5 328.5 m 257
 179.5 328.5 l 257
 162.166992188 307.833007812 153.5 284.166992188 153.5 257.5 c 0
 153.5 224.833007812 165.833007812 197.833007812 190.5 176.5 c 1
 554.5 176.5 l 257
 554.5 9.5 l 257
 189.5 12.5 l 257
 134.166992188 28.5 89.1669921875 58.8330078125 54.5 103.5 c 0
 19.8330078125 148.166992188 2.5 199.5 2.5 257.5 c 0
 2.5 282.166992188 5.5 305.833007812 11.5 328.5 c 257
EndSplineSet
EndChar

StartChar: uni0985
Encoding: 2437 2437 105
Width: 946
VWidth: 0
Flags: HW
HStem: 8 21G<751 791.187> 14.7002 125.6<314.372 481.628> 515.479 128.821<400.78 481.669> 681 132<0 773 925 946> 681 105<773 925>
VStem: 92.4004 122.399<243.067 332.113> 581.2 122.399<283.807 416.338> 773 152<115 786>
LayerCount: 2
Fore
SplineSet
946 813 m 257x37
 946 681 l 257
 0 681 l 257
 0 813 l 257
 946 813 l 257x37
400.780273438 515.478515625 m 1
 400.400390625 513.099609375 395.987304688 644.29296875 395.987304688 644.29296875 c 1
 396.657226562 644.297851562 397.328125 644.299804688 398 644.299804688 c 256
 566.799804688 644.299804688 703.599609375 503.5 703.599609375 329.900390625 c 256
 703.599609375 155.5 566.799804688 14.7001953125 398 14.7001953125 c 256
 229.200195312 14.7001953125 92.400390625 155.5 92.400390625 329.900390625 c 256
 92.400390625 330.77734375 214.86328125 332.658203125 214.870117188 333.533203125 c 1
 214.823242188 331.794921875 214.799804688 330.049804688 214.799804688 328.299804688 c 256
 214.799804688 224.299804688 296.400390625 140.299804688 398 140.299804688 c 256x67
 499.599609375 140.299804688 581.200195312 224.299804688 581.200195312 328.299804688 c 256
 581.200195312 430.556640625 501.084960938 513.962890625 400.780273438 515.478515625 c 1
697 297 m 261
 879 115 l 261
 771 8 l 261xa7
 589 190 l 261
 697 297 l 261
773 10 m 261
 773 786 l 261
 925 786 l 261x2f
 925 10 l 261
 773 10 l 261
EndSplineSet
EndChar

StartChar: uni09BE
Encoding: 2494 2494 106
Width: 436
VWidth: 0
Flags: HW
HStem: 8 21G<234 386> 681 132<273 434>
VStem: 234 200<681 813> 234 152<8 497 813 857> 273 113<681 813>
LayerCount: 2
Fore
SplineSet
434 813 m 257xe0
 434 681 l 257xe0
 273 681 l 257
 273 813 l 257xc8
 434 813 l 257xe0
232 497 m 261
 -73 795 l 261
 128 792 l 261
 340 604 l 261
 232 497 l 261
234 857 m 257xd0
 386 857 l 257
 386 8 l 257
 234 8 l 257
 234 857 l 257xd0
EndSplineSet
EndChar

StartChar: uni0986
Encoding: 2438 2438 107
Width: 1261
VWidth: 0
Flags: HW
HStem: 8 21G<751 791.187> 14.7002 125.6<314.372 481.628> 515.479 128.821<400.78 481.669> 681 129<0 754 773 946 1100 1261> 681 105<773 925>
VStem: 92.4004 122.399<243.067 332.113> 581.2 122.399<283.807 416.338> 773 173<681 786> 1061 200<681 813> 1061 152<8 497 813 860> 1100 113<681 813>
LayerCount: 2
Fore
SplineSet
1261 813 m 261x3780
 1261 681 l 261x3780
 1100 681 l 261
 1100 813 l 261x3720
 1261 813 l 261x3780
946 810 m 257
 946 681 l 257
 0 681 l 257
 0 810 l 257
 946 810 l 257
400.780273438 515.478515625 m 1
 400.400390625 513.099609375 395.987304688 644.29296875 395.987304688 644.29296875 c 1
 396.657226562 644.297851562 397.328125 644.299804688 398 644.299804688 c 256
 566.799804688 644.299804688 703.599609375 503.5 703.599609375 329.900390625 c 256
 703.599609375 155.5 566.799804688 14.7001953125 398 14.7001953125 c 256
 229.200195312 14.7001953125 92.400390625 155.5 92.400390625 329.900390625 c 256
 92.400390625 330.77734375 214.86328125 332.658203125 214.870117188 333.533203125 c 1
 214.823242188 331.794921875 214.799804688 330.049804688 214.799804688 328.299804688 c 256
 214.799804688 224.299804688 296.400390625 140.299804688 398 140.299804688 c 256x67
 499.599609375 140.299804688 581.200195312 224.299804688 581.200195312 328.299804688 c 256
 581.200195312 430.556640625 501.084960938 513.962890625 400.780273438 515.478515625 c 1
697 297 m 257
 879 115 l 257
 771 8 l 257xa7
 589 190 l 257
 697 297 l 257
773 10 m 257
 773 786 l 257
 925 786 l 257x2f
 925 10 l 257
 773 10 l 257
1059 497 m 257
 754 810 l 257
 955 810 l 257x37
 1167 604 l 257
 1059 497 l 257
1061 860 m 261xa740
 1213 860 l 261
 1213 8 l 261
 1061 8 l 261
 1061 860 l 261xa740
EndSplineSet
EndChar

StartChar: uni09B9
Encoding: 2489 2489 108
Width: 689
VWidth: 0
Flags: HW
HStem: 9 21G<407 593> 681 132<0 689>
LayerCount: 2
Fore
SplineSet
236.141601562 482.20703125 m 9
 236.141601562 482.20703125 128.799804688 588.45703125 128.026367188 587.68359375 c 257
 230.65625 690.313476562 392.620117188 692.33203125 495.080078125 589.872070312 c 256
 596.706054688 488.24609375 594.452148438 326.5078125 492.18359375 223.525390625 c 256
 372.48828125 102.995117188 221.6953125 135.170898438 130.920898438 227.127929688 c 9
 233.453125 329.66015625 l 1
 233.686523438 329.422851562 233.921875 329.186523438 234.158203125 328.950195312 c 256
 276.666992188 286.440429688 340.711914062 287.127929688 386.141601562 331.051757812 c 256
 429.873046875 376.353515625 430.990234375 440.416015625 388.306640625 483.099609375 c 256
 345.163085938 526.244140625 281.517578125 525.487304688 236.141601562 482.20703125 c 9
689 813 m 257
 689 681 l 257
 0 681 l 257
 0 813 l 257
 689 813 l 257
434 9 m 261
 137 229 l 257
 338 231 l 257
 593 9 l 261
 434 9 l 261
EndSplineSet
EndChar

StartChar: uni0987
Encoding: 2439 2439 109
Width: 689
VWidth: 0
Flags: HW
HStem: 9 21G<407 593> 681 132<0 307.581 543.755 689>
LayerCount: 2
Fore
SplineSet
339.090820312 729.745117188 m 257
 339.090820312 729.745117188 348.283203125 833.689453125 299.7890625 882.776367188 c 24
 268.380859375 913.592773438 267.673828125 914.299804688 236.560546875 945.412109375 c 24
 189.891601562 992.081054688 131.202148438 972.989257812 84.5322265625 1019.65820312 c 24
 49.177734375 1055.01367188 43.5205078125 1139.8671875 43.5205078125 1139.8671875 c 257
 131.909179688 1228.25488281 l 257
 131.909179688 1228.25488281 139.6875 1141.28125 175.749023438 1105.21875 c 24
 221.00390625 1059.96386719 278.280273438 1081.88378906 323.53515625 1036.62890625 c 24
 357.475585938 1002.68847656 360.3046875 999.859375 394.245117188 965.918945312 c 16
 444.2734375 915.890625 424.794921875 818.1796875 427.479492188 818.1328125 c 257
 339.090820312 729.745117188 l 257
236.141601562 482.20703125 m 9
 236.141601562 482.20703125 128.799804688 588.45703125 128.026367188 587.68359375 c 257
 230.65625 690.313476562 392.620117188 692.33203125 495.080078125 589.872070312 c 256
 596.706054688 488.24609375 594.452148438 326.5078125 492.18359375 223.525390625 c 256
 372.48828125 102.995117188 221.6953125 135.170898438 130.920898438 227.127929688 c 9
 233.453125 329.66015625 l 1
 233.686523438 329.422851562 233.921875 329.186523438 234.158203125 328.950195312 c 256
 276.666992188 286.440429688 340.711914062 287.127929688 386.141601562 331.051757812 c 256
 429.873046875 376.353515625 430.990234375 440.416015625 388.306640625 483.099609375 c 256
 345.163085938 526.244140625 281.517578125 525.487304688 236.141601562 482.20703125 c 9
689 813 m 257
 689 681 l 257
 0 681 l 257
 0 813 l 257
 689 813 l 257
434 9 m 257
 137 229 l 257
 338 231 l 257
 593 9 l 257
 434 9 l 257
EndSplineSet
EndChar

StartChar: uni09A1
Encoding: 2465 2465 110
Width: 616
VWidth: 0
Flags: HW
HStem: 13.0016 151.016<243.473 373.671> 376 151.998<309 441> 681 132<0 309 441 616> 681 80<309 441>
VStem: 309 132<527.998 761>
LayerCount: 2
Fore
SplineSet
309 761 m 261xd8
 441 761 l 261
 441 376 l 261
 309 376 l 261
 309 761 l 261xd8
616 813 m 261xe8
 616 681 l 261
 0 681 l 261
 0 813 l 261
 616 813 l 261xe8
310.771484375 376.965820312 m 13
 310.771484375 376.965820312 310 527.998046875 308.905273438 527.998046875 c 261
 454.046875 527.998046875 573.453125 414.859375 570 270 c 260
 566.541015625 124.885742188 452.287109375 12.7998046875 308.90625 13.001953125 c 260
 139.0390625 13.240234375 55.1650390625 141.7890625 56.0009765625 271 c 13
 201.00390625 271 l 5
 201.000976562 270.666992188 201 270.333984375 201 270 c 260
 201 209.8828125 246.772460938 165.08203125 309.955078125 164.017578125 c 260
 372.911132812 165.126953125 419 209.63671875 419 270 c 260
 419 331.015625 373.461914062 375.484375 310.771484375 376.965820312 c 13
EndSplineSet
EndChar

StartChar: uni0989
Encoding: 2441 2441 111
Width: 612
VWidth: 0
Flags: HW
HStem: 13.002 151.016<238.473 368.671> 376 151.998<304 436> 681 132<-5 436 543.755 611>
LayerCount: 2
Fore
SplineSet
299.301757812 731.96875 m 257
 299.301757812 731.96875 308.494140625 835.913085938 260 885 c 24
 228.591796875 915.81640625 227.884765625 916.5234375 196.771484375 947.635742188 c 24
 150.102539062 994.3046875 91.4130859375 975.212890625 44.7431640625 1021.88183594 c 24
 9.388671875 1057.23730469 3.7314453125 1142.09082031 3.7314453125 1142.09082031 c 257
 92.1201171875 1230.47851562 l 257
 92.1201171875 1230.47851562 99.8984375 1143.50488281 135.959960938 1107.44238281 c 24
 181.21484375 1062.1875 238.491210938 1084.10742188 283.74609375 1038.85253906 c 24
 317.686523438 1004.91210938 320.515625 1002.08300781 354.456054688 968.142578125 c 16
 404.484375 918.114257812 385.005859375 820.403320312 387.690429688 820.356445312 c 257
 299.301757812 731.96875 l 257
304 761 m 257
 436 761 l 257
 436 376 l 257
 304 376 l 257
 304 761 l 257
611 813 m 257
 611 681 l 257
 -5 681 l 257
 -5 813 l 257
 611 813 l 257
305.771484375 376.965820312 m 9
 305.771484375 376.965820312 305 527.998046875 303.905273438 527.998046875 c 257
 449.046875 527.998046875 568.453125 414.859375 565 270 c 256
 561.541015625 124.885742188 447.287109375 12.7998046875 303.90625 13.001953125 c 256
 134.0390625 13.240234375 50.1650390625 141.7890625 51.0009765625 271 c 9
 196.00390625 271 l 1
 196.000976562 270.666992188 196 270.333984375 196 270 c 256
 196 209.8828125 241.772460938 165.08203125 304.955078125 164.017578125 c 256
 367.911132812 165.126953125 414 209.63671875 414 270 c 256
 414 331.015625 368.461914062 375.484375 305.771484375 376.965820312 c 9
EndSplineSet
EndChar

StartChar: uni09A2
Encoding: 2466 2466 112
Width: 642
VWidth: 0
Flags: HW
HStem: 681 132<0 50 217 639> 681 90<50 217>
VStem: 53 164<182.77 771> 452 164<182.95 383>
LayerCount: 2
Fore
SplineSet
639 813 m 257xb0
 639 681 l 257
 0 681 l 257
 0 813 l 257
 639 813 l 257xb0
616 194 m 257
 547.931640625 -45.4130859375 122.236328125 -49.4453125 53 194 c 257
 50 771 l 257
 217 771 l 257x70
 217 195 l 257
 255.237304688 151.02734375 414.430664062 149.916992188 452 195 c 257
 452 383 l 257
 619 383 l 257
 616 194 l 257
EndSplineSet
EndChar

StartChar: uni099F
Encoding: 2463 2463 113
Width: 642
VWidth: 0
Flags: HW
HStem: 681 132<0 50 543.755 639> 681 90<50 217>
VStem: 53 164<182.77 771> 452 164<182.95 383>
LayerCount: 2
Fore
SplineSet
543.754882812 812.409179688 m 257x30
 455.3671875 724.020507812 l 257
 455.3203125 726.705078125 357.609375 707.2265625 307.581054688 757.254882812 c 8
 273.640625 791.1953125 270.811523438 794.024414062 236.87109375 827.96484375 c 24
 191.616210938 873.219726562 213.536132812 930.49609375 168.28125 975.750976562 c 24
 132.21875 1011.8125 45.2451171875 1019.59082031 45.2451171875 1019.59082031 c 257
 133.6328125 1107.97949219 l 257
 133.6328125 1107.97949219 218.486328125 1102.32226562 253.841796875 1066.96777344 c 24
 300.510742188 1020.29785156 281.418945312 961.608398438 328.087890625 914.939453125 c 24
 359.200195312 883.826171875 359.907226562 883.119140625 390.723632812 851.7109375 c 24
 439.810546875 803.216796875 543.754882812 812.409179688 543.754882812 812.409179688 c 257x30
639 813 m 257xb0
 639 681 l 257
 0 681 l 257
 0 813 l 257
 639 813 l 257xb0
616 194 m 257
 547.931640625 -45.4130859375 122.236328125 -49.4453125 53 194 c 257
 50 771 l 257
 217 771 l 257x70
 217 195 l 257
 255.237304688 151.02734375 414.430664062 149.916992188 452 195 c 257
 452 383 l 257
 619 383 l 257
 616 194 l 257
EndSplineSet
EndChar

StartChar: uni0995
Encoding: 2453 2453 114
Width: 1095
VWidth: 0
Flags: HW
HStem: 361.5 151<716.566 845.029> 681 132<0 524 670 1088> 681 106<524 670>
VStem: 523.5 58<83.5 228.5 483.5 483.5> 524 146<11 83.5 228.5 254.5 635.5 787> 887.5 151<228.5 319.029>
LayerCount: 2
Fore
SplineSet
581.5 635.5 m 257x10
 581.5 483.5 l 257
 214.5 359.5 l 257
 523.5 164.5 l 257
 523.5 12.5 l 257
 70.5 283.5 l 257
 70.5 435.5 l 257
 581.5 635.5 l 257x10
1098 813 m 257x80
 1098 681 l 257
 0 681 l 257
 0 813 l 257
 1098 813 l 257x80
524 787 m 257x60
 670 787 l 257
 670 11 l 257
 524 11 l 257
 524 787 l 257x60
524.795898438 228.5 m 261x94
 523.938476562 237.053710938 523.5 245.7265625 523.5 254.5 c 260
 523.5 397.5 638.5 512.5 780.5 512.5 c 260
 923.5 512.5 1038.5 397.5 1038.5 254.5 c 260
 1038.5 245.7265625 1038.06054688 237.053710938 1037.20410156 228.5 c 261
 884.364257812 228.5 l 261
 886.415039062 236.826171875 887.5 245.536132812 887.5 254.5 c 260
 887.5 314.5 840.5 361.5 780.5 361.5 c 260
 721.5 361.5 674.5 314.5 674.5 254.5 c 260
 674.5 245.536132812 675.584960938 236.826171875 677.631835938 228.5 c 261
 524.795898438 228.5 l 261x94
EndSplineSet
EndChar

StartChar: uni0993
Encoding: 2451 2451 115
Width: 616
VWidth: 0
Flags: HW
HStem: 13 151.017<247.114 376.368> 686 6<225.316 227.624>
VStem: 50 151<208.344 374.102> 419 151<205.94 334.826 510.937 643.001>
LayerCount: 2
Fore
SplineSet
287 692 m 0
 365.104492188 696.1953125 419 653.3203125 419 575 c 256
 419 523.436523438 383.1015625 481.0390625 334 471.169921875 c 257
 334 472.131835938 l 257
 326.280273438 470.234375 318.23046875 469.163085938 309.955078125 469.017578125 c 256
 334 373.864257812 l 257
 334 374.828125 l 257
 383.1015625 364.9453125 419 322.4375 419 270 c 256
 419 209.640625 372.901367188 165.126953125 309.955078125 164.017578125 c 256
 246.760742188 165.08203125 201 209.87890625 201 270 c 256
 201 414.8828125 286.961914062 372.549804688 108 422 c 257
 111.3359375 422.833984375 92.798828125 417.602539062 96.41015625 418.088867188 c 1
 67.138671875 376.235351562 50 325.204101562 50 270 c 0
 50 133.96484375 155.541992188 22.708984375 290.133789062 13.6025390625 c 0
 295.004882812 13.205078125 299.662109375 13.0693359375 304.451171875 13.0234375 c 0
 305.631835938 13.0078125 306.815429688 13 308 13 c 0
 308.301757812 13 308.603515625 13.001953125 308.90625 13.001953125 c 0
 309.92578125 13.001953125 310.956054688 13 312 13 c 0
 455 13 570 128 570 270 c 0
 570 327.333984375 551.513671875 380.16796875 520.147460938 422.892578125 c 1
 551.513671875 465.473632812 568.88671875 518.077148438 570 575 c 0
 572.978515625 727.309570312 474.5234375 837.895507812 331 818 c 0
 279.141601562 810.811523438 218.190429688 769.309570312 207 770 c 0
 204.358398438 770.163085938 227.624023438 686.109375 225 686 c 1
 231.076171875 687.51953125 280.208007812 691.634765625 287 692 c 0
EndSplineSet
EndChar

StartChar: uni09B0
Encoding: 2480 2480 116
Width: 723
VWidth: 0
Flags: HW
HStem: 8 142<161 313> 681 132<0 524 670 723> 681 106<524 670>
VStem: 161 152<8 150> 524 146<11 83.5 235.5 483.5 635.5 787> 524 57.5<83.5 235.5 483.5 483.5>
LayerCount: 2
Fore
SplineSet
581.5 635.5 m 257x10
 581.5 483.5 l 257
 214.5 359.5 l 257
 523.5 164.5 l 257
 523.5 12.5 l 257
 70.5 283.5 l 257
 70.5 435.5 l 257
 581.5 635.5 l 257x10
723 813 m 257x80
 723 681 l 257
 0 681 l 257
 0 813 l 257
 723 813 l 257x80
524 787 m 257x60
 670 787 l 257
 670 11 l 257
 524 11 l 257
 524 787 l 257x60
94 8 m 261x90
 94 150 l 261
 246 150 l 261
 246 8 l 261
 94 8 l 261x90
EndSplineSet
EndChar

StartChar: mu
Encoding: 181 181 119
Width: 598
VWidth: 0
Flags: HW
HStem: 16 151<234.435 364.159> 514 20G<51 220 381 548>
VStem: 51 169<-179 28 184.134 534> 381 164<187.881 534>
LayerCount: 2
Fore
SplineSet
51 -179 m 261
 51 534 l 257
 220 534 l 257
 220 202 l 257
 240 180 268 167 300 167 c 256
 333 167 361 181 381 204 c 257
 381 534 l 257
 548 534 l 257
 545 203 l 257
 514 94 418 16 300 16 c 256
 272 16 246 20 220 28 c 257
 220 -179 l 261
 51 -179 l 261
EndSplineSet
EndChar

StartChar: guillemotleft
Encoding: 171 171 120
Width: 1282
VWidth: 0
Flags: HW
LayerCount: 2
Fore
SplineSet
1194 673 m 1
 1194 521 l 1
 787.895507812 347.71875 l 1
 1194 168 l 1
 1194 16 l 1
 650 260 l 1
 650 261 l 1
 650 412 l 1
 650 413 l 1
 1194 673 l 1
594 673 m 1
 594 521 l 1
 187.895507812 347.71875 l 1
 594 168 l 1
 594 16 l 1
 50 260 l 1
 50 261 l 1
 50 412 l 1
 50 413 l 1
 594 673 l 1
EndSplineSet
EndChar

StartChar: guillemotright
Encoding: 187 187 121
Width: 1282
VWidth: 0
Flags: HW
LayerCount: 2
Fore
SplineSet
50 673 m 1
 594 413 l 1
 594 412 l 1
 594 261 l 1
 594 260 l 1
 50 16 l 1
 50 168 l 1
 456.104492188 347.71875 l 1
 50 521 l 1
 50 673 l 1
650 673 m 1
 1194 413 l 1
 1194 412 l 1
 1194 261 l 1
 1194 260 l 1
 650 16 l 1
 650 168 l 1
 1056.10449219 347.71875 l 1
 650 521 l 1
 650 673 l 1
EndSplineSet
EndChar

StartChar: cent
Encoding: 162 162 122
Width: 384
VWidth: 0
Flags: HW
HStem: 13 151<287.13 334> 377 151<287.13 334>
VStem: 50 151<206.066 334.529> 238 47<-89 710>
LayerCount: 2
Fore
SplineSet
238 710 m 261
 285 710 l 261
 285 -89 l 257
 238 -89 l 257
 238 710 l 261
334 14.2958984375 m 257
 325.446289062 13.4384765625 316.7734375 13 308 13 c 256
 165 13 50 128 50 270 c 256
 50 413 165 528 308 528 c 256
 316.7734375 528 325.446289062 527.560546875 334 526.704101562 c 257
 334 373.864257812 l 257
 325.673828125 375.915039062 316.963867188 377 308 377 c 256
 248 377 201 330 201 270 c 256
 201 211 248 164 308 164 c 256
 316.963867188 164 325.673828125 165.084960938 334 167.131835938 c 257
 334 14.2958984375 l 257
EndSplineSet
EndChar

StartChar: yen
Encoding: 165 165 123
Width: 612
VWidth: 0
Flags: HW
HStem: 206 62<36 580> 344 62<36 580>
VStem: 229 152<11 460>
LayerCount: 2
Fore
SplineSet
580 406 m 257
 580 344 l 257
 36 344 l 257
 36 406 l 257
 580 406 l 257
580 268 m 257
 580 206 l 257
 36 206 l 257
 36 268 l 257
 580 268 l 257
229 461 m 257
 229.365234375 461 l 257
 30 775 l 257
 182 775 l 257
 306 604 l 257
 430 775 l 257
 582 775 l 257
 382 460 l 257
 381 460 l 257
 381 11 l 257
 229 11 l 257
 229 461 l 257
EndSplineSet
EndChar

StartChar: questiondown
Encoding: 191 191 124
Width: 384
VWidth: 0
Flags: HW
HStem: 8 151<243.471 334> 697 142<182 334>
VStem: 50 151<201.066 328.017> 182 152<477.009 607 697 839>
LayerCount: 2
Fore
SplineSet
334 839 m 257xd0
 334 697 l 257
 182 697 l 257
 182 839 l 257
 334 839 l 257xd0
334 9 m 1
 325 8 317 8 308 8 c 0
 165 8 50 123 50 265 c 0xe0
 50 362.168945312 103.098632812 446.41015625 182 490.426757812 c 1
 182 607 l 1
 334 607 l 1
 334 522 l 1
 334 397 l 1
 334 369 l 1xd0
 326 371 317 372 308 372 c 0
 248 372 201 325 201 265 c 0xe0
 201 206 248 159 308 159 c 0
 317 159 326 160 334 162 c 1
 334 9 l 1
EndSplineSet
EndChar

StartChar: plusminus
Encoding: 177 177 125
Width: 644
VWidth: 0
Flags: HW
HStem: -20 152<50 594> 354 152<50 594>
VStem: 246 152<159 702>
LayerCount: 2
Fore
SplineSet
594 132 m 257
 594 -20 l 257
 50 -20 l 257
 50 132 l 257
 594 132 l 257
594 506 m 257
 594 354 l 257
 50 354 l 257
 50 506 l 257
 594 506 l 257
246 702 m 257
 398 702 l 257
 398 159 l 257
 246 159 l 257
 246 702 l 257
EndSplineSet
EndChar

StartChar: gravecomb
Encoding: 768 768 127
Width: 0
VWidth: 0
GlyphClass: 4
Flags: HW
HStem: 526 289
VStem: -145 290
LayerCount: 2
Fore
SplineSet
37 526 m 261
 -145 708 l 261
 -37 815 l 261
 145 633 l 261
 37 526 l 261
EndSplineSet
EndChar

StartChar: acutecomb
Encoding: 769 769 128
Width: 0
VWidth: 0
GlyphClass: 4
Flags: HW
HStem: 526 289
VStem: -145 290
LayerCount: 2
Fore
SplineSet
-37 526 m 261
 -145 633 l 261
 37 815 l 261
 145 708 l 261
 -37 526 l 261
EndSplineSet
EndChar

StartChar: uni0302
Encoding: 770 770 129
Width: 0
VWidth: 0
GlyphClass: 4
Flags: HW
HStem: 776.5 167<-29 -24.5 24.5 47.5>
VStem: -100.5 201
LayerCount: 2
Fore
SplineSet
-100.5 776.5 m 1
 -29 943.5 l 1
 -28.5 943.5 l 1
 47 943.5 l 1
 47.5 943.5 l 1
 100.5 776.5 l 1
 24.5 776.5 l 1
 3.5 883.5 l 1
 -24.5 776.5 l 1
 -100.5 776.5 l 1
EndSplineSet
EndChar

StartChar: tildecomb
Encoding: 771 771 130
Width: 0
VWidth: 0
GlyphClass: 4
Flags: HW
HStem: 812.25 76.291<-40.2727 104.864> 840.25 76<-116.384 -14.504>
VStem: -124.75 249.5<764.486 812.25>
LayerCount: 2
Fore
SplineSet
124.75 928.75 m 257xa0
 124.75 852.75 l 257
 124.548828125 852 96.666015625 812.25 60.75 812.25 c 11
 36.75 812.25 34.75 812.25 10.75 812.25 c 27xa0
 -21.25 812.25 -33.75 840.25 -65.75 840.25 c 27x60
 -91.25 840.25 -124.75 812.25 -124.75 812.25 c 257xa0
 -124.75 888.25 l 257
 -124.75 888.25 -92.75 916.25 -67.75 916.25 c 27x60
 -34.75 916.25 -20.75 888.75 12.25 888.75 c 27
 34.25 888.75 34.75 888.75 56.75 888.541015625 c 24
 91.25 888.75 124.75 928.75 124.75 928.75 c 257xa0
EndSplineSet
EndChar

StartChar: uni0306
Encoding: 774 774 131
Width: 0
VWidth: 0
GlyphClass: 4
Flags: HW
HStem: 817.75 52<-90.3917 88.2935>
VStem: -197.25 14.5<975.212 1031.98> 183.75 12.5<979.659 1037.14>
LayerCount: 2
Fore
SplineSet
128.5 941.5 m 257
 128.5 937.5 128.5 932.5 128.5 928.5 c 256
 128.5 856.5 71.5 799.5 0.5 799.5 c 256
 -71.5 799.5 -128.5 856.5 -128.5 928.5 c 256
 -128.5 932.5 -128.5 937.5 -128.5 941.5 c 257
 -51.5 941.5 l 257
 -52.5 937.5 -53.5 932.5 -53.5 928.5 c 256
 -53.5 898.5 -29.5 874.5 0.5 874.5 c 256
 30.5 874.5 53.5 898.5 53.5 928.5 c 256
 53.5 932.5 52.5 937.5 51.5 941.5 c 257
 128.5 941.5 l 257
EndSplineSet
EndChar

StartChar: uni0304
Encoding: 772 772 132
Width: 0
VWidth: 0
GlyphClass: 4
Flags: HW
HStem: 792 76<-136 136>
VStem: -136 272<792 868>
LayerCount: 2
Fore
SplineSet
136 868 m 261
 136 792 l 261
 -136 792 l 261
 -136 868 l 261
 136 868 l 261
EndSplineSet
EndChar

StartChar: dieresis
Encoding: 168 168 133
Width: 452
VWidth: 0
Flags: HW
HStem: 8 142<50 202 250 402>
VStem: 50 152<8 150> 250 152<8 150>
LayerCount: 2
Fore
SplineSet
250 8 m 257
 250 150 l 257
 402 150 l 257
 402 8 l 257
 250 8 l 257
50 8 m 257
 50 150 l 257
 202 150 l 257
 202 8 l 257
 50 8 l 257
EndSplineSet
EndChar

StartChar: uni0308
Encoding: 776 776 135
Width: 0
VWidth: 0
GlyphClass: 4
Flags: HW
HStem: 508 142<-176 -24 24 176>
VStem: -176 152<508 650> 24 152<508 650>
LayerCount: 2
Fore
SplineSet
24 508 m 257
 24 650 l 257
 176 650 l 257
 176 508 l 257
 24 508 l 257
-176 508 m 257
 -176 650 l 257
 -24 650 l 257
 -24 508 l 257
 -176 508 l 257
EndSplineSet
EndChar

StartChar: uni0307
Encoding: 775 775 136
Width: 0
VWidth: 0
GlyphClass: 4
Flags: HW
HStem: 508 142<-76 76>
VStem: -76 152<508 650>
LayerCount: 2
Fore
SplineSet
-76 508 m 257
 -76 650 l 257
 76 650 l 257
 76 508 l 257
 -76 508 l 257
EndSplineSet
EndChar

StartChar: hookabovecomb
Encoding: 777 777 137
Width: 0
VWidth: 0
GlyphClass: 4
Flags: HW
HStem: 442 77<-71 -13.343> 624 75<-71 -16.3337>
VStem: -4 75<528.071 612.495>
LayerCount: 2
Fore
SplineSet
-71 442 m 261
 -71 519 l 261
 -67 518 -62 517 -58 517 c 260
 -28 517 -4 540 -4 570 c 260
 -4 600 -28 624 -58 624 c 260
 -62 624 -67 623 -71 622 c 261
 -71 699 l 261
 -67 699 -62 699 -58 699 c 260
 14 699 71 642 71 570 c 260
 71 499 14 442 -58 442 c 260
 -62 442 -67 442 -71 442 c 261
EndSplineSet
EndChar

StartChar: uni030A
Encoding: 778 778 138
Width: 0
VWidth: 0
GlyphClass: 4
Flags: HW
HStem: 442 75<-11.8125 11.8125> 624 75<-11.8125 11.8125>
VStem: -130 76<527.334 613.111> 54 76<527.933 612.698>
LayerCount: 2
Fore
SplineSet
-1 442 m 260
 -2 442 -2 442 -3 442 c 260
 -5 442 -8 442 -10 442 c 260
 -77 447 -130 502 -130 570 c 260
 -130 638 -77 694 -10 699 c 260
 -8 699 -5 699 -3 699 c 260
 -2 699 -2 699 -1 699 c 260
 0 699 0 699 1 699 c 260
 73 699 130 642 130 570 c 260
 130 499 73 442 1 442 c 260
 0 442 0 442 -1 442 c 260
0 624 m 260
 -4 624 -8 623 -12 622 c 261
 -12 623 l 261
 -37 618 -54 596 -54 570 c 260
 -54 544 -37 523 -12 518 c 261
 -12 519 l 261
 -8 518 -4 517 0 517 c 261
 4 517 8 518 12 519 c 261
 12 518 l 261
 37 523 54 544 54 570 c 260
 54 596 37 618 12 623 c 261
 12 622 l 261
 8 623 4 624 0 624 c 260
EndSplineSet
EndChar

StartChar: uni030B
Encoding: 779 779 139
Width: 0
VWidth: 0
GlyphClass: 4
Flags: HW
HStem: 524 289
LayerCount: 2
Fore
SplineSet
106 524 m 257
 -2 631 l 257
 180 813 l 257
 288 706 l 257
 106 524 l 257
-180 526 m 257
 -288 633 l 257
 -106 815 l 257
 2 708 l 257
 -180 526 l 257
EndSplineSet
EndChar

StartChar: uni030C
Encoding: 780 780 140
Width: 0
VWidth: 0
GlyphClass: 4
Flags: HW
HStem: 776 168<-29 -24 24 48>
VStem: -100 200
LayerCount: 2
Fore
SplineSet
-100 944 m 1
 -24 944 l 1
 4 836 l 1
 24 944 l 1
 100 944 l 1
 48 776 l 1
 47 776 l 1
 -28 776 l 1
 -29 776 l 1
 -100 944 l 1
EndSplineSet
EndChar

StartChar: uni030F
Encoding: 783 783 141
Width: 0
VWidth: 0
GlyphClass: 4
Flags: HW
HStem: 524 289
LayerCount: 2
Fore
SplineSet
-106 524 m 257
 -288 706 l 257
 -180 813 l 257
 2 631 l 257
 -106 524 l 257
180 526 m 257
 -2 708 l 257
 106 815 l 257
 288 633 l 257
 180 526 l 257
EndSplineSet
EndChar

StartChar: dotbelowcomb
Encoding: 803 803 142
Width: 0
VWidth: 0
GlyphClass: 4
Flags: HW
HStem: 8 142<-76 76>
VStem: -76 152<8 150>
LayerCount: 2
Fore
SplineSet
-76 8 m 257
 -76 150 l 257
 76 150 l 257
 76 8 l 257
 -76 8 l 257
EndSplineSet
EndChar

StartChar: uni0328
Encoding: 808 808 143
Width: 0
VWidth: 0
GlyphClass: 4
Flags: HW
HStem: -58 75<16.3337 71> 124 75<16.3337 71>
VStem: -71 75<28.0713 112.495>
LayerCount: 2
Fore
SplineSet
71 -58 m 261
 67 -58 62 -58 58 -58 c 260
 -14 -58 -71 -1 -71 70 c 260
 -71 142 -14 199 58 199 c 260
 62 199 67 199 71 199 c 261
 71 122 l 261
 67 123 62 124 58 124 c 260
 28 124 4 100 4 70 c 260
 4 40 28 17 58 17 c 260
 62 17 67 18 71 19 c 261
 71 -58 l 261
EndSplineSet
EndChar

StartChar: uni0327
Encoding: 807 807 144
Width: 0
VWidth: 0
GlyphClass: 4
Flags: HW
HStem: -58 77<-71 -13.343> 124 75<-71 -16.3337>
VStem: -4 75<28.0713 112.495>
LayerCount: 2
Fore
SplineSet
-71 -58 m 261
 -71 19 l 261
 -67 18 -62 17 -58 17 c 260
 -28 17 -4 40 -4 70 c 260
 -4 100 -28 124 -58 124 c 260
 -62 124 -67 123 -71 122 c 261
 -71 199 l 261
 -67 199 -62 199 -58 199 c 260
 14 199 71 142 71 70 c 260
 71 -1 14 -58 -58 -58 c 260
 -62 -58 -67 -58 -71 -58 c 261
EndSplineSet
EndChar

StartChar: dotlessi
Encoding: 305 305 145
Width: 252
VWidth: 0
Flags: HW
HStem: 8 21G<50 202> 502 20G<50 202>
VStem: 50 152<8 522>
LayerCount: 2
Fore
SplineSet
50 522 m 257
 202 522 l 257
 202 8 l 257
 50 8 l 257
 50 522 l 257
EndSplineSet
EndChar

StartChar: uni0313
Encoding: 787 787 292
Width: 0
VWidth: 400
GlyphClass: 4
Flags: HW
HStem: 276 274<-33.2324 19.1818>
VStem: -76 152<408 550>
LayerCount: 2
Fore
SplineSet
-76 408 m 5
 -76 550 l 5
 76 550 l 5
 76 408 l 5
 16 276 l 5
 -42 280 l 5
 -33.232421875 408 l 5
 -76 408 l 5
EndSplineSet
EndChar

StartChar: uni0312
Encoding: 786 786 293
Width: 0
VWidth: 400
GlyphClass: 4
Flags: HW
HStem: 276 274<-19.1818 33.2324>
VStem: -76 152<276 418>
LayerCount: 2
Fore
SplineSet
76 418 m 5
 76 276 l 5
 -76 276 l 5
 -76 418 l 5
 -16 550 l 5
 42 546 l 5
 33.232421875 418 l 5
 76 418 l 5
EndSplineSet
EndChar

StartChar: uni0326
Encoding: 806 806 297
Width: 0
VWidth: 100
GlyphClass: 4
Flags: HW
HStem: -24 274<-33.2324 19.1818>
VStem: -76 152<108 250>
LayerCount: 2
Fore
SplineSet
-76 108 m 5
 -76 250 l 5
 76 250 l 5
 76 108 l 5
 16 -24 l 5
 -42 -20 l 5
 -33.232421875 108 l 5
 -76 108 l 5
EndSplineSet
EndChar

StartChar: multiply
Encoding: 215 215 308
Width: 724
VWidth: 200
Flags: HW
HStem: 209 20G<68.4269 229 481.563 674> 703 20G<67.4369 236 480.573 673>
LayerCount: 2
Fore
SplineSet
50 723 m 257
 236 721 l 257
 365.491210938 569.926757812 l 257
 498 722 l 257
 673 721 l 257
 452.584960938 468.317382812 l 257
 674 210 l 257
 499 208 l 257
 362.291015625 364.8046875 l 257
 229 212 l 257
 51 209 l 257
 274.5 465.5 l 257
 50 723 l 257
EndSplineSet
EndChar

StartChar: periodcentered
Encoding: 183 183 309
Width: 252
VWidth: 400
Flags: HW
HStem: 408 142<50 202>
VStem: 50 152<408 550>
LayerCount: 2
Fore
SplineSet
50 408 m 257
 50 550 l 257
 202 550 l 257
 202 408 l 257
 50 408 l 257
EndSplineSet
EndChar

StartChar: registered
Encoding: 174 174 310
Width: 864
VWidth: 0
Flags: HW
LayerCount: 2
Fore
SplineSet
395.185546875 482.629882812 m 257
 395.185546875 407.178710938 l 257
 398.1015625 406.44921875 401.017578125 406.083984375 403.932617188 406.083984375 c 256
 425.802734375 406.083984375 442.935546875 423.216796875 442.935546875 445.0859375 c 256
 442.935546875 466.591796875 425.802734375 483.72265625 403.932617188 483.72265625 c 256
 401.017578125 483.72265625 398.1015625 483.358398438 395.185546875 482.629882812 c 257
395.185546875 255.545898438 m 257
 339.78125 255.545898438 l 257
 339.78125 538.3984375 l 257
 395.185546875 538.3984375 l 257
 398.1015625 538.762695312 401.017578125 538.762695312 403.932617188 538.762695312 c 256
 456.057617188 538.762695312 497.974609375 496.845703125 497.974609375 445.0859375 c 256
 497.974609375 404.137695312 472.103515625 369.48828125 435.73828125 356.512695312 c 257
 508.1796875 253.359375 l 257
 457.150390625 253.359375 l 257
 396.977539062 351.228515625 l 257
 396.37890625 351.275390625 395.783203125 351.334960938 395.185546875 351.409179688 c 257
 395.185546875 255.545898438 l 257
710.477539062 389.865234375 m 260
 710.477539062 230.942382812 585.819335938 102.638671875 432 102.638671875 c 260
 278.180664062 102.638671875 153.522460938 230.942382812 153.522460938 389.865234375 c 260
 153.522460938 548.057617188 278.180664062 676.361328125 432 676.361328125 c 260
 585.819335938 676.361328125 710.477539062 548.057617188 710.477539062 389.865234375 c 260
666.760742188 388.5546875 m 260
 666.760742188 520.799804688 562.1953125 628.44140625 432 628.44140625 c 260
 301.8046875 628.44140625 197.239257812 520.799804688 197.239257812 388.5546875 c 260
 197.239257812 255.284179688 301.8046875 147.642578125 432 147.642578125 c 260
 562.1953125 147.642578125 666.760742188 255.284179688 666.760742188 388.5546875 c 260
EndSplineSet
EndChar

StartChar: copyright
Encoding: 169 169 311
Width: 864
VWidth: 0
Flags: HW
LayerCount: 2
Fore
SplineSet
493.25 205.623046875 m 257
 487.904296875 205.086914062 482.483398438 204.8125 477 204.8125 c 256
 387.625 204.8125 315.75 276.6875 315.75 365.4375 c 256
 315.75 454.8125 387.625 526.6875 477 526.6875 c 256
 482.483398438 526.6875 487.904296875 526.413085938 493.25 525.876953125 c 257
 493.25 430.353515625 l 257
 488.045898438 431.634765625 482.6015625 432.3125 477 432.3125 c 256
 439.5 432.3125 410.125 402.9375 410.125 365.4375 c 256
 410.125 328.5625 439.5 299.1875 477 299.1875 c 256
 482.6015625 299.1875 488.045898438 299.865234375 493.25 301.145507812 c 257
 493.25 205.623046875 l 257
780.096679688 389.95703125 m 256
 780.096679688 191.302734375 624.274414062 30.923828125 432 30.923828125 c 256
 239.725585938 30.923828125 83.9033203125 191.302734375 83.9033203125 389.95703125 c 256
 83.9033203125 587.697265625 239.725585938 748.076171875 432 748.076171875 c 256
 624.274414062 748.076171875 780.096679688 587.697265625 780.096679688 389.95703125 c 256
725.451171875 388.318359375 m 256
 725.451171875 553.625 594.744140625 688.176757812 432 688.176757812 c 256
 269.255859375 688.176757812 138.548828125 553.625 138.548828125 388.318359375 c 256
 138.548828125 221.73046875 269.255859375 87.177734375 432 87.177734375 c 256
 594.744140625 87.177734375 725.451171875 221.73046875 725.451171875 388.318359375 c 256
EndSplineSet
EndChar

StartChar: brokenbar
Encoding: 166 166 312
Width: 252
VWidth: 0
Flags: HW
HStem: 8 21G<50 202> 502 20G<50 202> 640 142<50 202>
VStem: 50 152<8 522 640 782>
LayerCount: 2
Fore
SplineSet
202 380 m 257
 202 -20 l 257
 50 -20 l 257
 50 380 l 257
 202 380 l 257
202 843 m 257
 202 469 l 257
 50 469 l 257
 50 843 l 257
 202 843 l 257
EndSplineSet
EndChar

StartChar: section
Encoding: 167 167 313
Width: 512
VWidth: 0
Flags: HW
LayerCount: 2
Fore
SplineSet
-25 118 m 261
 50 243 l 261
 56 238 62 233 72 228 c 260
 123 198 187 215 217 263 c 260
 249 319 199 367 147 376 c 261
 21 444 -63 559 21 700 c 260
 91 816 248 855 373 788 c 260
 379 782 387 779 394 773 c 261
 319 648 l 261
 313 653 307 658 297 663 c 260
 246 691 182 675 152 626 c 260
 119 571 152 490 216 479 c 261
 333 416 432 331 347 191 c 260
 278 74 121 35 -4 103 c 260
 -10 109 -18 112 -25 118 c 261
55 467 m 257
 130 592 l 257
 136 587 142 582 152 577 c 256
 203 547 267 564 297 612 c 256
 329 668 279 716 227 725 c 257
 101 793 17 908 101 1049 c 256
 171 1165 328 1204 453 1137 c 256
 459 1131 467 1128 474 1122 c 257
 399 997 l 257
 393 1002 387 1007 377 1012 c 256
 326 1040 262 1024 232 975 c 256
 199 920 232 839 296 828 c 257
 413 765 512 680 427 540 c 256
 358 423 201 384 76 452 c 256
 70 458 62 461 55 467 c 257
EndSplineSet
EndChar

StartChar: paragraph
Encoding: 182 182 314
Width: 776
VWidth: 0
Flags: HW
HStem: 275 151<243.471 332> 639 150<243.591 331.625>
VStem: 332 152<13 276 426.026 638.974> 50 151<468.471 596.934>
LayerCount: 2
Fore
SplineSet
550 784 m 257
 702 784 l 257
 702 8 l 257
 550 8 l 257
 550 784 l 257
332 13 m 257
 332 276 l 257
 324 275 316 275 308 275 c 256
 165 275 50 390 50 533 c 256
 50 675 165 790 308 790 c 256
 316 790 324 790 332 789 c 257
 484 789 l 257
 484 13 l 257
 332 13 l 257
EndSplineSet
EndChar

StartChar: Thorn
Encoding: 222 222 315
Width: 512
VWidth: 0
Flags: HW
HStem: -192 21G<50 202> 5 151<202 290.529> 369 150<202.375 290.409>
VStem: 50 152<-192 6 156.026 368.974> 333 151<198.471 326.934>
LayerCount: 2
Fore
SplineSet
202 13 m 261
 50 13 l 261
 50 913 l 261
 197 913 l 5
 202 724 l 261
 210 725 218 725 226 725 c 260
 369 725 484 610 484 468 c 260
 484 325 369 210 226 210 c 260
 218 210 210 210 202 211 c 261
 202 13 l 261
202 571 m 261
 202 364 l 261
 210 362 218 361 226 361 c 260
 286 361 333 408 333 468 c 260
 333 527 286 574 226 574 c 260
 218 574 210 573 202 571 c 261
EndSplineSet
EndChar

StartChar: germandbls
Encoding: 223 223 316
Width: 771
VWidth: 0
Flags: HW
LayerCount: 2
Fore
SplineSet
238.615234375 57 m 1
 305.615234375 169 l 1
 311.615234375 163 318.615234375 160 327.615234375 157 c 0
 380.615234375 133 424.615234375 141 450.615234375 172 c 0
 479.615234375 206 428.615234375 212 374.615234375 221 c 1
 246.615234375 272 175.615234375 355 250.615234375 444 c 0
 311.99609375 518.046875 356.811523438 608.086914062 481.775390625 559.022460938 c 0
 482.515625 559.0078125 483.256835938 559 484 559 c 0
 544 559 591 606 591 666 c 0
 591 730.255859375 215.541992188 742.190429688 173 693 c 1
 173 12 l 1
 6 12 l 1
 9 694 l 1
 25 749.333007812 55.3330078125 794.333007812 100 829 c 0
 239.345703125 937.1484375 742 866.984375 742 666 c 0
 742 293.000976562 540.864257812 547.412109375 425.615234375 410 c 0
 395.615234375 375 392.615234375 296 456.615234375 285 c 1
 575.615234375 235 678.615234375 174 602.615234375 85 c 0
 540.615234375 9 387.615234375 -11 260.615234375 44 c 0
 253.615234375 46 246.615234375 51 238.615234375 57 c 1
EndSplineSet
EndChar

StartChar: thorn
Encoding: 254 254 317
Width: 512
VWidth: 0
Flags: HW
HStem: -192 21G<50 202> 5 151<202 290.529> 369 150<202.375 290.409>
VStem: 50 152<-192 6 156.026 368.974> 333 151<198.471 326.934>
LayerCount: 2
Fore
SplineSet
202 -189 m 261
 50 -189 l 261
 50 711 l 261
 197 711 l 5
 202 522 l 261
 210 523 218 523 226 523 c 260
 369 523 484 408 484 266 c 260
 484 123 369 8 226 8 c 260
 218 8 210 8 202 9 c 261
 202 -189 l 261
202 369 m 261
 202 162 l 261
 210 160 218 159 226 159 c 260
 286 159 333 206 333 266 c 260
 333 325 286 372 226 372 c 260
 218 372 210 371 202 369 c 261
EndSplineSet
EndChar

StartChar: AE
Encoding: 198 198 318
Width: 1024
VWidth: 0
Flags: HW
HStem: 7 152<558 973> 343 152<558 865> 636 152<558 973>
VStem: 406 568<7 159 636 788> 406 152<159 343 495 636>
LayerCount: 2
Fore
SplineSet
406.827148438 377 m 257
 341.200195312 545.223632812 l 257
 297.448242188 377 l 257
 406.827148438 377 l 257
865 495 m 1
 866 343 l 1
 558 343 l 1
 558 159 l 1
 973 159 l 1
 974 7 l 1
 407 7 l 1
 406.993164062 8 l 1
 406 8 l 1
 406 237 l 1
 261.038085938 237 l 1
 202 10 l 1
 50 10 l 1
 250 788 l 1
 973 788 l 1
 974 636 l 1
 558 636 l 1
 558 495 l 1
 865 495 l 1
EndSplineSet
EndChar

StartChar: Eth
Encoding: 208 208 319
Width: 690
VWidth: 0
Flags: HW
HStem: -3.9789 157.014<262 347.489> 621.965 161.035<262 353.477>
VStem: 110 152<-4 -3.9789 153.035 621.965> 487 153<292.064 485.736>
LayerCount: 2
Fore
SplineSet
262 153.03515625 m 1
 387.134765625 155.211914062 487 259.368164062 487 388 c 0
 487 515.642578125 387.134765625 619.788085938 262 621.96484375 c 1
 262 506 l 1
 321 506 l 1
 321 354 l 1
 262 354 l 1
 262 153.03515625 l 1
110 778 m 1
 159.62109375 770.911132812 208.3828125 783 258 783 c 0
 469 783 640 607 640 390 c 0
 640 173.37890625 471.157226562 -1.771484375 262 -3.978515625 c 2
 110 -4 l 1
 110 354 l 1
 50 354 l 1
 50 506 l 1
 110 506 l 1
 110 778 l 1
EndSplineSet
EndChar

StartChar: Oslash
Encoding: 216 216 320
Width: 864
VWidth: 0
Flags: HW
HStem: -4 157<337.027 526.973> 622 161<337.027 526.973>
VStem: 50 153<288.712 488.774> 661 153<288.712 488.774>
LayerCount: 2
Fore
SplineSet
814 390 m 0
 814 172 643 -4 432 -4 c 0
 383.677734375 -4 337.452148438 5.2314453125 294.899414062 22.0830078125 c 1
 240 -73 l 1
 134 -12 l 1
 190.001953125 84.9931640625 l 1
 104.53125 157.181640625 50 266.893554688 50 390 c 0
 50 607 221 783 432 783 c 0
 483.051757812 783 531.76171875 772.697265625 576.275390625 754.002929688 c 1
 619 828 l 1
 725 767 l 1
 679.946289062 688.96875 l 1
 761.991210938 616.87890625 814 509.674804688 814 390 c 0
494.91796875 613.094726562 m 1
 474.9453125 618.89453125 453.842773438 622 432 622 c 0
 305 622 203 517 203 388 c 0
 203 323.299804688 228.265625 264.791992188 269.302734375 222.33984375 c 1
 494.91796875 613.094726562 l 1
598.806640625 548.438476562 m 1
 374.731445312 160.348632812 l 1
 393.01953125 155.55078125 412.206054688 153 432 153 c 0
 559 153 661 258 661 388 c 0
 661 450.03125 637.415039062 506.51171875 598.806640625 548.438476562 c 1
EndSplineSet
EndChar

StartChar: ae
Encoding: 230 230 321
Width: 905
VWidth: 0
Flags: HW
HStem: 13 151<531.073 844.239> 215.32 128.941<518.301 675.264> 377 151<530.682 660.767>
VStem: 338 517<218.188 340.811>
LayerCount: 2
Fore
SplineSet
502.680664062 306.67578125 m 257
 694.883789062 304.1015625 l 257
 670.395507812 330.966796875 635.046875 385.099609375 595.8046875 385.099609375 c 256
 557.188476562 385.099609375 526.879882812 332.025390625 502.680664062 306.67578125 c 257
332 379 m 257
 324 381 316 382 308 382 c 256
 248 382 201 335 201 276 c 256
 201 216 248 169 308 169 c 256
 316 169 324 170 332 172 c 257
 332 379 l 257
854 270 m 0
 854 251.328125 855 233 855 218 c 1
 507.985351562 215.3203125 l 1
 526.489257812 184.45703125 556.416015625 164 596 164 c 0
 610.516601562 164 832 167 845 172 c 1
 845 16 l 1
 832 14 609.946289062 13 596 13 c 0
 563.931640625 13 533.271484375 18.783203125 505 29.357421875 c 5
 332 11 l 5
 332 19 l 1
 324 18 316 18 308 18 c 0
 165 18 50 133 50 276 c 0
 50 418 165 525 308 525 c 0
 316 525 324 525 332 524 c 2
 505 524 l 1
 596 528 l 0
 738 528 854 413 854 270 c 0
EndSplineSet
EndChar

StartChar: eth
Encoding: 240 240 322
Width: 612
VWidth: 0
Flags: HW
HStem: 13 151<242.454 332> 377 151<243.471 332>
VStem: 50 151<206.066 334.529> 332 152<14 14.1035 164.011 376.989 526.896 790>
LayerCount: 2
Fore
SplineSet
309.955078125 376.982421875 m 256
 301.641601562 376.842773438 293.393554688 375.848632812 286 374 c 257
 286 374.828125 l 257
 236.8984375 364.9453125 201 322.4375 201 270 c 256
 201 218.436523438 236.8984375 176.0390625 286 166.169921875 c 257
 286 167 l 257
 293.393554688 165.151367188 301.641601562 164.157226562 309.955078125 164.017578125 c 257
 318.23046875 164.163085938 326.280273438 165.234375 334 167.131835938 c 257
 334 166.169921875 l 257
 383.1015625 176.0390625 419 218.436523438 419 270 c 256
 419 322.4375 383.1015625 364.9453125 334 374.828125 c 257
 334 373.864257812 l 257
 326.280273438 375.765625 318.23046875 376.836914062 309.955078125 376.982421875 c 256
135 790 m 1
 287 790 l 1
 291.977539062 785.721679688 296.989257812 781.3984375 302.025390625 777.025390625 c 1
 340 815 l 1
 427 739 l 1
 386.727539062 698.727539062 l 1
 530.248046875 554.008789062 645.58203125 352.99609375 484 14 c 1
 332 14 l 1
 332 14.103515625 l 1
 324.095703125 13.373046875 316.08984375 13 308 13 c 0
 165 13 50 128 50 270 c 0
 50 413 165 528 308 528 c 0
 316.08984375 528 324.095703125 527.626953125 332 526.896484375 c 1
 281.860351562 593.860351562 l 1
 245 557 l 1
 158 633 l 1
 212.069335938 687.069335938 l 1
 135 790 l 1
EndSplineSet
EndChar

StartChar: divide
Encoding: 247 247 323
Width: 644
VWidth: 0
Flags: HW
HStem: 8 142<50 202> 408 142<50 202>
VStem: 50 152<8 150 408 550>
LayerCount: 2
Fore
SplineSet
594 506 m 257
 594 354 l 257
 50 354 l 257
 50 506 l 257
 594 506 l 257
250 561 m 261
 250 703 l 261
 402 703 l 261
 402 561 l 261
 250 561 l 261
250 161 m 261
 250 303 l 261
 402 303 l 261
 402 161 l 261
 250 161 l 261
EndSplineSet
EndChar

StartChar: oslash
Encoding: 248 248 324
Width: 616
VWidth: 0
Flags: HW
HStem: 13 21G<307.408 308.151 311.478 383.5> 508 20G<307.408 308.151 311.478 383.5>
VStem: 50 151<207.14 333.449> 419 151<205.844 334.753>
LayerCount: 2
Fore
SplineSet
50 270 m 0
 50 410.959960938 161.197265625 528 308 528 c 0
 308.301757812 528 308.603515625 527.999023438 308.905273438 527.998046875 c 0
 309.92578125 528 310.956054688 528 312 528 c 0
 338.643554688 528 364.315429688 524.0078125 388.452148438 516.5859375 c 1
 458 635 l 1
 564 574 l 1
 493.41796875 453.82421875 l 1
 540.752929688 407.109375 570 342.115234375 570 270 c 0
 570 128 455 13 312 13 c 0
 310.956054688 13 309.92578125 13.001953125 308.90625 13.001953125 c 0
 308.603515625 13.001953125 308.301757812 13 308 13 c 0
 282.426757812 13 261.399414062 16.169921875 239.807617188 22.0205078125 c 1
 184 -73 l 1
 78 -12 l 1
 132.735351562 81.1943359375 l 1
 81.7939453125 128.135742188 50 195.3359375 50 270 c 0
306.393554688 376.870117188 m 1
 299.299804688 376.541015625 292.3359375 375.583984375 286 374 c 1
 286 374.828125 l 1
 236.8984375 364.9453125 201 322.4375 201 270 c 0
 201 251.526367188 205.607421875 234.229492188 213.780273438 219.182617188 c 1
 306.393554688 376.870117188 l 1
323.872070312 165.151367188 m 1
 327.303710938 165.653320312 330.682617188 166.31640625 334 167.131835938 c 1
 334 166.169921875 l 1
 383.1015625 176.0390625 419 218.436523438 419 270 c 0
 419 285.224609375 415.973632812 299.612304688 410.477539062 312.607421875 c 1
 323.872070312 165.151367188 l 1
EndSplineSet
EndChar

StartChar: dcaron
Encoding: 271 271 326
Width: 710
VWidth: 0
Flags: HW
HStem: 13 151<242.454 332> 377 151<243.471 332>
VStem: 50 151<206.066 334.529> 332 152<14 14.1035 164.011 376.989 526.896 790>
LayerCount: 2
Fore
SplineSet
516 542 m 261
 516 799 l 261
 668 799 l 261
 623 542 l 261
 516 542 l 261
332 790 m 257
 484 790 l 257
 484 14 l 257
 332 14 l 257
 332 14.103515625 l 257
 324.095703125 13.373046875 316.08984375 13 308 13 c 256
 165 13 50 128 50 270 c 256
 50 413 165 528 308 528 c 256
 316.08984375 528 324.095703125 527.626953125 332 526.896484375 c 257
 332 790 l 257
332 166.66015625 m 257
 332 374.336914062 l 257
 324.282226562 376.081054688 316.249023438 377 308 377 c 256
 248 377 201 330 201 270 c 256
 201 211 248 164 308 164 c 256
 316.249023438 164 324.282226562 164.918945312 332 166.66015625 c 257
EndSplineSet
EndChar

StartChar: dcroat
Encoding: 273 273 327
Width: 585
VWidth: 0
Flags: HW
HStem: 13 151<242.454 332> 377 151<243.471 332>
VStem: 50 151<206.066 334.529> 332 152<14 14.1035 164.011 376.989 526.896 790>
LayerCount: 2
Fore
SplineSet
535 749 m 257
 535 597 l 257
 264 597 l 257
 264 749 l 257
 535 749 l 257
332 790 m 257
 484 790 l 257
 484 14 l 257
 332 14 l 257
 332 14.103515625 l 257
 324.095703125 13.373046875 316.08984375 13 308 13 c 256
 165 13 50 128 50 270 c 256
 50 413 165 528 308 528 c 256
 316.08984375 528 324.095703125 527.626953125 332 526.896484375 c 257
 332 790 l 257
332 166.66015625 m 257
 332 374.336914062 l 257
 324.282226562 376.081054688 316.249023438 377 308 377 c 256
 248 377 201 330 201 270 c 256
 201 211 248 164 308 164 c 256
 316.249023438 164 324.282226562 164.918945312 332 166.66015625 c 257
EndSplineSet
EndChar

StartChar: Hbar
Encoding: 294 294 328
Width: 652
VWidth: 0
Flags: HW
HStem: 8 21G<50 202 450 602> 343 152<202 450> 764 20G<50 202 450 602>
VStem: 50 152<8 343 495 784> 450 152<8 343 495 784>
LayerCount: 2
Fore
SplineSet
450 784 m 1
 602 784 l 1
 602 723 l 1
 647 723 l 1
 647 571 l 1
 602 571 l 1
 602 8 l 1
 450 8 l 1
 450 343 l 1
 202 343 l 1
 202 8 l 1
 50 8 l 1
 50 571 l 1
 0 571 l 1
 0 723 l 1
 50 723 l 1
 50 784 l 1
 202 784 l 1
 202 723 l 1
 450 723 l 1
 450 784 l 1
202 571 m 1
 202 495 l 1
 450 495 l 1
 450 571 l 1
 202 571 l 1
EndSplineSet
EndChar

StartChar: hbar
Encoding: 295 295 329
Width: 658
VWidth: 0
Flags: HW
HStem: 654 152<61 605>
LayerCount: 2
Fore
SplineSet
111 778 m 257
 280 778 l 257
 280 522 l 257
 306 530 332 534 360 534 c 256
 478 534 574 456 605 347 c 257
 608 16 l 257
 441 16 l 257
 441 346 l 257
 421 369 393 383 360 383 c 256
 328 383 300 370 280 348 c 257
 280 16 l 257
 111 16 l 257
 111 778 l 257
338 741 m 257
 338 589 l 257
 50 589 l 257
 50 741 l 257
 338 741 l 257
EndSplineSet
EndChar

StartChar: lcaron
Encoding: 318 318 332
Width: 419
VWidth: 0
Flags: HW
HStem: 7 151<233.008 363.885> 751 20G<50 217>
VStem: 53 164<176.215 771>
LayerCount: 2
Fore
SplineSet
260 514 m 261
 260 771 l 261
 412 771 l 261
 367 514 l 261
 260 514 l 261
369 16 m 257
 346.333007812 10 322.666992188 7 298 7 c 0
 240 7 188.666992188 24.3330078125 144 59 c 0
 99.3330078125 93.6669921875 69 138.666992188 53 194 c 257
 50 771 l 257
 217 771 l 257
 217 195 l 1
 238.333007812 170.333007812 265.333007812 158 298 158 c 0
 324.666992188 158 348.333007812 166.666992188 369 184 c 257
 369 16 l 257
EndSplineSet
EndChar

StartChar: Lslash
Encoding: 321 321 333
Width: 718
VWidth: 0
Flags: HW
HStem: 7 152<202 667> 764 20G<50 202>
VStem: 50 152<159 784>
LayerCount: 2
Fore
SplineSet
50 784 m 261
 202 784 l 261
 202 159 l 261
 667 159 l 261
 668 7 l 261
 51 7 l 261
 50.9931640625 8 l 261
 50 8 l 261
 50 784 l 261
EndSplineSet
EndChar

StartChar: Lcaron
Encoding: 317 317 334
Width: 718
VWidth: 0
Flags: HW
HStem: 7 152<202 667> 764 20G<50 202>
VStem: 50 152<159 784>
LayerCount: 2
Fore
SplineSet
252 530 m 257
 252 787 l 257
 404 787 l 257
 359 530 l 257
 252 530 l 257
50 784 m 257
 202 784 l 257
 202 159 l 257
 667 159 l 257
 668 7 l 257
 51 7 l 257
 50.9931640625 8 l 257
 50 8 l 257
 50 784 l 257
EndSplineSet
EndChar

StartChar: lslash
Encoding: 322 322 335
Width: 419
VWidth: 0
Flags: HW
HStem: 7 151<233.008 363.885> 751 20G<50 217>
VStem: 53 164<176.215 771>
LayerCount: 2
Fore
SplineSet
369 16 m 257
 346.333007812 10 322.666992188 7 298 7 c 0
 240 7 188.666992188 24.3330078125 144 59 c 0
 99.3330078125 93.6669921875 69 138.666992188 53 194 c 257
 50 771 l 257
 217 771 l 257
 217 195 l 1
 238.333007812 170.333007812 265.333007812 158 298 158 c 0
 324.666992188 158 348.333007812 166.666992188 369 184 c 257
 369 16 l 257
EndSplineSet
EndChar

StartChar: OE
Encoding: 338 338 336
Width: 1068
VWidth: 0
Flags: HW
HStem: 7 152<602 1017> 343 152<602 909> 636 152<602 1017>
VStem: 450 568<7 159 636 788> 450 152<159 343 495 636>
LayerCount: 2
Fore
SplineSet
909 495 m 1
 910 343 l 1
 602 343 l 1
 602 159 l 1
 1017 159 l 1
 1018 7 l 1
 505 7 l 1
 505 3.169921875 l 1
 481.37109375 -1.5361328125 456.965820312 -4 432 -4 c 0
 221 -4 50 172 50 390 c 0
 50 607 221 783 432 783 c 0
 438.034179688 783 444.03515625 782.856445312 450 782.571289062 c 1
 450 784 l 1
 450 788 l 1
 1017 788 l 1
 1018 636 l 1
 602 636 l 1
 602 495 l 1
 909 495 l 1
432 622 m 0
 305 622 203 517 203 388 c 0
 203 258 305 153 432 153 c 0
 438.059570312 153 444.0625 153.239257812 450 153.708007812 c 1
 450 621.291992188 l 1
 444.0625 621.760742188 438.059570312 622 432 622 c 0
EndSplineSet
EndChar

StartChar: oe
Encoding: 339 339 337
Width: 1000
VWidth: 0
Flags: HW
LayerCount: 2
Fore
SplineSet
309.955078125 376.982421875 m 256
 301.641601562 376.842773438 293.393554688 375.848632812 286 374 c 257
 286 374.828125 l 257
 236.8984375 364.9453125 201 322.4375 201 270 c 256
 201 218.436523438 236.8984375 176.0390625 286 166.169921875 c 257
 286 167 l 257
 293.393554688 165.151367188 301.641601562 164.157226562 309.955078125 164.017578125 c 257
 318.23046875 164.163085938 326.280273438 165.234375 334 167.131835938 c 257
 334 166.169921875 l 257
 383.1015625 176.0390625 419 218.436523438 419 270 c 256
 419 322.4375 383.1015625 364.9453125 334 374.828125 c 257
 334 373.864257812 l 257
 326.280273438 375.765625 318.23046875 376.836914062 309.955078125 376.982421875 c 256
592.680664062 306.67578125 m 257
 788.883789062 304.1015625 l 257
 764.395507812 330.966796875 729.046875 385.099609375 689.8046875 385.099609375 c 256
 651.188476562 385.099609375 616.879882812 332.025390625 592.680664062 306.67578125 c 257
308.90625 13.001953125 m 0
 308.603515625 13.001953125 308.301757812 13 308 13 c 0
 306.815429688 13 305.631835938 13.0078125 304.451171875 13.0234375 c 0
 299.662109375 13.0693359375 295.004882812 13.205078125 290.133789062 13.6025390625 c 0
 155.541992188 22.708984375 50 133.96484375 50 270 c 0
 50 406.991210938 155.5390625 518.286132812 290.12890625 527.397460938 c 0
 295.001953125 527.794921875 299.66015625 527.930664062 304.451171875 527.9765625 c 0
 305.631835938 527.9921875 306.815429688 528 308 528 c 0
 308.301757812 528 308.603515625 527.999023438 308.905273438 527.998046875 c 0
 309.92578125 528 310.956054688 528 312 528 c 0
 386.818359375 528 453.971679688 496.51953125 501 446.018554688 c 1
 548.028320312 496.51953125 615.181640625 528 690 528 c 0
 832 528 948 413 948 270 c 0
 948 251.328125 949 233 949 218 c 1
 597.985351562 215.3203125 l 1
 616.489257812 184.45703125 650.416015625 164 690 164 c 0
 704.516601562 164 926 167 939 172 c 1
 939 16 l 1
 926 14 703.946289062 13 690 13 c 0
 615.181640625 13 548.028320312 44.48046875 501 94.837890625 c 1
 453.971679688 44.48046875 386.818359375 13 312 13 c 0
 310.956054688 13 309.92578125 13.001953125 308.90625 13.001953125 c 0
EndSplineSet
EndChar

StartChar: tcaron
Encoding: 357 357 338
Width: 630
VWidth: 0
Flags: HW
HStem: 7 151<328.285 459.024> 374 152<50 146.274 312 409> 751 20G<145 312>
VStem: 146.274 165.726<178.881 374 526 771>
LayerCount: 2
Fore
SplineSet
441 514 m 257
 441 771 l 257
 593 771 l 257
 548 514 l 257
 441 514 l 257
464 16 m 257
 441 10 418 7 393 7 c 256
 275 7 179 85 148 194 c 257
 147.064453125 374 l 257
 50 374 l 257
 50 526 l 257
 146.2734375 526 l 257
 145 771 l 257
 312 771 l 257
 312 526 l 257
 409 526 l 257
 409 374 l 257
 312 374 l 257
 312 195 l 257
 332 172 360 158 393 158 c 256
 420 158 445 168 464 184 c 257
 464 16 l 257
EndSplineSet
EndChar

StartChar: uni0237
Encoding: 567 567 343
Width: 419
VWidth: 0
Flags: HW
HStem: -194 151<55.4451 185.159> 507 20G<202 369> 640 142<214 366>
VStem: 202 164<-22.1189 527> 214 152<640 782>
LayerCount: 2
Fore
SplineSet
50 -185 m 257xf0
 50 -17 l 257
 69 -33 94 -43 121 -43 c 256
 154 -43 182 -29 202 -6 c 257
 202 527 l 257
 369 527 l 257
 366 -7 l 257
 335 -116 239 -194 121 -194 c 256
 96 -194 73 -191 50 -185 c 257xf0
EndSplineSet
EndChar

StartChar: uni1E9E
Encoding: 7838 7838 359
Width: 771
VWidth: 0
Flags: HW
LayerCount: 2
Fore
SplineSet
238.615234375 57 m 1
 305.615234375 169 l 1
 311.615234375 163 318.615234375 160 327.615234375 157 c 0
 380.615234375 133 424.615234375 141 450.615234375 172 c 0
 479.615234375 206 428.615234375 212 374.615234375 221 c 1
 246.615234375 272 175.615234375 450 250.615234375 539 c 4
 311.99609375 613.046875 356.811523438 703.086914062 481.775390625 654.022460938 c 4
 482.515625 654.0078125 483.256835938 654 484 654 c 4
 544 654 591 606 591 666 c 0
 591 730.255859375 215.541992188 742.190429688 173 693 c 1
 173 12 l 1
 6 12 l 1
 9 694 l 1
 25 749.333007812 55.3330078125 794.333007812 100 829 c 0
 239.345703125 937.1484375 742 866.984375 742 666 c 0
 742 293.000976562 540.864257812 642.412109375 425.615234375 505 c 4
 395.615234375 470 392.615234375 391 456.615234375 380 c 5
 575.615234375 330 678.615234375 174 602.615234375 85 c 0
 540.615234375 9 387.615234375 -11 260.615234375 44 c 0
 253.615234375 46 246.615234375 51 238.615234375 57 c 1
EndSplineSet
EndChar

StartChar: uni0982
Encoding: 2434 2434 365
Width: 445
VWidth: 0
Flags: HW
HStem: 92 75<498.188 521.812> 274 75<498.188 521.812> 493 75<193.188 216.812> 675 75<193.188 216.812>
VStem: 75 76<578.334 664.111> 259 76<578.933 663.698> 380 76<177.334 263.111> 564 76<177.933 262.698>
LayerCount: 2
Fore
SplineSet
204 493 m 260
 203 493 203 493 202 493 c 260
 200 493 197 493 195 493 c 260
 128 498 75 553 75 621 c 260
 75 689 128 745 195 750 c 260
 197 750 200 750 202 750 c 260
 203 750 203 750 204 750 c 260
 205 750 205 750 206 750 c 260
 278 750 335 693 335 621 c 260
 335 550 278 493 206 493 c 260
 205 493 205 493 204 493 c 260
205 675 m 260
 201 675 197 674 193 673 c 261
 193 674 l 261
 168 669 151 647 151 621 c 260
 151 595 168 574 193 569 c 261
 193 570 l 261
 197 569 201 568 205 568 c 261
 209 568 213 569 217 570 c 261
 217 569 l 261
 242 574 259 595 259 621 c 260
 259 647 242 669 217 674 c 261
 217 673 l 261
 213 674 209 675 205 675 c 260
158 437 m 257
 391 79 l 257
 285 18 l 257
 52 376 l 257
 158 437 l 257
EndSplineSet
EndChar

StartChar: uni0983
Encoding: 2435 2435 366
Width: 445
VWidth: 0
Flags: HW
LayerCount: 2
Fore
SplineSet
204 93 m 256
 203 93 203 93 202 93 c 256
 200 93 197 93 195 93 c 256
 128 98 75 153 75 221 c 256
 75 289 128 345 195 350 c 256
 197 350 200 350 202 350 c 256
 203 350 203 350 204 350 c 256
 205 350 205 350 206 350 c 256
 278 350 335 293 335 221 c 256
 335 150 278 93 206 93 c 256
 205 93 205 93 204 93 c 256
205 275 m 256
 201 275 197 274 193 273 c 257
 193 274 l 257
 168 269 151 247 151 221 c 256
 151 195 168 174 193 169 c 257
 193 170 l 257
 197 169 201 168 205 168 c 257
 209 168 213 169 217 170 c 257
 217 169 l 257
 242 174 259 195 259 221 c 256
 259 247 242 269 217 274 c 257
 217 273 l 257
 213 274 209 275 205 275 c 256
204 493 m 256
 203 493 203 493 202 493 c 256
 200 493 197 493 195 493 c 256
 128 498 75 553 75 621 c 256
 75 689 128 745 195 750 c 256
 197 750 200 750 202 750 c 256
 203 750 203 750 204 750 c 256
 205 750 205 750 206 750 c 256
 278 750 335 693 335 621 c 256
 335 550 278 493 206 493 c 256
 205 493 205 493 204 493 c 256
205 675 m 256
 201 675 197 674 193 673 c 257
 193 674 l 257
 168 669 151 647 151 621 c 256
 151 595 168 574 193 569 c 257
 193 570 l 257
 197 569 201 568 205 568 c 257
 209 568 213 569 217 570 c 257
 217 569 l 257
 242 574 259 595 259 621 c 256
 259 647 242 669 217 674 c 257
 217 673 l 257
 213 674 209 675 205 675 c 256
EndSplineSet
EndChar

StartChar: uni098A
Encoding: 2442 2442 367
Width: 612
VWidth: 0
Flags: HW
HStem: 13.002 151.016<238.473 368.671> 376 151.998<304 436> 681 132<-5 436 543.755 611>
LayerCount: 2
Fore
SplineSet
299.301757812 731.96875 m 257
 299.301757812 731.96875 308.494140625 835.913085938 260 885 c 24
 228.591796875 915.81640625 227.884765625 916.5234375 196.771484375 947.635742188 c 24
 150.102539062 994.3046875 91.4130859375 975.212890625 44.7431640625 1021.88183594 c 24
 9.388671875 1057.23730469 3.7314453125 1142.09082031 3.7314453125 1142.09082031 c 257
 92.1201171875 1230.47851562 l 257
 92.1201171875 1230.47851562 99.8984375 1143.50488281 135.959960938 1107.44238281 c 24
 181.21484375 1062.1875 238.491210938 1084.10742188 283.74609375 1038.85253906 c 24
 317.686523438 1004.91210938 320.515625 1002.08300781 354.456054688 968.142578125 c 16
 404.484375 918.114257812 385.005859375 820.403320312 387.690429688 820.356445312 c 257
 299.301757812 731.96875 l 257
304 761 m 257
 436 761 l 257
 436 376 l 257
 304 376 l 257
 304 761 l 257
611 813 m 257
 611 681 l 257
 -5 681 l 257
 -5 813 l 257
 611 813 l 257
305.771484375 376.965820312 m 9
 305.771484375 376.965820312 305 527.998046875 303.905273438 527.998046875 c 257
 449.046875 527.998046875 568.453125 414.859375 565 270 c 256
 561.541015625 124.885742188 447.287109375 12.7998046875 303.90625 13.001953125 c 256
 134.0390625 13.240234375 50.1650390625 141.7890625 51.0009765625 271 c 9
 196.00390625 271 l 1
 196.000976562 270.666992188 196 270.333984375 196 270 c 256
 196 209.8828125 241.772460938 165.08203125 304.955078125 164.017578125 c 256
 367.911132812 165.126953125 414 209.63671875 414 270 c 256
 414 331.015625 368.461914062 375.484375 305.771484375 376.965820312 c 9
EndSplineSet
EndChar

StartChar: uni0990
Encoding: 2448 2448 368
Width: 956
VWidth: 0
Flags: HW
HStem: 620 151<310.445 440.159>
VStem: 2.5 151<192.508 322.889>
LayerCount: 2
Fore
SplineSet
592 460 m 1
 592 460 678 423 736 424 c 0
 758 424 770 442 775 463 c 0
 800.106445312 572.842773438 738.099609375 693.875976562 662.560546875 769.412109375 c 0
 615.891601562 816.081054688 557.202148438 796.989257812 510.532226562 843.658203125 c 0
 475.177734375 879.013671875 469.520507812 963.8671875 469.520507812 963.8671875 c 1
 557.909179688 1052.25488281 l 1
 557.909179688 1052.25488281 565.6875 965.28125 601.749023438 929.21875 c 0
 647.00390625 883.963867188 704.280273438 905.883789062 749.53515625 860.62890625 c 0
 783.475585938 826.688476562 786.3046875 823.859375 820.245117188 789.918945312 c 0
 870.1328125 740.03125 983.61328125 417.951171875 847 352 c 0
 802 331 773 322 724 322 c 0
 670 322 589 352 589 352 c 1
 592 460 l 1
11.5 328.5 m 257
 179.5 328.5 l 257
 162.166992188 307.833007812 153.5 284.166992188 153.5 257.5 c 0
 153.5 224.833007812 165.833007812 197.833007812 190.5 176.5 c 1
 554.5 176.5 l 257
 554.5 9.5 l 257
 189.5 12.5 l 257
 134.166992188 28.5 89.1669921875 58.8330078125 54.5 103.5 c 0
 19.8330078125 148.166992188 2.5 199.5 2.5 257.5 c 0
 2.5 282.166992188 5.5 305.833007812 11.5 328.5 c 257
305 762 m 1
 328 768 351 771 376 771 c 0
 494 771 590 693 621 584 c 1
 624 7 l 1
 457 7 l 1
 457 583 l 1
 437 606 409 620 376 620 c 0
 349 620 324 610 305 594 c 1
 305 762 l 1
EndSplineSet
EndChar

StartChar: uni0994
Encoding: 2452 2452 369
Width: 616
VWidth: 0
Flags: HW
HStem: 13.002 151.016<238.473 368.671> 376 151.998<304 436> 681 132<-5 436 543.755 611>
LayerCount: 2
Fore
SplineSet
518 460 m 1
 518 460 604 423 662 424 c 0
 684 424 696 442 701 463 c 0
 726.106445312 572.842773438 664.099609375 693.875976562 588.560546875 769.412109375 c 0
 541.891601562 816.081054688 483.202148438 796.989257812 436.532226562 843.658203125 c 0
 401.177734375 879.013671875 395.520507812 963.8671875 395.520507812 963.8671875 c 1
 483.909179688 1052.25488281 l 1
 483.909179688 1052.25488281 491.6875 965.28125 527.749023438 929.21875 c 0
 573.00390625 883.963867188 630.280273438 905.883789062 675.53515625 860.62890625 c 0
 709.475585938 826.688476562 712.3046875 823.859375 746.245117188 789.918945312 c 0
 796.1328125 740.03125 909.61328125 417.951171875 773 352 c 0
 728 331 699 322 650 322 c 0
 596 322 515 352 515 352 c 1
 518 460 l 1
287 692 m 4
 280.208007812 691.634765625 231.076171875 687.51953125 225 686 c 5
 227.624023438 686.109375 204.358398438 770.163085938 207 770 c 4
 218.190429688 769.309570312 279.141601562 810.811523438 331 818 c 4
 474.5234375 837.895507812 572.978515625 727.309570312 570 575 c 4
 568.88671875 518.077148438 551.513671875 465.473632812 520.147460938 422.892578125 c 5
 551.513671875 380.16796875 570 327.333984375 570 270 c 4
 570 128 455 13 312 13 c 4
 310.956054688 13 309.92578125 13.001953125 308.90625 13.001953125 c 4
 308.603515625 13.001953125 308.301757812 13 308 13 c 4
 306.815429688 13 305.631835938 13.0078125 304.451171875 13.0234375 c 4
 299.662109375 13.0693359375 295.004882812 13.205078125 290.133789062 13.6025390625 c 4
 155.541992188 22.708984375 50 133.96484375 50 270 c 4
 50 325.204101562 67.138671875 376.235351562 96.41015625 418.088867188 c 5
 92.798828125 417.602539062 111.3359375 422.833984375 108 422 c 261
 286.961914062 372.549804688 201 414.8828125 201 270 c 260
 201 209.87890625 246.760742188 165.08203125 309.955078125 164.017578125 c 260
 372.901367188 165.126953125 419 209.640625 419 270 c 260
 419 322.4375 383.1015625 364.9453125 334 374.828125 c 261
 334 373.864257812 l 261
 309.955078125 469.017578125 l 260
 318.23046875 469.163085938 326.280273438 470.234375 334 472.131835938 c 261
 334 471.169921875 l 261
 383.1015625 481.0390625 419 523.436523438 419 575 c 260
 419 653.3203125 365.104492188 696.1953125 287 692 c 4
EndSplineSet
EndChar

StartChar: uni099E
Encoding: 2462 2462 370
Width: 821
VWidth: 0
Flags: HW
HStem: 620 151<310.445 440.159>
VStem: 2.5 151<192.508 322.889>
LayerCount: 2
Fore
SplineSet
637.5 553.75 m 0
 634.103515625 553.567382812 609.538085938 551.509765625 606.5 550.75 c 1
 607.8125 550.8046875 596.178710938 592.831054688 597.5 592.75 c 0
 603.095703125 592.405273438 633.5703125 613.155273438 659.5 616.75 c 0
 731.26171875 626.698242188 780.489257812 571.404296875 779 495.25 c 0
 778.443359375 466.7890625 769.756835938 440.486328125 754.07421875 419.196289062 c 1
 769.756835938 397.833984375 779 371.416992188 779 342.75 c 0
 779 271.75 721.5 214.25 650 214.25 c 0
 649.478515625 214.25 648.962890625 214.250976562 648.453125 214.250976562 c 0
 648.301757812 214.250976562 648.151367188 214.25 648 214.25 c 0
 647.407226562 214.25 646.81640625 214.25390625 646.225585938 214.26171875 c 0
 643.831054688 214.28515625 641.502929688 214.352539062 639.067382812 214.55078125 c 0
 571.770507812 219.104492188 519 274.732421875 519 342.75 c 0
 519 370.352539062 527.569335938 395.868164062 542.205078125 416.794921875 c 1
 540.399414062 416.55078125 549.66796875 419.166992188 548 418.75 c 257
 637.48046875 394.025390625 594.5 415.19140625 594.5 342.75 c 256
 594.5 312.689453125 617.379882812 290.291015625 648.977539062 289.758789062 c 256
 680.450195312 290.313476562 703.5 312.5703125 703.5 342.75 c 256
 703.5 368.96875 685.55078125 390.22265625 661 395.1640625 c 257
 661 394.682617188 l 257
 648.977539062 442.258789062 l 256
 653.115234375 442.33203125 657.140625 442.8671875 661 443.81640625 c 257
 661 443.334960938 l 257
 685.55078125 448.26953125 703.5 469.46875 703.5 495.25 c 256
 703.5 534.41015625 676.551757812 555.84765625 637.5 553.75 c 0
305 762 m 1
 328 768 351 771 376 771 c 0
 494 771 590 693 621 584 c 1
 624 7 l 1
 457 7 l 1
 457 583 l 1
 437 606 409 620 376 620 c 0
 349 620 324 610 305 594 c 1
 305 762 l 1
11.5 328.5 m 257
 179.5 328.5 l 257
 162.166992188 307.833007812 153.5 284.166992188 153.5 257.5 c 0
 153.5 224.833007812 165.833007812 197.833007812 190.5 176.5 c 1
 554.5 176.5 l 257
 554.5 9.5 l 257
 189.5 12.5 l 257
 134.166992188 28.5 89.1669921875 58.8330078125 54.5 103.5 c 0
 19.8330078125 148.166992188 2.5 199.5 2.5 257.5 c 0
 2.5 282.166992188 5.5 305.833007812 11.5 328.5 c 257
EndSplineSet
EndChar

StartChar: uni099D
Encoding: 2461 2461 371
Width: 944
VWidth: 0
Flags: HW
HStem: 681 132<0 524 670 723> 681 106<524 670>
VStem: 524 146<11 83.5 235.5 483.5 635.5 787> 524 57.5<83.5 235.5 483.5 483.5>
LayerCount: 2
Fore
SplineSet
673 297 m 257
 855 115 l 257
 747 8 l 257xa7
 565 190 l 257
 673 297 l 257
749 10 m 257
 749 786 l 257
 901 786 l 257x2f
 901 10 l 257
 749 10 l 257
581.5 635.5 m 257x10
 581.5 483.5 l 257
 214.5 359.5 l 257
 523.5 164.5 l 257
 523.5 12.5 l 257
 70.5 283.5 l 257
 70.5 435.5 l 257
 581.5 635.5 l 257x10
944 813 m 257x80
 944 681 l 257
 0 681 l 257
 0 813 l 257
 944 813 l 257x80
524 787 m 257x60
 670 787 l 257
 670 11 l 257
 524 11 l 257
 524 787 l 257x60
EndSplineSet
EndChar

StartChar: uni099C
Encoding: 2460 2460 372
Width: 616
VWidth: 0
Flags: HW
HStem: 13.0016 151.016<243.473 373.671> 376 151.998<309 441> 681 132<0 309 441 616> 681 80<309 441>
VStem: 309 132<527.998 761>
LayerCount: 2
Fore
SplineSet
309 761 m 257xd8
 441 761 l 257
 441 376 l 257
 309 376 l 257
 309 761 l 257xd8
616 813 m 261xe8
 616 681 l 261
 0 681 l 257
 0 813 l 257
 616 813 l 261xe8
310.771484375 376.965820312 m 9
 310.771484375 376.965820312 310 527.998046875 308.905273438 527.998046875 c 257
 454.046875 527.998046875 573.453125 414.859375 570 270 c 256
 566.541015625 124.885742188 452.287109375 12.7998046875 308.90625 13.001953125 c 256
 139.0390625 13.240234375 55.1650390625 141.7890625 56.0009765625 271 c 9
 201.00390625 271 l 1
 201.000976562 270.666992188 201 270.333984375 201 270 c 256
 201 209.8828125 246.772460938 165.08203125 309.955078125 164.017578125 c 256
 372.911132812 165.126953125 419 209.63671875 419 270 c 256
 419 331.015625 373.461914062 375.484375 310.771484375 376.965820312 c 9
EndSplineSet
EndChar

StartChar: uni09A3
Encoding: 2467 2467 373
Width: 613
VWidth: 0
Flags: HW
LayerCount: 2
Fore
SplineSet
51.2958984375 478.5 m 257
 50.4384765625 487.053710938 50 495.7265625 50 504.5 c 256
 50 647.5 165 762.5 307 762.5 c 256
 450 762.5 565 647.5 565 504.5 c 256
 565 495.7265625 564.560546875 487.053710938 563.704101562 478.5 c 257
 410.864257812 478.5 l 257
 412.915039062 486.826171875 414 495.536132812 414 504.5 c 256
 414 564.5 367 611.5 307 611.5 c 256
 248 611.5 201 564.5 201 504.5 c 256
 201 495.536132812 202.084960938 486.826171875 204.131835938 478.5 c 257
 51.2958984375 478.5 l 257
611.5 813 m 261x3780
 611.5 681 l 261x3780
 450.5 681 l 261
 450.5 813 l 261x3720
 611.5 813 l 261x3780
411.5 860 m 261xa740
 563.5 860 l 261
 563.5 8 l 261
 411.5 8 l 261
 411.5 860 l 261xa740
EndSplineSet
EndChar

StartChar: uni0964
Encoding: 2404 2404 374
Width: 252
VWidth: 0
Flags: HW
HStem: 8 21G<50 202> 502 20G<50 202> 640 142<50 202>
VStem: 50 152<8 522 640 782>
LayerCount: 2
Fore
SplineSet
202 380 m 257
 202 -20 l 257
 50 -20 l 257
 50 380 l 257
 202 380 l 257
EndSplineSet
EndChar

StartChar: uni0981
Encoding: 2433 2433 376
Width: 0
Flags: HW
LayerCount: 2
Fore
SplineSet
193 629 m 261
 193 623 193 616 193 610 c 260
 193 502 107 416 1 416 c 260
 -107 416 -193 502 -193 610 c 260
 -193 616 -193 623 -193 629 c 261
 -77 629 l 261
 -79 623 -80 616 -80 610 c 260
 -80 565 -44 529 1 529 c 260
 46 529 80 565 80 610 c 260
 80 616 79 623 77 629 c 261
 193 629 l 261
-61 668 m 257
 -61 782 l 257
 61 782 l 257
 61 668 l 257
 -61 668 l 257
EndSplineSet
EndChar

StartChar: uni09AD
Encoding: 2477 2477 377
Width: 726
VWidth: 75
Flags: HW
HStem: 14.7002 133.6<305.264 468.805> 523.479 120.821<395.987 467.023> 681 132<0 726>
VStem: 92.4004 111.399<250.829 338.876> 570.2 133.399<250.829 424.049>
LayerCount: 2
Fore
SplineSet
509 627 m 257
 509 621 509 614 509 608 c 256
 509 500 423 414 317 414 c 256
 209 414 123 500 123 608 c 256
 123 614 123 621 123 627 c 257
 239 627 l 257
 237 621 236 614 236 608 c 256
 236 563 272 527 317 527 c 256
 362 527 396 563 396 608 c 256
 396 614 395 621 393 627 c 257
 509 627 l 257
726 813 m 257
 726 681 l 257
 0 681 l 257
 0 813 l 257
 726 813 l 257
389.780273438 523.478515625 m 1
 389.400390625 521.099609375 395.987304688 644.29296875 395.987304688 644.29296875 c 1
 396.657226562 644.297851562 397.328125 644.299804688 398 644.299804688 c 256
 566.799804688 644.299804688 703.599609375 503.5 703.599609375 329.900390625 c 256
 703.599609375 155.5 566.799804688 14.7001953125 398 14.7001953125 c 256
 229.200195312 14.7001953125 92.400390625 155.5 92.400390625 329.900390625 c 256
 92.400390625 330.77734375 203.86328125 340.658203125 203.870117188 341.533203125 c 1
 203.823242188 339.794921875 203.799804688 338.049804688 203.799804688 336.299804688 c 256
 203.799804688 232.299804688 285.400390625 148.299804688 387 148.299804688 c 256
 488.599609375 148.299804688 570.200195312 232.299804688 570.200195312 336.299804688 c 256
 570.200195312 438.556640625 490.084960938 521.962890625 389.780273438 523.478515625 c 1
EndSplineSet
EndChar

StartChar: uni09A7
Encoding: 2471 2471 378
Width: 752
Flags: HW
LayerCount: 2
Fore
SplineSet
561 635.5 m 257x10
 561 483.5 l 257
 194 359.5 l 257
 503 164.5 l 257
 503 12.5 l 257
 50 283.5 l 257
 50 435.5 l 257
 561 635.5 l 257x10
702.5 813 m 257x80
 702.5 681 l 257
 504.5 681 l 257
 504.5 813 l 257
 702.5 813 l 257x80
503.5 787 m 257x60
 649.5 787 l 257
 649.5 11 l 257
 503.5 11 l 257
 503.5 787 l 257x60
355 423.5 m 261
 349 423.5 342 423.5 336 423.5 c 260
 228 423.5 142 509.5 142 615.5 c 260
 142 723.5 228 809.5 336 809.5 c 260
 342 809.5 349 809.5 355 809.5 c 261
 355 693.5 l 261
 349 695.5 342 696.5 336 696.5 c 260
 291 696.5 255 660.5 255 615.5 c 260
 255 570.5 291 536.5 336 536.5 c 260
 342 536.5 349 537.5 355 539.5 c 261
 355 423.5 l 261
EndSplineSet
EndChar

StartChar: uni09A8
Encoding: 2472 2472 379
Width: 661
VWidth: 0
Flags: HW
LayerCount: 2
Fore
SplineSet
107.795898438 53.5 m 257
 106.938476562 62.0537109375 106.5 70.7265625 106.5 79.5 c 256
 106.5 222.5 221.5 337.5 363.5 337.5 c 256
 506.5 337.5 621.5 222.5 621.5 79.5 c 256
 621.5 70.7265625 621.060546875 62.0537109375 620.204101562 53.5 c 257
 467.364257812 53.5 l 257
 469.415039062 61.826171875 470.5 70.5361328125 470.5 79.5 c 256
 470.5 139.5 423.5 186.5 363.5 186.5 c 256
 304.5 186.5 257.5 139.5 257.5 79.5 c 256
 257.5 70.5361328125 258.584960938 61.826171875 260.631835938 53.5 c 257
 107.795898438 53.5 l 257
661 813 m 261x3780
 661 681 l 261x3780
 0 681 l 261
 0 813 l 261x3720
 661 813 l 261x3780
464 813 m 261xa740
 616 813 l 261
 616 8 l 261
 464 8 l 261
 464 813 l 261xa740
EndSplineSet
EndChar

StartChar: uni09B6
Encoding: 2486 2486 380
Width: 642
Flags: HW
LayerCount: 2
Fore
SplineSet
642.5 813 m 257xe0
 642.5 681 l 257xe0
 481.5 681 l 257
 481.5 813 l 257xc8
 642.5 813 l 257xe0
529.5 497 m 257
 395.5 632 l 257
 420.5 713 l 257
 548.5 604 l 257
 529.5 497 l 257
442.5 857 m 257xd0
 594.5 857 l 257
 594.5 8 l 257
 442.5 8 l 257
 442.5 857 l 257xd0
423 715.5 m 257
 423 599.5 l 257
 417 601.5 410 602.5 404 602.5 c 256
 359 602.5 323 568.5 323 523.5 c 256
 323 478.5 359 442.5 404 442.5 c 256
 410 442.5 417 443.5 423 445.5 c 257
 423 329.5 l 257
 417 329.5 410 329.5 404 329.5 c 256
 296 329.5 210 415.5 210 523.5 c 256
 210 629.5 296 715.5 404 715.5 c 256
 410 715.5 417 715.5 423 715.5 c 257
0 715.5 m 257
 6 715.5 13 715.5 19 715.5 c 260
 127 715.5 213 629.5 213 523.5 c 260
 213 415.5 127 329.5 19 329.5 c 256
 13 329.5 6 329.5 0 329.5 c 257
 0 445.5 l 257
 6 443.5 13 442.5 19 442.5 c 256
 64 442.5 100 478.5 100 523.5 c 256
 100 568.5 64 602.5 19 602.5 c 256
 13 602.5 6 601.5 0 599.5 c 257
 0 715.5 l 257
EndSplineSet
EndChar

StartChar: uni0988
Encoding: 2440 2440 381
Width: 1077
VWidth: 0
Flags: HW
HStem: 9 21G<407 593> 681 132<0 307.581 543.755 689>
LayerCount: 2
Fore
SplineSet
1077 813 m 1
 1077 681 l 1
 0 681 l 1
 0 813 l 1
 538.489257812 813 l 1
 532.990234375 838.393554688 522.922851562 864.420898438 504.7890625 882.776367188 c 0
 473.380859375 913.592773438 472.673828125 914.299804688 441.560546875 945.412109375 c 0
 394.891601562 992.081054688 336.202148438 972.989257812 289.532226562 1019.65820312 c 0
 254.177734375 1055.01367188 248.520507812 1139.8671875 248.520507812 1139.8671875 c 1
 336.909179688 1228.25488281 l 1
 336.909179688 1228.25488281 344.6875 1141.28125 380.749023438 1105.21875 c 0
 426.00390625 1059.96386719 483.280273438 1081.88378906 528.53515625 1036.62890625 c 0
 562.475585938 1002.68847656 565.3046875 999.859375 599.245117188 965.918945312 c 0
 649.2734375 915.890625 629.794921875 818.1796875 632.479492188 818.1328125 c 1
 627.346679688 813 l 1
 1077 813 l 1
236.141601562 482.20703125 m 1
 236.141601562 482.20703125 128.799804688 588.45703125 128.026367188 587.68359375 c 1
 230.65625 690.313476562 392.620117188 692.33203125 495.080078125 589.872070312 c 0
 526.888671875 558.063476562 548.51953125 520.3671875 560.09375 480.42578125 c 1
 638.814453125 544.576171875 l 1
 648.905273438 560.615234375 660.97265625 575.818359375 675.026367188 589.872070312 c 0
 702.493164062 617.338867188 734.235351562 637.296875 767.96484375 649.822265625 c 1
 778 658 l 1
 776.53515625 652.831054688 l 1
 866.62890625 682.658203125 969.28125 660.482421875 1042.08007812 587.68359375 c 1
 1041.30664062 588.45703125 933.96484375 482.20703125 933.96484375 482.20703125 c 1
 888.588867188 525.487304688 824.943359375 526.244140625 781.799804688 483.099609375 c 0
 739.116210938 440.416015625 740.233398438 376.353515625 783.96484375 331.051757812 c 0
 829.39453125 287.127929688 893.439453125 286.440429688 935.948242188 328.950195312 c 0
 936.184570312 329.186523438 936.419921875 329.422851562 936.653320312 329.66015625 c 1
 1039.18554688 227.127929688 l 1
 948.411132812 135.170898438 797.618164062 102.995117188 677.922851562 223.525390625 c 0
 641.263671875 260.440429688 617.456054688 304.904296875 606.677734375 351.443359375 c 1
 534 275 l 1
 532.737304688 275.57421875 l 1
 521.665039062 257.095703125 508.141601562 239.594726562 492.18359375 223.525390625 c 0
 372.48828125 102.995117188 221.6953125 135.170898438 130.920898438 227.127929688 c 1
 233.453125 329.66015625 l 1
 233.686523438 329.422851562 233.921875 329.186523438 234.158203125 328.950195312 c 0
 276.666992188 286.440429688 340.711914062 287.127929688 386.141601562 331.051757812 c 0
 388.659179688 333.66015625 391.036132812 336.331054688 393.271484375 339.055664062 c 1
 389 341 l 1
 402.678710938 352.146484375 l 1
 429.252929688 394.749023438 424.708007812 446.698242188 388.306640625 483.099609375 c 0
 345.163085938 526.244140625 281.517578125 525.487304688 236.141601562 482.20703125 c 1
EndSplineSet
EndChar

StartChar: uni0996
Encoding: 2454 2454 382
Width: 752
Flags: HW
LayerCount: 2
Fore
SplineSet
319.5 724 m 257x80
 451.5 724 l 257
 335.5 454 l 257
 288.5 519 l 257
 319.5 724 l 257x80
335 607.5 m 257x10
 335 455.5 l 257
 194 283.5 l 257
 503 169.5 l 261
 503 12.5 l 257
 50 189.5 l 257
 50 341.5 l 257
 335 607.5 l 257x10
724.5 813 m 257x80
 724.5 681 l 257
 526.5 681 l 257
 526.5 813 l 257
 724.5 813 l 257x80
503.5 787 m 257x60
 649.5 787 l 257
 649.5 11 l 257
 503.5 11 l 257
 503.5 787 l 257x60
317.5 723 m 257
 317.5 717 317.5 710 317.5 704 c 256
 317.5 596 231.5 510 125.5 510 c 256
 17.5 510 -68.5 596 -68.5 704 c 256
 -68.5 710 -68.5 717 -68.5 723 c 257
 47.5 723 l 257
 45.5 717 44.5 710 44.5 704 c 256
 44.5 659 80.5 623 125.5 623 c 256
 170.5 623 204.5 659 204.5 704 c 256
 204.5 710 203.5 717 201.5 723 c 257
 317.5 723 l 257
EndSplineSet
EndChar

StartChar: uni098B
Encoding: 2443 2443 383
Width: 1344
Flags: HW
LayerCount: 2
Fore
SplineSet
1344.5 805 m 257x3780
 1344.5 673 l 257x3780
 1144.5 673 l 257
 1144.5 805 l 257x3720
 1344.5 805 l 257x3780
1066.5 297 m 257
 1248.5 115 l 257
 1140.5 8 l 257xa7
 958.5 190 l 257
 1066.5 297 l 257
1142.5 10 m 257
 1142.5 786 l 257
 1294.5 786 l 257x2f
 1294.5 10 l 257
 1142.5 10 l 257
436 723 m 257
 436 717 436 710 436 704 c 256
 436 596 350 510 244 510 c 256
 136 510 50 596 50 704 c 256
 50 710 50 717 50 723 c 257
 166 723 l 257
 164 717 163 710 163 704 c 256
 163 659 199 623 244 623 c 256
 289 623 323 659 323 704 c 256
 323 710 322 717 320 723 c 257
 436 723 l 257
738 724 m 257x80
 925 724 l 257
 754 454 l 257
 707 519 l 257
 738 724 l 257x80
753.5 607.5 m 257x10
 753.5 455.5 l 257
 612.5 283.5 l 257
 921.5 169.5 l 257
 921.5 12.5 l 257
 468.5 189.5 l 257
 468.5 341.5 l 257
 753.5 607.5 l 257x10
922 787 m 257x60
 1068 787 l 257
 1068 11 l 257
 922 11 l 257
 922 787 l 257x60
736 723 m 257
 736 717 736 710 736 704 c 256
 736 596 650 510 544 510 c 256
 436 510 350 596 350 704 c 256
 350 710 350 717 350 723 c 257
 466 723 l 257
 464 717 463 710 463 704 c 256
 463 659 499 623 544 623 c 256
 589 623 623 659 623 704 c 256
 623 710 622 717 620 723 c 257
 736 723 l 257
EndSplineSet
EndChar

StartChar: uni09B2
Encoding: 2482 2482 384
Width: 943
VWidth: 0
Flags: HW
LayerCount: 2
Fore
SplineSet
943 813 m 1
 943 681 l 1
 895 681 l 1
 895 56.6669921875 l 2
 895.2265625 55.609375 895.309570312 54.5537109375 895.204101562 53.5 c 2
 895 53.5 l 1
 895 8 l 1
 743 8 l 1
 743 53.5 l 1
 742.364257812 53.5 l 1
 742.587890625 54.4072265625 742.799804688 55.318359375 743 56.2353515625 c 2
 743 103.0703125 l 1
 732.53515625 151.364257812 690.376953125 186.5 638.5 186.5 c 0
 587.051757812 186.5 544.728515625 150.76171875 534.736328125 101.829101562 c 0
 535.572265625 93.3369140625 536 84.720703125 536 76 c 0
 536 69.0615234375 535.725585938 62.1865234375 535.186523438 55.3837890625 c 0
 535.329101562 54.75390625 535.477539062 54.1259765625 535.631835938 53.5 c 1
 535.030273438 53.5 l 2
 534.9296875 52.3310546875 534.8203125 51.1640625 534.704101562 50 c 2
 381.864257812 50 l 1
 382.184570312 51.2998046875 382.48046875 52.6083984375 382.75390625 53.9267578125 c 0
 381.923828125 62.341796875 381.5 70.8720703125 381.5 79.5 c 0
 381.5 86.625 381.755859375 93.6796875 382.258789062 100.654296875 c 0
 371.40234375 148.389648438 329.487304688 183 278 183 c 0
 219 183 172 136 172 76 c 0
 172 67.0361328125 173.084960938 58.326171875 175.131835938 50 c 1
 22.2958984375 50 l 1
 21.4384765625 58.5537109375 21 67.2265625 21 76 c 0
 21 219 136 334 278 334 c 0
 346.041015625 334 407.7421875 307.96484375 453.733398438 265.265625 c 1
 497.030273438 310.038085938 557.108398438 337.5 626.5 337.5 c 0
 668.48046875 337.5 708.046875 327.588867188 743 309.96875 c 1
 743 681 l 1
 0 681 l 1
 0 813 l 1
 743 813 l 1
 895 813 l 1
 943 813 l 1
EndSplineSet
EndChar

StartChar: uni09AF
Encoding: 2479 2479 385
Width: 841
VWidth: 0
Flags: HW
HStem: 20 152<235.1 580.7> 620 152<34.3 378.3>
LayerCount: 2
Fore
SplineSet
841 813 m 257x3780
 841 681 l 257x3780
 0 681 l 261
 0 813 l 261x3720
 841 813 l 257x3780
644 813 m 257xa740
 796 813 l 257
 796 8 l 257
 644 8 l 257
 644 813 l 257xa740
76.755859375 190.198242188 m 257
 108.228515625 337.01953125 l 257
 379.267578125 497.461914062 l 257
 89.9892578125 700.75390625 l 257
 121.461914062 812.575195312 l 257
 540.244140625 578.801757812 l 257
 508.771484375 431.98046875 l 257
 302.186523438 272.055664062 l 257
 681.010742188 155.24609375 l 257
 649.538085938 8.4248046875 l 257
 76.755859375 190.198242188 l 257
EndSplineSet
EndChar

StartChar: uni09AB
Encoding: 2475 2475 386
Width: 1167
VWidth: 0
Flags: HW
HStem: 20 152<235.1 580.7> 620 152<34.3 378.3>
LayerCount: 2
Fore
SplineSet
645.795898438 304.5 m 257x94
 644.938476562 313.053710938 644.5 321.7265625 644.5 330.5 c 256
 644.5 473.5 759.5 588.5 901.5 588.5 c 256
 1044.5 588.5 1159.5 473.5 1159.5 330.5 c 256
 1159.5 321.7265625 1159.06054688 313.053710938 1158.20410156 304.5 c 257
 1005.36425781 304.5 l 257
 1007.41503906 312.826171875 1008.5 321.536132812 1008.5 330.5 c 256
 1008.5 390.5 961.5 437.5 901.5 437.5 c 256
 842.5 437.5 795.5 390.5 795.5 330.5 c 256
 795.5 321.536132812 796.584960938 312.826171875 798.631835938 304.5 c 257
 645.795898438 304.5 l 257x94
1167 813 m 261x3780
 1167 681 l 261x3780
 0 681 l 257
 0 813 l 257x3720
 1167 813 l 261x3780
644 333 m 257xa740
 796 333 l 257
 796 8 l 257
 644 8 l 257
 644 333 l 257xa740
76.755859375 190.198242188 m 257
 108.228515625 337.01953125 l 257
 379.267578125 497.461914062 l 257
 89.9892578125 700.75390625 l 257
 121.461914062 812.575195312 l 257
 540.244140625 578.801757812 l 257
 508.771484375 431.98046875 l 257
 302.186523438 272.055664062 l 257
 681.010742188 155.24609375 l 257
 649.538085938 8.4248046875 l 257
 76.755859375 190.198242188 l 257
EndSplineSet
EndChar

StartChar: uni0997
Encoding: 2455 2455 387
Width: 690
VWidth: 0
Flags: HW
LayerCount: 2
Fore
SplineSet
687.5 813 m 257x3780
 687.5 681 l 257x3780
 526.5 681 l 257
 526.5 813 l 257x3720
 687.5 813 l 257x3780
487.5 860 m 257xa740
 639.5 860 l 257
 639.5 8 l 257
 487.5 8 l 257
 487.5 860 l 257xa740
68.615234375 393 m 257
 135.615234375 505 l 257
 141.615234375 499 148.615234375 496 157.615234375 493 c 256
 210.615234375 469 254.615234375 477 280.615234375 508 c 256
 309.615234375 542 258.615234375 548 204.615234375 557 c 257
 76.615234375 608 5.615234375 691 80.615234375 780 c 256
 143.615234375 856 296.615234375 873 423.615234375 819 c 256
 430.615234375 816 549.615234375 758 556.615234375 752 c 257
 489.615234375 622 l 257
 483.615234375 626 365.615234375 687 356.615234375 690 c 256
 303.615234375 712 281.615234375 705 255.615234375 674 c 256
 225.615234375 639 222.615234375 632 286.615234375 621 c 257
 405.615234375 571 508.615234375 510 432.615234375 421 c 256
 370.615234375 345 217.615234375 325 90.615234375 380 c 256
 83.615234375 382 76.615234375 387 68.615234375 393 c 257
EndSplineSet
EndChar

StartChar: uni098C
Encoding: 2444 2444 388
Width: 779
VWidth: 0
Flags: HW
HStem: 626 157<51.091 217.973> -4 161<51.091 217.973>
VStem: 352 153<292.8 487.701>
LayerCount: 2
Fore
SplineSet
98.1552734375 113.778320312 m 1
 97.2978515625 122.33203125 96.859375 131.004882812 96.859375 139.778320312 c 0
 96.859375 282.778320312 211.859375 397.779296875 353.859375 397.779296875 c 0
 448.783203125 397.779296875 531.369140625 347.10546875 576.170898438 271.20703125 c 1
 594.932617188 347.665039062 573.635742188 432.482421875 513.10546875 493.012695312 c 0
 421.181640625 584.936523438 274.810546875 587.05859375 185.0078125 497.255859375 c 0
 166.9375 479.185546875 152.58984375 458.826171875 141.946289062 437.079101562 c 1
 27.443359375 551.583007812 l 1
 40.8232421875 571.619140625 56.337890625 590.618164062 73.9921875 608.271484375 c 0
 223.19140625 757.470703125 468.557617188 753.935546875 622.70703125 599.786132812 c 0
 776.1484375 446.34375 779.684570312 200.977539062 630.485351562 51.7783203125 c 0
 612.831054688 34.125 593.83203125 18.6103515625 573.797851562 5.228515625 c 1
 465.248046875 113.778320312 l 1
 457.724609375 113.778320312 l 1
 458.227539062 115.819335938 458.671875 117.883789062 459.056640625 119.969726562 c 2
 456.470703125 122.555664062 l 1
 457.567382812 123.092773438 458.66015625 123.639648438 459.75 124.1953125 c 0
 460.481445312 129.283203125 460.860351562 134.486328125 460.859375 139.778320312 c 0
 460.860351562 199.778320312 413.859375 246.779296875 353.859375 246.778320312 c 0
 294.859375 246.779296875 247.859375 199.778320312 247.860351562 139.778320312 c 0
 247.859375 130.814453125 248.9453125 122.104492188 250.991210938 113.778320312 c 1
 98.1552734375 113.778320312 l 1
EndSplineSet
EndChar

StartChar: uni09EF
Encoding: 2543 2543 389
Width: 779
VWidth: 0
Flags: HW
HStem: 626 157<51.091 217.973> -4 161<51.091 217.973>
VStem: 352 153<292.8 487.701>
LayerCount: 2
Fore
SplineSet
98.1552734375 113.778320312 m 1
 97.2978515625 122.33203125 96.859375 131.004882812 96.859375 139.778320312 c 0
 96.859375 282.778320312 211.859375 397.779296875 353.859375 397.779296875 c 0
 448.783203125 397.779296875 531.369140625 347.10546875 576.170898438 271.20703125 c 1
 594.932617188 347.665039062 573.635742188 432.482421875 513.10546875 493.012695312 c 0
 421.181640625 584.936523438 274.810546875 587.05859375 185.0078125 497.255859375 c 0
 166.9375 479.185546875 152.58984375 458.826171875 141.946289062 437.079101562 c 1
 27.443359375 551.583007812 l 1
 40.8232421875 571.619140625 56.337890625 590.618164062 73.9921875 608.271484375 c 0
 223.19140625 757.470703125 468.557617188 753.935546875 622.70703125 599.786132812 c 0
 776.1484375 446.34375 779.684570312 200.977539062 630.485351562 51.7783203125 c 0
 612.831054688 34.125 593.83203125 18.6103515625 573.797851562 5.228515625 c 1
 465.248046875 113.778320312 l 1
 457.724609375 113.778320312 l 1
 458.227539062 115.819335938 458.671875 117.883789062 459.056640625 119.969726562 c 2
 456.470703125 122.555664062 l 1
 457.567382812 123.092773438 458.66015625 123.639648438 459.75 124.1953125 c 0
 460.481445312 129.283203125 460.860351562 134.486328125 460.859375 139.778320312 c 0
 460.860351562 199.778320312 413.859375 246.779296875 353.859375 246.778320312 c 0
 294.859375 246.779296875 247.859375 199.778320312 247.860351562 139.778320312 c 0
 247.859375 130.814453125 248.9453125 122.104492188 250.991210938 113.778320312 c 1
 98.1552734375 113.778320312 l 1
EndSplineSet
EndChar

StartChar: uni09EC
Encoding: 2540 2540 390
Width: 616
VWidth: 0
Flags: HW
HStem: 13.0016 151.016<243.473 373.671> 376 151.998<309 441> 681 132<0 309 441 616> 681 80<309 441>
VStem: 309 132<527.998 761>
LayerCount: 2
Fore
SplineSet
309 761 m 257xd8
 441 761 l 257
 441 376 l 257
 309 376 l 257
 309 761 l 257xd8
310.771484375 376.965820312 m 9
 310.771484375 376.965820312 310 527.998046875 308.905273438 527.998046875 c 257
 454.046875 527.998046875 573.453125 414.859375 570 270 c 256
 566.541015625 124.885742188 452.287109375 12.7998046875 308.90625 13.001953125 c 256
 139.0390625 13.240234375 55.1650390625 141.7890625 56.0009765625 271 c 9
 201.00390625 271 l 1
 201.000976562 270.666992188 201 270.333984375 201 270 c 256
 201 209.8828125 246.772460938 165.08203125 309.955078125 164.017578125 c 256
 372.911132812 165.126953125 419 209.63671875 419 270 c 256
 419 331.015625 373.461914062 375.484375 310.771484375 376.965820312 c 9
EndSplineSet
EndChar

StartChar: uni09ED
Encoding: 2541 2541 391
Width: 534
VWidth: 0
Flags: HW
HStem: 275 151<243.471 332> 639 150<243.591 331.625>
VStem: 332 152<13 276 426.026 638.974> 50 151<468.471 596.934>
LayerCount: 2
Fore
SplineSet
332 13 m 257
 332 276 l 257
 324 275 316 275 308 275 c 256
 165 275 50 390 50 533 c 256
 50 675 165 790 308 790 c 256
 316 790 403 797 445 762 c 280
 483 730 484 641 484 641 c 257
 484 13 l 257
 332 13 l 257
332 636 m 257
 324 638 316 639 308 639 c 256
 248 639 201 592 201 533 c 256
 201 473 248 426 308 426 c 256
 316 426 324 427 332 429 c 257
 332 636 l 257
EndSplineSet
EndChar

StartChar: uni09EE
Encoding: 2542 2542 392
Width: 692
VWidth: 0
Flags: HW
HStem: 377.571 151<202 290.529> 14.5714 150<202.375 290.409>
VStem: 50 152<527.571 790.571 164.597 377.545> 333 151<206.637 335.1>
LayerCount: 2
Fore
SplineSet
202 167.571289062 m 1
 210 165.571289062 218 164.571289062 226 164.571289062 c 0
 286 164.571289062 333 211.571289062 333 270.571289062 c 0
 333 322.331054688 298.0234375 364.416992188 249.896484375 375 c 1
 203.78125 375 l 2
 203.1875 374.862304688 202.59375 374.719726562 202 374.571289062 c 2
 202 167.571289062 l 1
202 790.571289062 m 1
 202 527.571289062 l 1
 210 528.571289062 218 528.571289062 226 528.571289062 c 0
 235.734375 528.571289062 245.338867188 528.038085938 254.787109375 527 c 2
 639 527 l 1
 639 375 l 1
 462.165039062 375 l 1
 476.209960938 343.109375 484 307.7890625 484 270.571289062 c 0
 484 128.571289062 369 13.5712890625 226 13.5712890625 c 0
 218 13.5712890625 131 6.5712890625 89 41.5712890625 c 0
 51 73.5712890625 50 162.571289062 50 162.571289062 c 1
 50 790.571289062 l 1
 202 790.571289062 l 1
EndSplineSet
EndChar

StartChar: uni09EB
Encoding: 2539 2539 393
Width: 779
VWidth: 0
Flags: HW
HStem: 626 157<549.596 716.478> -4 161<549.596 716.478>
VStem: 262.569 153<292.8 487.701>
LayerCount: 2
Fore
SplineSet
736.516601562 489.231445312 m 5
 729.537109375 494.25 722.24609375 498.966796875 714.646484375 503.353515625 c 4
 651.125976562 540.02734375 555.856445312 506.979492188 490.943359375 488.297851562 c 5
 384.618164062 610.763671875 l 5
 401.4296875 613.403320312 418.18359375 614.084960938 434.633789062 612.95703125 c 5
 392.721679688 769.372070312 l 5
 368.680664062 767.802734375 344.46875 763.866210938 320.353515625 757.403320312 c 4
 116.543945312 702.79296875 -3.0771484375 488.53125 53.3447265625 277.9609375 c 4
 109.508789062 68.3544921875 320.234375 -57.3896484375 524.044921875 -2.78125 c 4
 548.16015625 3.6826171875 571.09375 12.37890625 592.702148438 23.037109375 c 5
 552.96875 171.319335938 l 5
 556.731445312 177.834960938 l 5
 554.712890625 178.418945312 552.702148438 179.067382812 550.702148438 179.77734375 c 6
 549.756835938 183.309570312 l 5
 548.743164062 182.627929688 547.723632812 181.956054688 546.697265625 181.290039062 c 4
 541.924804688 183.200195312 537.229492188 185.474609375 532.647460938 188.12109375 c 4
 480.685546875 218.119140625 463.481445312 282.32421875 493.482421875 334.28515625 c 4
 522.982421875 385.381835938 587.185546875 402.583984375 639.147460938 372.583007812 c 4
 646.911132812 368.102539062 653.911132812 362.805664062 660.09765625 356.872070312 c 5
 736.516601562 489.231445312 l 5
355.770507812 394.469726562 m 5
 350.025390625 386.6953125 367.659179688 418.35546875 362.711914062 409.786132812 c 4
 315.25 327.578125 317.842773438 230.720703125 361.170898438 153.971679688 c 5
 285.575195312 175.953125 222.76953125 236.805664062 200.615234375 319.491210938 c 4
 180.83984375 393.290039062 197.331054688 467.865234375 239.19140625 523.487304688 c 5
 355.770507812 394.469726562 l 5
EndSplineSet
EndChar

StartChar: uni09B7
Encoding: 2487 2487 394
Width: 841
VWidth: 0
Flags: HW
HStem: 20 152<235.1 580.7> 620 152<34.3 378.3>
LayerCount: 2
Fore
SplineSet
76.755859375 190.198242188 m 1
 108.228515625 337.01953125 l 1
 379.267578125 497.461914062 l 1
 118.098632812 681 l 1
 0 681 l 1
 0 813 l 1
 841 813 l 1
 841 681 l 1
 796 681 l 1
 796 8 l 1
 644 8 l 1
 644 10.1826171875 l 1
 76.755859375 190.198242188 l 1
644 166.658203125 m 1
 644 391.504882812 l 1
 511.956054688 446.836914062 l 1
 302.186523438 272.055664062 l 1
 644 166.658203125 l 1
644 681 m 1
 357.166015625 681 l 1
 644 538.982421875 l 1
 644 681 l 1
EndSplineSet
EndChar

StartChar: uni09A5
Encoding: 2469 2469 395
Width: 723
VWidth: 0
Flags: HW
HStem: 13 151<243.471 334> 377 151<243.471 334>
VStem: 50 151<206.066 334.529>
LayerCount: 2
Fore
SplineSet
242.400390625 793.462890625 m 1
 249.243164062 794.149414062 254.181640625 794.52734375 261.200195312 794.5 c 0
 375.951171875 794.052734375 460.767578125 708.090820312 467.599609375 588.900390625 c 0
 476.655273438 430.920898438 281.840820312 357.525390625 180 293 c 1
 524 176.745117188 l 1
 524 681 l 1
 524 787 l 1
 524 813 l 1
 723 813 l 1
 723 681 l 1
 670 681 l 1
 670 11 l 1
 524 11 l 1
 524 26.0556640625 l 1
 88 207 l 1
 88 359 l 1
 311 528 l 1
 311.254882812 524.560546875 311.499023438 521.216796875 311.731445312 517.965820312 c 1
 334.264648438 533.232421875 348.799804688 559.055664062 348.799804688 588.900390625 c 0
 348.799804688 636.099609375 311.200195312 673.700195312 263.200195312 673.700195312 c 0
 256.029296875 673.700195312 249.060546875 672.83203125 242.400390625 671.194335938 c 1
 242.400390625 793.462890625 l 1
EndSplineSet
EndChar
